<svg width="236" height="13" viewBox="0 0 236 13" fill="none" xmlns="http://www.w3.org/2000/svg">
<path d="M0.284336 5.1C0.284336 7.97 2.45434 10.14 5.32434 10.14C8.19434 10.14 10.3643 7.97 10.3643 5.1C10.3643 2.23 8.19434 0.0599995 5.32434 0.0599995C2.45434 0.0599995 0.284336 2.23 0.284336 5.1ZM5.32434 9.23C3.08434 9.23 1.26434 7.494 1.26434 5.1C1.26434 2.706 3.08434 0.969999 5.32434 0.969999C7.56434 0.969999 9.38434 2.706 9.38434 5.1C9.38434 7.494 7.56434 9.23 5.32434 9.23ZM6.79434 5.94C6.58434 6.654 6.10834 6.92 5.39434 6.92C4.48434 6.92 3.78434 6.22 3.78434 5.1C3.78434 3.98 4.48434 3.28 5.39434 3.28C6.10834 3.28 6.58434 3.56 6.79434 4.19H7.70434C7.42434 3.126 6.51434 2.44 5.39434 2.44C3.99434 2.44 2.87434 3.56 2.87434 5.1C2.87434 6.64 3.93834 7.76 5.39434 7.76C6.51434 7.76 7.42434 7.06 7.70434 5.94H6.79434ZM15.1987 10H21.3587V8.95H16.8087V8.88L19.9587 5.59C20.6447 4.862 21.1487 4.19 21.1487 3C21.1487 1.25 19.8887 0.0599995 18.1387 0.0599995C16.3887 0.0599995 15.1287 1.39 15.1287 3.21H16.2487C16.2487 1.95 17.0887 1.11 18.1387 1.11C19.2587 1.11 20.0287 1.88 20.0287 3C20.0287 3.784 19.7487 4.218 19.1887 4.82L15.1987 9.09V10ZM22.6909 5.1C22.6909 8.404 24.4549 10.14 26.4709 10.14C28.4869 10.14 30.2509 8.404 30.2509 5.1C30.2509 1.796 28.4869 0.0599995 26.4709 0.0599995C24.4549 0.0599995 22.6909 1.796 22.6909 5.1ZM26.4709 1.11C27.8709 1.11 29.1309 2.454 29.1309 5.1C29.1309 7.746 27.8709 9.09 26.4709 9.09C25.0709 9.09 23.8109 7.746 23.8109 5.1C23.8109 2.454 25.0709 1.11 26.4709 1.11ZM31.7964 10H37.9564V8.95H33.4064V8.88L36.5564 5.59C37.2424 4.862 37.7464 4.19 37.7464 3C37.7464 1.25 36.4864 0.0599995 34.7364 0.0599995C32.9864 0.0599995 31.7264 1.39 31.7264 3.21H32.8464C32.8464 1.95 33.6864 1.11 34.7364 1.11C35.8564 1.11 36.6264 1.88 36.6264 3C36.6264 3.784 36.3464 4.218 35.7864 4.82L31.7964 9.09V10ZM40.9686 10H42.0886V0.199999H40.9686V0.899999C40.9686 1.18 40.8286 1.32 40.5486 1.32H38.8686V2.3H40.9686V10ZM47.5546 10H53.5746V8.95H48.6746V0.199999H47.5546V10ZM54.9084 10H55.9584V3H54.9084V10ZM54.8384 1.53H56.0284V0.339999H54.8384V1.53ZM58.4729 10H59.5229V3.98H60.9929V3H59.5229V1.88C59.5229 1.6 59.6629 1.46 59.9429 1.46H60.9929V0.48H59.7329C58.9489 0.48 58.4729 0.956 58.4729 1.67V3H57.3529V3.98H58.4729V10ZM62.8069 8.81C62.8069 9.524 63.2829 10 64.0669 10H65.4669V9.02H64.2769C63.9969 9.02 63.8569 8.88 63.8569 8.6V3.98H65.4669V3H63.8569V1.04H62.8069V3H61.6869V3.98H62.8069V8.81ZM70.4413 10H71.5613V1.67H71.8413L74.7813 10H76.4613L79.4013 1.67H79.6813V10H80.8013V0.199999H78.7713L75.7613 8.74H75.4813L72.4713 0.199999H70.4413V10ZM87.7368 8.04C87.3868 8.754 86.6868 9.16 85.8468 9.16C84.6708 9.16 83.6908 8.32 83.5368 6.99H88.9968L89.0248 6.822C89.0388 6.696 89.0668 6.5 89.0668 6.22C89.0668 4.26 87.6808 2.86 85.8468 2.86C83.9568 2.86 82.4868 4.33 82.4868 6.5C82.4868 8.67 83.9568 10.14 85.8468 10.14C87.3168 10.14 88.3668 9.384 88.8568 8.04H87.7368ZM83.5368 6.01C83.6908 4.736 84.5728 3.84 85.8468 3.84C87.0368 3.84 87.9468 4.736 88.0168 6.01H83.5368ZM95.854 10H96.764V0.199999H95.714V3.98H95.644C95.084 3.266 94.398 2.86 93.404 2.86C91.57 2.86 90.184 4.33 90.184 6.5C90.184 8.67 91.57 10.14 93.404 10.14C94.398 10.14 95.084 9.734 95.644 9.02H95.714L95.854 10ZM93.474 9.16C92.284 9.16 91.234 8.11 91.234 6.5C91.234 4.89 92.284 3.84 93.474 3.84C94.664 3.84 95.714 4.89 95.714 6.5C95.714 8.11 94.664 9.16 93.474 9.16ZM98.8635 10H99.9135V3H98.8635V10ZM98.7935 1.53H99.9835V0.339999H98.7935V1.53ZM106.488 10H107.398V5.52C107.398 3.826 106.362 2.86 104.668 2.86C102.918 2.86 101.938 3.91 101.868 5.03H102.918C102.988 4.4 103.604 3.84 104.668 3.84C105.732 3.84 106.348 4.456 106.348 5.52V5.73H104.458C102.498 5.73 101.658 6.626 101.658 7.97C101.658 9.244 102.638 10.14 104.108 10.14C104.892 10.14 105.424 9.916 105.774 9.65C105.984 9.51 106.152 9.342 106.278 9.16H106.348L106.488 10ZM106.348 6.99C106.348 8.334 105.508 9.16 104.108 9.16C103.198 9.16 102.708 8.684 102.708 7.97C102.708 7.284 103.184 6.71 104.458 6.71H106.348V6.99ZM109.222 10H110.482V8.74H109.222V10ZM114.548 10H115.738L116.648 7.48H121.548L122.458 10H123.648L119.938 0.199999H118.258L114.548 10ZM117.068 6.43L118.958 1.39H119.238L121.128 6.43H117.068ZM124.703 10H125.753V0.199999H124.703V10ZM127.848 10H128.898V0.199999H127.848V10ZM134.289 10H135.409V6.22H136.249L140.169 10H141.569L137.649 6.22H138.559C140.085 6.22 141.359 4.96 141.359 3.21C141.359 1.46 140.085 0.199999 138.559 0.199999H134.289V10ZM135.409 5.17V1.25H138.559C139.469 1.25 140.239 2.02 140.239 3.21C140.239 4.4 139.469 5.17 138.559 5.17H135.409ZM143.174 10H144.224V3H143.174V10ZM143.104 1.53H144.294V0.339999H143.104V1.53ZM146.109 10.56C146.179 11.75 147.285 12.94 149.259 12.94C151.219 12.94 152.409 11.75 152.409 10V3H151.499L151.359 3.91H151.289C150.799 3.28 149.959 2.86 149.049 2.86C147.215 2.86 145.829 4.26 145.829 6.29C145.829 8.32 147.215 9.72 149.049 9.72C149.959 9.72 150.729 9.37 151.289 8.74H151.359V10C151.359 11.19 150.533 11.96 149.259 11.96C147.915 11.96 147.229 11.274 147.159 10.56H146.109ZM149.119 8.74C147.859 8.74 146.879 7.76 146.879 6.29C146.879 4.82 147.859 3.84 149.119 3.84C150.379 3.84 151.359 4.82 151.359 6.29C151.359 7.76 150.379 8.74 149.119 8.74ZM154.44 10H155.49V5.8C155.49 4.75 156.4 3.84 157.52 3.84C158.57 3.84 159.41 4.68 159.41 5.8V10H160.46V5.8C160.46 4.05 159.27 2.86 157.66 2.86C156.946 2.86 156.428 3.098 156.078 3.322C155.868 3.448 155.7 3.602 155.56 3.77H155.49V0.199999H154.44V10ZM162.639 8.81C162.639 9.524 163.115 10 163.899 10H165.299V9.02H164.109C163.829 9.02 163.689 8.88 163.689 8.6V3.98H165.299V3H163.689V1.04H162.639V3H161.519V3.98H162.639V8.81ZM166.347 7.97C166.347 9.09 167.397 10.14 169.147 10.14C170.981 10.14 171.877 9.23 171.877 8.11C171.877 6.99 171.247 6.346 169.847 6.08L168.657 5.87C167.817 5.716 167.537 5.38 167.537 4.89C167.537 4.33 168.013 3.84 169.077 3.84C170.141 3.84 170.757 4.4 170.757 5.03H171.807C171.807 3.91 170.757 2.86 169.077 2.86C167.341 2.86 166.487 3.77 166.487 4.89C166.487 6.01 167.173 6.64 168.447 6.85L169.637 7.06C170.477 7.214 170.827 7.55 170.827 8.11C170.827 8.67 170.267 9.16 169.147 9.16C168.027 9.16 167.397 8.6 167.397 7.97H166.347ZM176.713 10H177.833V6.22H178.673L182.593 10H183.993L180.073 6.22H180.983C182.509 6.22 183.783 4.96 183.783 3.21C183.783 1.46 182.509 0.199999 180.983 0.199999H176.713V10ZM177.833 5.17V1.25H180.983C181.893 1.25 182.663 2.02 182.663 3.21C182.663 4.4 181.893 5.17 180.983 5.17H177.833ZM190.084 8.04C189.734 8.754 189.034 9.16 188.194 9.16C187.018 9.16 186.038 8.32 185.884 6.99H191.344L191.372 6.822C191.386 6.696 191.414 6.5 191.414 6.22C191.414 4.26 190.028 2.86 188.194 2.86C186.304 2.86 184.834 4.33 184.834 6.5C184.834 8.67 186.304 10.14 188.194 10.14C189.664 10.14 190.714 9.384 191.204 8.04H190.084ZM185.884 6.01C186.038 4.736 186.92 3.84 188.194 3.84C189.384 3.84 190.294 4.736 190.364 6.01H185.884ZM192.392 7.97C192.392 9.09 193.442 10.14 195.192 10.14C197.026 10.14 197.922 9.23 197.922 8.11C197.922 6.99 197.292 6.346 195.892 6.08L194.702 5.87C193.862 5.716 193.582 5.38 193.582 4.89C193.582 4.33 194.058 3.84 195.122 3.84C196.186 3.84 196.802 4.4 196.802 5.03H197.852C197.852 3.91 196.802 2.86 195.122 2.86C193.386 2.86 192.532 3.77 192.532 4.89C192.532 6.01 193.218 6.64 194.492 6.85L195.682 7.06C196.522 7.214 196.872 7.55 196.872 8.11C196.872 8.67 196.312 9.16 195.192 9.16C194.072 9.16 193.442 8.6 193.442 7.97H192.392ZM204.221 8.04C203.871 8.754 203.171 9.16 202.331 9.16C201.155 9.16 200.175 8.32 200.021 6.99H205.481L205.509 6.822C205.523 6.696 205.551 6.5 205.551 6.22C205.551 4.26 204.165 2.86 202.331 2.86C200.441 2.86 198.971 4.33 198.971 6.5C198.971 8.67 200.441 10.14 202.331 10.14C203.801 10.14 204.851 9.384 205.341 8.04H204.221ZM200.021 6.01C200.175 4.736 201.057 3.84 202.331 3.84C203.521 3.84 204.431 4.736 204.501 6.01H200.021ZM207.088 10H208.138V5.52C208.138 4.526 208.684 3.98 209.678 3.98H210.728V3H209.538C208.768 3 208.488 3.294 208.208 3.7H208.138L207.998 3H207.088V10ZM213.526 10H215.206L217.726 3H216.606L214.506 8.88H214.226L212.126 3H211.006L213.526 10ZM223.539 8.04C223.189 8.754 222.489 9.16 221.649 9.16C220.473 9.16 219.493 8.32 219.339 6.99H224.799L224.827 6.822C224.841 6.696 224.869 6.5 224.869 6.22C224.869 4.26 223.483 2.86 221.649 2.86C219.759 2.86 218.289 4.33 218.289 6.5C218.289 8.67 219.759 10.14 221.649 10.14C223.119 10.14 224.169 9.384 224.659 8.04H223.539ZM219.339 6.01C219.493 4.736 220.375 3.84 221.649 3.84C222.839 3.84 223.749 4.736 223.819 6.01H219.339ZM231.657 10H232.567V0.199999H231.517V3.98H231.447C230.887 3.266 230.201 2.86 229.207 2.86C227.373 2.86 225.987 4.33 225.987 6.5C225.987 8.67 227.373 10.14 229.207 10.14C230.201 10.14 230.887 9.734 231.447 9.02H231.517L231.657 10ZM229.277 9.16C228.087 9.16 227.037 8.11 227.037 6.5C227.037 4.89 228.087 3.84 229.277 3.84C230.467 3.84 231.517 4.89 231.517 6.5C231.517 8.11 230.467 9.16 229.277 9.16ZM234.456 10H235.716V8.74H234.456V10Z" fill="white"/>
</svg>
