<svg width="166" height="106" viewBox="0 0 166 106" fill="none" xmlns="http://www.w3.org/2000/svg">
<g filter="url(#filter0_d)">
<path d="M158 32.649L57.2934 92.217L8 63.568L108.707 4L158 32.649Z" fill="#DBDBDB"/>
<path d="M108.706 6.957V8.5834L14.7353 63.9419L13.3506 63.1244L108.706 6.957Z" fill="#AEB1B5"/>
<path d="M108.706 8.58351V22.134L26.488 70.7521L14.7352 63.942L108.706 8.58351Z" fill="#3DB8E8"/>
<path d="M150.53 33.3447L108.707 8.5834V6.957L151.906 32.5359L150.53 33.3447Z" fill="#BCBFC4"/>
<path d="M139.05 40.094L108.707 22.134V8.58351L150.53 33.3448L139.05 40.094Z" fill="#69CAFB"/>
<path d="M108.707 22.1338L139.05 40.0938L56.9943 88.451L26.4883 70.7519L108.707 22.1338Z" fill="#2C98DB"/>
<path d="M8 63.5681V65.3597L57.2934 94V92.1997L8 63.5681Z" fill="#BCBFC4"/>
<path d="M158 32.649V34.4406L57.2931 93.9999V92.1996L158 32.649Z" fill="#AEB1B5"/>
<path d="M74.149 53.9313C73.6736 54.2926 73.0801 54.4544 72.4908 54.3835C71.2977 54.2119 70.0837 54.265 68.9094 54.5401C69.5649 54.1091 70.2874 53.7944 71.0463 53.6095C72.0911 53.4721 73.1529 53.5822 74.149 53.9313Z" fill="#AFD8F9"/>
<path d="M78.8841 54.8359C78.4787 54.6603 78.0426 54.5698 77.602 54.5698C77.1614 54.5698 76.7253 54.6603 76.3199 54.8359C75.8172 55.2085 75.2282 55.4422 74.6104 55.5143C75.2628 55.7083 75.9582 55.6932 76.6019 55.4708C77.3329 55.161 78.0999 54.9476 78.8841 54.8359Z" fill="#AFD8F9"/>
<path d="M95.0304 43.077C94.555 43.4383 93.9614 43.6002 93.3722 43.5293C92.1762 43.358 90.9594 43.411 89.7822 43.6858C90.4388 43.2591 91.1612 42.9475 91.9191 42.7639C92.966 42.6224 94.031 42.7296 95.0304 43.077Z" fill="#AFD8F9"/>
<path d="M112.912 29.9268C112.437 30.2881 111.843 30.45 111.254 30.3791C110.061 30.2074 108.847 30.2605 107.673 30.5356C108.325 30.1075 109.045 29.7958 109.801 29.6137C110.848 29.4722 111.913 29.5793 112.912 29.9268Z" fill="#AFD8F9"/>
<path d="M85.0217 49.8349C84.611 49.6506 84.1671 49.5555 83.7182 49.5555C83.2693 49.5555 82.8254 49.6506 82.4147 49.8349C81.9115 50.2065 81.3228 50.4401 80.7052 50.5133C81.3533 50.7215 82.0487 50.7215 82.6968 50.5133C83.4394 50.185 84.221 49.9569 85.0217 49.8349Z" fill="#AFD8F9"/>
<path d="M95.8085 40.0851C95.3342 39.9426 94.8296 39.9426 94.3554 40.0851C93.8769 40.2191 93.4085 40.3877 92.9536 40.5896C93.4229 40.688 93.9036 40.7173 94.381 40.6766C94.8851 40.5592 95.3672 40.3594 95.8085 40.0851Z" fill="#AFD8F9"/>
<path opacity="0.5" d="M64.5758 46.6778C64.0985 47.0351 63.5065 47.1965 62.9176 47.13C61.7251 46.9529 60.5106 47.0031 59.3362 47.2779C60.0888 46.736 60.9639 46.3968 61.8801 46.2919C62.7963 46.1869 63.7236 46.3197 64.5758 46.6778Z" fill="white"/>
<path d="M49.4555 47.4344C48.9801 47.7957 48.3866 47.9576 47.7973 47.8867C46.6042 47.715 45.3902 47.7681 44.2159 48.0432C44.8714 47.6122 45.5939 47.2976 46.3528 47.1126C47.3976 46.9752 48.4595 47.0854 49.4555 47.4344Z" fill="#AFD8F9"/>
<path d="M37.5487 58.1582C37.0714 58.5155 36.4794 58.677 35.8905 58.6105C34.698 58.4334 33.4835 58.4835 32.3091 58.7583C33.0617 58.2165 33.9368 57.8773 34.853 57.7723C35.7692 57.6674 36.6965 57.8002 37.5487 58.1582Z" fill="#AFD8F9"/>
<path d="M48.5065 56.9231C48.0958 56.7389 47.6519 56.6437 47.2031 56.6437C46.7542 56.6437 46.3103 56.7389 45.8996 56.9231C45.3948 57.2902 44.8065 57.5207 44.1901 57.5928C44.8374 57.8062 45.5343 57.8062 46.1816 57.5928C46.924 57.2657 47.7058 57.0405 48.5065 56.9231Z" fill="#AFD8F9"/>
<path d="M31.9415 63.8029C31.5301 63.6212 31.0864 63.5274 30.638 63.5274C30.1895 63.5274 29.7459 63.6212 29.3345 63.8029C28.8313 64.1745 28.2426 64.4081 27.625 64.4813C28.2775 64.6753 28.9729 64.6602 29.6166 64.4378C30.3612 64.1244 31.1427 63.9109 31.9415 63.8029Z" fill="#AFD8F9"/>
<path opacity="0.5" d="M105.287 22.8731C104.812 23.2344 104.218 23.3963 103.629 23.3254C102.433 23.1541 101.216 23.2071 100.039 23.482C100.696 23.0552 101.418 22.7436 102.176 22.56C103.223 22.4185 104.288 22.5257 105.287 22.8731Z" fill="white"/>
<path d="M90.1671 23.5951C89.6918 23.9571 89.0991 24.1219 88.5089 24.0561C87.3164 23.879 86.102 23.9291 84.9275 24.2039C85.5803 23.7759 86.3001 23.4641 87.0558 23.282C88.1028 23.1405 89.1677 23.2477 90.1671 23.5951Z" fill="#AFD8F9"/>
<path d="M78.2521 34.3188C77.7805 34.6812 77.1891 34.8433 76.6024 34.7711C75.4064 34.5998 74.1897 34.6528 73.0125 34.9276C73.6691 34.5009 74.3914 34.1893 75.1493 34.0057C76.1934 33.8624 77.256 33.9696 78.2521 34.3188Z" fill="#AFD8F9"/>
<path d="M89.2181 33.0839C88.8059 32.8995 88.3606 32.8042 87.9103 32.8042C87.4601 32.8042 87.0147 32.8995 86.6026 33.0839C86.1001 33.4569 85.511 33.6907 84.8931 33.7623C85.5455 33.9564 86.2409 33.9412 86.8846 33.7188C87.632 33.4047 88.4164 33.1912 89.2181 33.0839Z" fill="#AFD8F9"/>
<path d="M68.542 42.3203C68.0639 42.185 67.5585 42.185 67.0804 42.3203C66.6054 42.4602 66.14 42.6316 65.6871 42.8335C66.1563 42.9324 66.6371 42.9617 67.1146 42.9205C67.6196 42.8017 68.1019 42.5989 68.542 42.3203Z" fill="#AFD8F9"/>
<path d="M110.733 15.9153C110.255 15.7749 109.748 15.7749 109.271 15.9153C108.796 16.0501 108.33 16.2186 107.878 16.4197C108.347 16.5186 108.828 16.5479 109.305 16.5067C109.81 16.3935 110.293 16.1935 110.733 15.9153Z" fill="#AFD8F9"/>
<path opacity="0.5" d="M93.7999 64.4203C93.3245 64.7816 92.731 64.9435 92.1417 64.8725C90.9457 64.7012 89.729 64.7543 88.5518 65.0291C89.3042 64.4836 90.1806 64.1415 91.0986 64.035C92.0165 63.9285 92.9461 64.0611 93.7999 64.4203Z" fill="white"/>
<path d="M78.6792 65.1771C78.2038 65.5384 77.6102 65.7003 77.021 65.6293C75.8278 65.4577 74.6139 65.5108 73.4396 65.7859C74.1901 65.2396 75.065 64.897 75.9818 64.7904C76.8986 64.6839 77.827 64.817 78.6792 65.1771Z" fill="#AFD8F9"/>
<path d="M77.7303 74.6657C77.3181 74.4812 76.8728 74.3859 76.4225 74.3859C75.9723 74.3859 75.5269 74.4812 75.1148 74.6657C74.6109 75.0345 74.0222 75.2651 73.4053 75.3354C74.0526 75.5487 74.7495 75.5487 75.3968 75.3354C76.1435 75.012 76.9277 74.787 77.7303 74.6657Z" fill="#AFD8F9"/>
<path d="M59.4217 81.9367C59.0169 81.7587 58.5806 81.6668 58.1396 81.6668C57.6986 81.6668 57.2622 81.7587 56.8574 81.9367C56.3548 82.3094 55.7658 82.5431 55.1479 82.6151C55.8009 82.8098 56.4973 82.7916 57.1395 82.5629C57.8718 82.2587 58.6384 82.0484 59.4217 81.9367Z" fill="#AFD8F9"/>
<path d="M67.0034 72.5873C66.526 72.4469 66.0192 72.4469 65.5418 72.5873C65.0678 72.7267 64.6026 72.8952 64.1486 73.0917C64.6171 73.1954 65.0986 73.2247 65.576 73.1787C66.0814 73.0654 66.5641 72.8654 67.0034 72.5873Z" fill="#AFD8F9"/>
<path opacity="0.5" d="M134.503 40.5809C134.027 40.9429 133.435 41.1076 132.845 41.0418C131.652 40.8648 130.438 40.9149 129.263 41.1897C129.92 40.763 130.642 40.4513 131.4 40.2678C132.444 40.1244 133.507 40.2317 134.503 40.5809Z" fill="white"/>
<path opacity="0.5" d="M137.059 32.3185C136.584 32.6798 135.99 32.8417 135.401 32.7708C134.208 32.5992 132.994 32.6522 131.819 32.9273C132.472 32.4993 133.192 32.1875 133.948 32.0054C134.995 31.8639 136.06 31.9711 137.059 32.3185Z" fill="white"/>
<path d="M107.476 52.0616C107 52.4229 106.407 52.5847 105.817 52.5138C104.624 52.3422 103.41 52.3953 102.236 52.6704C102.892 52.2414 103.614 51.9296 104.373 51.7484C105.417 51.6051 106.48 51.7123 107.476 52.0616Z" fill="#AFD8F9"/>
<path d="M118.442 50.8264C118.029 50.6445 117.584 50.5507 117.134 50.5507C116.685 50.5507 116.24 50.6445 115.827 50.8264C115.324 51.1991 114.735 51.4328 114.117 51.5048C114.765 51.713 115.461 51.713 116.109 51.5048C116.854 51.1761 117.639 50.9481 118.442 50.8264Z" fill="#AFD8F9"/>
<path d="M100.133 58.1061C99.7287 57.928 99.2924 57.8362 98.8514 57.8362C98.4104 57.8362 97.974 57.928 97.5692 58.1061C97.0644 58.4732 96.4762 58.7037 95.8597 58.7758C96.5115 58.9751 97.2085 58.9599 97.8513 58.7323C98.5822 58.4238 99.3493 58.2133 100.133 58.1061Z" fill="#AFD8F9"/>
<path d="M107.706 48.7477C107.231 48.6122 106.729 48.6122 106.253 48.7477C105.775 48.8866 105.307 49.058 104.852 49.2608C105.321 49.3592 105.802 49.3885 106.279 49.3478C106.784 49.229 107.266 49.0263 107.706 48.7477Z" fill="#AFD8F9"/>
<path d="M139.948 33.6666C139.471 33.5257 138.964 33.5257 138.487 33.6666C138.013 33.8061 137.547 33.9745 137.093 34.171C137.562 34.2742 138.043 34.3035 138.521 34.258C139.026 34.1448 139.509 33.9448 139.948 33.6666Z" fill="#AFD8F9"/>
<path d="M24.3084 53.8791C24.1984 53.8008 24.0699 53.7539 23.9362 53.7432C23.8024 53.7325 23.6682 53.7584 23.5476 53.8182C23.4054 53.9254 23.2929 54.0683 23.221 54.2329C23.1491 54.3975 23.1203 54.5782 23.1374 54.7575V56.871H23.4109V54.8445C23.3946 54.7102 23.4128 54.5739 23.4638 54.4489C23.5147 54.3239 23.5966 54.2145 23.7015 54.1313C23.7874 54.0891 23.883 54.0716 23.9779 54.0808C24.0728 54.09 24.1635 54.1255 24.24 54.1835C24.5134 54.3819 24.7376 54.6425 24.8948 54.9444C25.0521 55.2463 25.1381 55.5813 25.146 55.923V62.2198H25.411V56.0012C25.4021 55.5846 25.2978 55.1759 25.1064 54.8075C24.9149 54.4391 24.6417 54.1212 24.3084 53.8791Z" fill="#BCBFC4"/>
<path d="M23.4111 56.8711C23.4111 56.8711 23.3513 56.9406 23.2743 56.9406C23.1974 56.9406 23.1376 56.9406 23.1376 56.8711C23.1376 56.8015 23.1974 56.7928 23.2743 56.7928C23.3513 56.7928 23.4111 56.7928 23.4111 56.8711Z" fill="#BCBFC4"/>
<path d="M25.4113 62.2372C25.4113 62.2807 25.3515 62.3068 25.2746 62.3068C25.1977 62.3068 25.1464 62.3068 25.1464 62.2372C25.1464 62.1676 25.2062 62.1676 25.2746 62.1676C25.343 62.1676 25.4113 62.1937 25.4113 62.2372Z" fill="#2C98DB"/>
<path d="M26.4285 52.6441C26.3172 52.5647 26.1867 52.5178 26.0511 52.5086C25.9154 52.4994 25.7799 52.5282 25.6593 52.5919C25.518 52.6976 25.4065 52.8392 25.336 53.0025C25.2655 53.1659 25.2384 53.3452 25.2575 53.5225V55.636H25.5311V53.6095C25.5154 53.4761 25.5331 53.3408 25.5824 53.2162C25.6317 53.0915 25.711 52.9815 25.8131 52.8963C25.9005 52.8543 25.9974 52.8369 26.0937 52.8461C26.1899 52.8553 26.282 52.8906 26.3602 52.9485C26.6246 53.152 26.8393 53.4148 26.9875 53.7165C27.1358 54.0182 27.2136 54.3507 27.2149 54.688V60.9935H27.4884V54.7749C27.4858 54.3605 27.3887 53.9524 27.2048 53.5827C27.0209 53.2129 26.7551 52.8916 26.4285 52.6441Z" fill="#BCBFC4"/>
<path d="M27.5312 61.0022C27.5312 61.0022 27.4714 61.0718 27.3945 61.0718C27.3175 61.0718 27.2577 61.0718 27.2577 61.0022C27.2577 60.9327 27.3175 60.924 27.3945 60.924C27.4714 60.924 27.5312 60.9588 27.5312 61.0022Z" fill="#2C98DB"/>
<path d="M25.531 55.636C25.531 55.6795 25.4711 55.7143 25.3942 55.7143C25.3173 55.7143 25.2574 55.7143 25.2574 55.636C25.2574 55.5577 25.3173 55.5664 25.3942 55.5664C25.4711 55.5664 25.531 55.6012 25.531 55.636Z" fill="#BCBFC4"/>
<path d="M27.437 55.9231C27.4383 55.8904 27.43 55.8581 27.4133 55.8303C27.3966 55.8024 27.3721 55.7802 27.343 55.7665H27.3002L25.4113 56.8711V57.1668L27.4114 55.9926C27.4114 55.9926 27.437 55.9752 27.437 55.9231Z" fill="#989B9E"/>
<path d="M27.437 57.4452C27.4383 57.4125 27.43 57.3802 27.4133 57.3524C27.3966 57.3245 27.3721 57.3023 27.343 57.2886H27.3002L25.4113 58.3932V58.6976L27.4114 57.5234C27.4206 57.5128 27.4277 57.5004 27.4321 57.487C27.4365 57.4735 27.4382 57.4593 27.437 57.4452Z" fill="#989B9E"/>
<path d="M27.437 58.8018C27.4383 58.7691 27.43 58.7369 27.4133 58.709C27.3966 58.6811 27.3721 58.6589 27.343 58.6452H27.3002L25.4113 59.7498V60.0542L27.4114 58.88C27.4206 58.8695 27.4277 58.8571 27.4321 58.8436C27.4365 58.8301 27.4382 58.8159 27.437 58.8018Z" fill="#2C98DB"/>
<path d="M27.437 60.2718C27.4383 60.2391 27.43 60.2069 27.4133 60.179C27.3966 60.1511 27.3721 60.1289 27.343 60.1152H27.3002L25.4113 61.2198V61.5155L27.4114 60.3414C27.4114 60.3414 27.437 60.3414 27.437 60.2718Z" fill="#2C98DB"/>
<path d="M25.2746 59.2715C25.2062 59.2715 25.1464 59.2715 25.1464 59.1932V62.2373H25.4113V59.1932C25.4113 59.2367 25.3259 59.2715 25.2746 59.2715Z" fill="#2C98DB"/>
<path d="M27.3945 58.0191C27.3175 58.0191 27.2577 58.0191 27.2577 57.9496V61.0023H27.5312V57.9496C27.5312 57.9496 27.4714 58.0191 27.3945 58.0191Z" fill="#2C98DB"/>
<path d="M97.3812 10.697C97.2716 10.6174 97.1424 10.5704 97.0081 10.5612C96.8737 10.552 96.7395 10.5809 96.6204 10.6448C96.4776 10.7495 96.3645 10.8906 96.2925 11.054C96.2204 11.2174 96.192 11.3973 96.2102 11.5754V13.6889H96.4837V11.6624C96.4674 11.5281 96.4856 11.3918 96.5366 11.2668C96.5875 11.1418 96.6694 11.0324 96.7743 10.9492C96.8602 10.9069 96.9558 10.8895 97.0507 10.8987C97.1457 10.9079 97.2363 10.9434 97.3128 11.0014C97.5862 11.1998 97.8104 11.4603 97.9677 11.7623C98.1249 12.0642 98.2109 12.3992 98.2188 12.7408V19.0377H98.4838V12.8191C98.4736 12.4028 98.3687 11.9945 98.1774 11.6263C97.9861 11.2581 97.7135 10.94 97.3812 10.697Z" fill="#BCBFC4"/>
<path d="M96.4837 13.6889C96.4837 13.6889 96.4239 13.7584 96.347 13.7584C96.27 13.7584 96.2102 13.7584 96.2102 13.6889C96.2102 13.6193 96.2786 13.6106 96.347 13.6106C96.4154 13.6106 96.4837 13.6454 96.4837 13.6889Z" fill="#BCBFC4"/>
<path d="M98.4835 19.0551C98.4835 19.0551 98.4236 19.1334 98.3467 19.1334C98.2698 19.1334 98.2185 19.1334 98.2185 19.0551C98.2185 18.9769 98.2783 18.9855 98.3467 18.9855C98.4151 18.9855 98.4835 19.0203 98.4835 19.0551Z" fill="#2C98DB"/>
<path d="M99.5008 9.46186C99.3888 9.38422 99.2584 9.33843 99.1231 9.32926C98.9879 9.32009 98.8527 9.34785 98.7315 9.40968C98.5903 9.51535 98.4788 9.65695 98.4083 9.82029C98.3378 9.98363 98.3107 10.163 98.3298 10.3403V12.4364H98.6033V10.4012C98.5879 10.2669 98.6065 10.1309 98.6574 10.0061C98.7082 9.88124 98.7897 9.77173 98.8939 9.68799C98.9798 9.64574 99.0754 9.62827 99.1704 9.63747C99.2653 9.64667 99.3559 9.6822 99.4324 9.74018C99.7038 9.94002 99.926 10.201 100.082 10.5028C100.237 10.8046 100.322 11.1389 100.33 11.4796V17.7765H100.603V11.5666C100.591 11.1532 100.484 10.7484 100.293 10.3834C100.102 10.0185 99.8309 9.70314 99.5008 9.46186Z" fill="#BCBFC4"/>
<path d="M100.603 17.8201C100.603 17.8201 100.544 17.8897 100.467 17.8897C100.39 17.8897 100.33 17.8897 100.33 17.8201C100.33 17.7505 100.39 17.7418 100.467 17.7418C100.544 17.7418 100.603 17.7766 100.603 17.8201Z" fill="#2C98DB"/>
<path d="M98.6031 12.4363C98.6031 12.4363 98.5433 12.5059 98.4664 12.5059C98.3894 12.5059 98.3296 12.5059 98.3296 12.4363C98.3296 12.3667 98.3894 12.358 98.4664 12.358C98.5433 12.358 98.6031 12.4363 98.6031 12.4363Z" fill="#BCBFC4"/>
<path d="M100.543 12.7581C100.545 12.7255 100.537 12.6932 100.52 12.6653C100.503 12.6375 100.479 12.6153 100.449 12.6016H100.407L98.5177 13.7061V14.0018L100.518 12.8277C100.518 12.8277 100.543 12.7929 100.543 12.7581Z" fill="#989B9E"/>
<path d="M100.543 14.2628C100.542 14.2307 100.533 14.1996 100.516 14.1723C100.5 14.1449 100.477 14.1222 100.449 14.1062C100.449 14.1062 100.449 14.1062 100.407 14.1062L98.5177 15.2108V15.5152L100.518 14.341C100.527 14.3304 100.534 14.318 100.539 14.3046C100.543 14.2911 100.545 14.2769 100.543 14.2628Z" fill="#989B9E"/>
<path d="M100.543 15.6196C100.545 15.587 100.536 15.5547 100.52 15.5268C100.503 15.4989 100.479 15.4768 100.449 15.463C100.449 15.463 100.449 15.463 100.407 15.463L98.5177 16.5676V16.872L100.518 15.6979C100.527 15.6873 100.534 15.6749 100.539 15.6614C100.543 15.6479 100.545 15.6337 100.543 15.6196Z" fill="#2C98DB"/>
<path d="M100.543 17.1242C100.545 17.0916 100.536 17.0593 100.52 17.0314C100.503 17.0036 100.479 16.9814 100.449 16.9677H100.407L98.5177 18.0722V18.3766L100.518 17.2025C100.527 17.1919 100.534 17.1795 100.539 17.166C100.543 17.1526 100.545 17.1383 100.543 17.1242Z" fill="#2C98DB"/>
<path d="M98.3467 16.0894C98.2783 16.0894 98.2185 16.0894 98.2185 16.0111V19.0551H98.4835V16.0111C98.4835 16.0111 98.4236 16.0894 98.3467 16.0894Z" fill="#2C98DB"/>
<path d="M100.467 14.8368C100.39 14.8368 100.33 14.8368 100.33 14.7672V17.8199H100.603V14.7672C100.603 14.7672 100.544 14.8368 100.467 14.8368Z" fill="#2C98DB"/>
<path d="M34.4716 68.8037L20.9067 60.8369L20.6246 61.4197L33.8733 69.1777L34.4716 68.8037Z" fill="white"/>
<path d="M30.1295 66.4121C30.128 66.491 30.1058 66.5681 30.0652 66.6354C30.0247 66.7026 29.9672 66.7577 29.8987 66.7948C29.7791 66.847 29.6851 66.7513 29.6851 66.5948C29.6884 66.5151 29.7113 66.4376 29.7516 66.3693C29.7919 66.3009 29.8484 66.2439 29.9158 66.2034C30.0355 66.1512 30.1295 66.2469 30.1295 66.4121Z" fill="#DBDBDB"/>
<path d="M31.6336 67.2296C31.5661 67.2693 31.51 67.3264 31.471 67.3951C31.432 67.4637 31.4114 67.5417 31.4114 67.621C31.4066 67.6562 31.4103 67.692 31.4222 67.7253C31.4341 67.7587 31.4539 67.7886 31.4798 67.8124L29.7703 66.8122L30.0523 66.2295L31.7618 67.2383C31.7423 67.2276 31.7208 67.2212 31.6987 67.2197C31.6765 67.2182 31.6543 67.2216 31.6336 67.2296Z" fill="#DBDBDB"/>
<path d="M26.6679 64.3856C26.6672 64.4647 26.6454 64.5421 26.6047 64.6096C26.5641 64.677 26.5061 64.7319 26.4371 64.7683C26.3174 64.8204 26.2234 64.7683 26.2234 64.5595C26.2249 64.4806 26.2471 64.4035 26.2877 64.3363C26.3282 64.269 26.3857 64.214 26.4542 64.1769C26.5738 64.1247 26.6764 64.2203 26.6679 64.3856Z" fill="#DBDBDB"/>
<path d="M28.1805 65.1857C28.1108 65.2235 28.0525 65.2799 28.0118 65.3488C27.9712 65.4178 27.9497 65.4967 27.9497 65.577C27.9469 65.6121 27.9515 65.6473 27.9633 65.6803C27.9751 65.7134 27.9938 65.7434 28.0181 65.7684L26.3086 64.7682L26.5821 64.1855L28.2916 65.1857C28.2741 65.1777 28.2552 65.1737 28.2361 65.1737C28.2169 65.1737 28.198 65.1777 28.1805 65.1857Z" fill="#DBDBDB"/>
<path d="M23.2569 62.3678C23.2535 62.4474 23.2306 62.525 23.1903 62.5933C23.15 62.6617 23.0935 62.7187 23.0261 62.7592C22.9064 62.8114 22.8038 62.7157 22.8124 62.5504C22.811 62.4709 22.832 62.3926 22.8729 62.3248C22.9138 62.2571 22.9729 62.2025 23.0432 62.1678C23.1628 62.1156 23.2569 62.2113 23.2569 62.3678Z" fill="#DBDBDB"/>
<path d="M24.7612 63.1765C24.6937 63.2171 24.6373 63.2741 24.597 63.3424C24.5567 63.4108 24.5338 63.4883 24.5304 63.5679C24.5266 63.6038 24.5316 63.6401 24.5451 63.6735C24.5585 63.7069 24.5799 63.7364 24.6073 63.7593L22.8978 62.7591L23.1713 62.1764L24.8808 63.1765C24.8622 63.1673 24.8417 63.1625 24.821 63.1625C24.8003 63.1625 24.7798 63.1673 24.7612 63.1765Z" fill="#DBDBDB"/>
<path d="M19.7959 60.3412C19.7925 60.4208 19.7697 60.4984 19.7294 60.5667C19.6891 60.6351 19.6326 60.6921 19.5651 60.7326C19.4455 60.7848 19.3514 60.6891 19.3514 60.5238C19.3548 60.4442 19.3777 60.3667 19.418 60.2983C19.4583 60.23 19.5148 60.173 19.5822 60.1325C19.7019 60.089 19.7959 60.176 19.7959 60.3412Z" fill="#DBDBDB"/>
<path d="M21.3084 61.1415C21.2387 61.1793 21.1804 61.2357 21.1398 61.3047C21.0991 61.3736 21.0776 61.4525 21.0776 61.5329C21.0728 61.568 21.0765 61.6039 21.0885 61.6372C21.1004 61.6706 21.1201 61.7004 21.146 61.7242L19.4365 60.724L19.7186 60.1326L21.4281 61.1415C21.4099 61.1308 21.3893 61.1252 21.3683 61.1252C21.3472 61.1252 21.3266 61.1308 21.3084 61.1415Z" fill="#DBDBDB"/>
<path d="M117.639 19.6638L104.066 11.6883L103.783 12.271L116.998 20.0378C117.237 19.9073 117.451 19.7768 117.639 19.6638Z" fill="white"/>
<path d="M113.314 17.2633C113.313 17.3426 113.293 17.4206 113.254 17.4893C113.215 17.5579 113.159 17.615 113.091 17.6547C112.963 17.6547 112.869 17.6547 112.878 17.4459C112.878 17.3666 112.898 17.2887 112.937 17.22C112.976 17.1513 113.032 17.0942 113.1 17.0545C113.228 17.0024 113.365 17.098 113.314 17.2633Z" fill="#DBDBDB"/>
<path d="M114.827 18.0636C114.759 18.1041 114.703 18.1611 114.663 18.2295C114.622 18.2978 114.599 18.3753 114.596 18.455C114.593 18.49 114.598 18.5252 114.61 18.5582C114.621 18.5913 114.64 18.6213 114.664 18.6463L112.955 17.6461L113.228 17.0634L114.938 18.0723C114.921 18.063 114.902 18.0574 114.883 18.0559C114.864 18.0544 114.845 18.057 114.827 18.0636Z" fill="#DBDBDB"/>
<path d="M109.86 15.2369C109.859 15.3158 109.837 15.3929 109.796 15.4601C109.756 15.5274 109.698 15.5824 109.63 15.6196C109.51 15.6718 109.407 15.6196 109.416 15.4195C109.416 15.3391 109.437 15.2603 109.478 15.1913C109.519 15.1224 109.577 15.066 109.647 15.0282C109.766 14.976 109.86 15.0455 109.86 15.2369Z" fill="#DBDBDB"/>
<path d="M111.365 16.037C111.297 16.0776 111.241 16.1346 111.2 16.2029C111.16 16.2713 111.137 16.3488 111.134 16.4284C111.132 16.4641 111.138 16.4997 111.151 16.5328C111.165 16.5659 111.185 16.5956 111.211 16.6198L109.501 15.6196L109.783 15.0368L111.493 16.0457C111.473 16.035 111.452 16.0286 111.43 16.0271C111.408 16.0256 111.385 16.029 111.365 16.037Z" fill="#DBDBDB"/>
<path d="M106.441 13.2278C106.443 13.3073 106.422 13.3856 106.381 13.4534C106.34 13.5212 106.281 13.5757 106.211 13.6105C106.091 13.6627 105.997 13.6105 105.997 13.4105C106 13.3308 106.023 13.2533 106.063 13.1849C106.104 13.1166 106.16 13.0596 106.228 13.0191C106.347 12.9669 106.45 13.0626 106.441 13.2278Z" fill="#DBDBDB"/>
<path d="M107.954 14.0279C107.885 14.0658 107.826 14.1222 107.786 14.1911C107.745 14.26 107.724 14.3389 107.724 14.4193C107.721 14.4543 107.725 14.4896 107.737 14.5226C107.749 14.5556 107.768 14.5857 107.792 14.6106L106.083 13.6104L106.356 13.0277L108.066 14.0366C108.049 14.0273 108.03 14.0217 108.011 14.0202C107.992 14.0187 107.973 14.0214 107.954 14.0279Z" fill="#DBDBDB"/>
<path d="M102.98 11.2013C102.981 11.2797 102.961 11.3569 102.922 11.4244C102.882 11.4919 102.826 11.5471 102.758 11.5839C102.629 11.6361 102.535 11.5839 102.544 11.3752C102.543 11.2968 102.563 11.2196 102.602 11.152C102.641 11.0845 102.698 11.0293 102.766 10.9925C102.894 10.9403 102.988 11.036 102.98 11.2013Z" fill="#DBDBDB"/>
<path d="M104.493 12.0016C104.425 12.0421 104.369 12.0991 104.328 12.1674C104.288 12.2358 104.265 12.3133 104.262 12.3929C104.258 12.4288 104.263 12.4651 104.277 12.4985C104.29 12.5319 104.311 12.5614 104.339 12.5843L102.629 11.5841L102.903 11.0014L104.612 12.0016C104.594 11.9923 104.573 11.9875 104.552 11.9875C104.532 11.9875 104.511 11.9923 104.493 12.0016Z" fill="#DBDBDB"/>
<path d="M35.3177 61.7415V68.4211C35.4289 68.3515 35.5485 68.4733 35.6596 68.4211V62.4286L47.7714 69.543V75.8573L48.1134 75.6573V69.2734L35.3177 61.7415Z" fill="white"/>
<path d="M47.9768 75.3094L43.3099 77.9969L31.2921 70.9347L35.6428 68.369L35.3009 68.1689L30.6083 70.8999L43.3782 78.4057L47.9768 75.7182V75.3094Z" fill="white"/>
<path d="M47.6773 69.2648L44.9335 71.0043C44.2839 71.4044 43.9078 72.3698 43.6941 74.2484C43.5916 75.1181 43.3864 76.6575 43.1898 78.1187C43.3665 78.0903 43.5337 78.0187 43.677 77.91C43.8565 76.5271 44.0446 75.1094 44.1386 74.3006C44.395 72.1262 44.8224 71.6044 45.1643 71.3957C45.5062 71.1869 47.9593 69.5344 48.0192 69.5083L47.6773 69.2648Z" fill="white"/>
<path d="M35.318 61.7415C35.2581 61.7415 32.5657 63.6202 32.3007 63.7854C31.6511 64.1855 31.3434 65.2292 31.1297 67.1078C31.0271 67.9775 30.8049 69.4387 30.6083 70.8998L31.0613 71.1608C31.2664 69.6387 31.4716 68.0645 31.5741 67.16C31.8306 64.9856 32.1896 64.3942 32.5315 64.1768C32.8734 63.9594 35.6684 62.0459 35.7282 62.0112L35.318 61.7415Z" fill="white"/>
<path d="M43.4722 77.5795L31.0613 70.2737L31.1211 70.152L43.5406 77.4577L43.4722 77.5795Z" fill="white"/>
<path d="M43.4722 76.5096L31.0613 69.2038L31.1211 69.0907L43.5406 76.3878L43.4722 76.5096Z" fill="white"/>
<path d="M43.7285 75.5181L31.2235 68.1601L31.2919 68.0471L43.7883 75.3963L43.7285 75.5181Z" fill="white"/>
<path d="M31.2893 66.8995L31.2208 67.02L43.8898 74.4717L43.9582 74.3512L31.2893 66.8995Z" fill="white"/>
<path d="M31.5442 65.9066L31.4757 66.0271L44.1447 73.4788L44.2131 73.3583L31.5442 65.9066Z" fill="white"/>
<path d="M31.8614 64.8883L31.793 65.0088L44.462 72.4604L44.5304 72.3399L31.8614 64.8883Z" fill="white"/>
<path d="M32.3305 64.0009L32.2621 64.1214L44.9311 71.573L44.9995 71.4526L32.3305 64.0009Z" fill="white"/>
<path d="M45.7544 70.9782L33.087 63.5333L33.1554 63.4116L45.8228 70.8652L45.7544 70.9782Z" fill="white"/>
<path d="M46.5319 70.4214L33.8645 62.9678L33.9329 62.846L46.6003 70.2997L46.5319 70.4214Z" fill="white"/>
<path d="M47.3272 69.8824L34.6598 62.4374L34.7282 62.3157L47.3956 69.7693L47.3272 69.8824Z" fill="white"/>
<path d="M31.8644 71.4739C32.0952 69.7344 32.3431 67.8993 32.4542 67.0209C32.6764 65.3249 33.0525 64.977 33.3944 64.6726L33.4799 64.5943C33.8218 64.2725 36.3946 62.6113 36.4202 62.6026L36.3433 62.4809C36.2407 62.5504 33.7791 64.1681 33.3859 64.4986L33.3089 64.5682C32.967 64.8726 32.5482 65.2553 32.3174 67.0035C32.2063 67.8732 31.967 69.6996 31.7362 71.4043L31.8644 71.4739Z" fill="white"/>
<path d="M32.7106 71.961C32.9328 70.2215 33.1893 68.3603 33.3004 67.4732C33.5226 65.7772 33.8987 65.4293 34.2406 65.1249L34.3261 65.0466C34.668 64.7248 37.2408 63.0723 37.2664 63.0549L37.1895 62.9332C37.0869 63.0027 34.6252 64.6205 34.2321 64.951L34.1551 65.0205C33.8132 65.3249 33.3944 65.7076 33.1636 67.4558C33.0525 68.3255 32.8046 70.1867 32.5824 71.8914L32.7106 71.961Z" fill="white"/>
<path d="M33.5652 72.4481C33.796 70.7086 34.0439 68.8387 34.155 67.9516C34.3772 66.2121 34.7619 65.9077 35.1038 65.6033L35.1807 65.525C35.5226 65.2032 38.0954 63.5507 38.121 63.5333L38.0527 63.4116C37.9415 63.4811 35.4884 65.0988 35.0867 65.4293L35.0097 65.4989C34.6678 65.8033 34.249 66.186 34.0268 67.9342C33.9157 68.8039 33.6678 70.6651 33.437 72.3785L33.5652 72.4481Z" fill="white"/>
<path d="M34.4118 72.9175C34.6426 71.1781 34.8905 69.2994 35.0016 68.4123C35.2238 66.6729 35.6084 66.3597 35.9503 66.0553L36.0273 65.9858C36.3692 65.664 38.942 64.0028 38.9676 63.9854L38.8992 63.8723C38.7881 63.9332 36.335 65.5509 35.9332 65.8814L35.8563 65.951C35.5144 66.2554 35.0956 66.6381 34.8733 68.3949C34.7622 69.2647 34.5144 71.1346 34.2836 72.848L34.4118 72.9175Z" fill="white"/>
<path d="M39.7282 64.49C39.6256 64.5596 37.1639 66.1686 36.7622 66.4991L36.6853 66.5774C36.3519 66.8818 35.9246 67.2557 35.7023 69.0126C35.5912 69.8823 35.3604 71.6218 35.1382 73.2743L35.2664 73.3352C35.4886 71.6653 35.728 69.8563 35.8391 68.9865C36.0528 67.2471 36.4374 66.9426 36.7793 66.6382L36.8562 66.56C37.2067 66.2382 39.7709 64.577 39.8051 64.5596L39.7282 64.49Z" fill="white"/>
<path d="M40.5747 64.9423C40.4722 65.0118 37.9678 66.6296 37.6088 66.9601L37.5318 67.0296C37.1985 67.334 36.7711 67.7167 36.5489 69.4649C36.4378 70.3346 36.207 72.0741 35.9847 73.7353L36.1044 73.8309C36.3352 72.1524 36.5745 70.352 36.6856 69.4823C36.8993 67.7428 37.284 67.4384 37.6259 67.134L37.7028 67.0557C38.0532 66.7339 40.6175 65.0727 40.6517 65.064L40.5747 64.9423Z" fill="white"/>
<path d="M36.9501 74.4135C37.1809 72.674 37.4288 70.8389 37.5399 69.9605C37.7621 68.2645 38.1382 67.9166 38.4801 67.6122L38.5656 67.5339C38.9075 67.2121 41.4803 65.5509 41.5059 65.5422L41.429 65.4205C41.3264 65.49 38.822 67.1078 38.4716 67.4383L38.3946 67.5078C38.0527 67.8122 37.6339 68.1949 37.4031 69.9431C37.292 70.8128 37.0527 72.6392 36.8219 74.2917L36.9501 74.4135Z" fill="white"/>
<path d="M37.7883 74.9614C38.019 73.2219 38.2755 71.3085 38.3866 70.4127C38.6088 68.7167 38.9935 68.3688 39.3268 68.0644L39.4123 67.9861C39.7542 67.6643 42.327 66.0118 42.3526 65.9945L42.2842 65.8727C42.1731 65.9423 39.6687 67.56 39.3183 67.8905L39.2413 67.96C38.8994 68.2645 38.4806 68.6471 38.2498 70.3953C38.1387 71.265 37.8908 73.1611 37.66 74.8831L37.7883 74.9614Z" fill="white"/>
<path d="M38.617 75.4573C38.8478 73.7178 39.1042 71.8218 39.2153 70.9346C39.4375 69.1952 39.8222 68.8821 40.1555 68.5777L40.241 68.5081C40.5829 68.1863 43.1557 66.5251 43.1814 66.5077L43.113 66.3946C43.0019 66.4642 40.506 68.0732 40.147 68.4037L40.0701 68.4733C39.7282 68.7777 39.3093 69.1604 39.0871 70.9173C38.9674 71.787 38.7196 73.6656 38.4888 75.3877L38.617 75.4573Z" fill="white"/>
<path d="M39.4635 75.9269C39.6943 74.1875 39.9508 72.2741 40.0619 71.3782C40.2841 69.6388 40.6687 69.3257 41.0021 69.0213L41.0876 68.9517C41.4295 68.6299 44.0023 66.9687 44.0279 66.9513L43.9595 66.8382C43.8484 66.9078 41.3525 68.5168 40.9935 68.8473L40.9166 68.9169C40.5747 69.23 40.1559 69.604 39.9336 71.3608C39.814 72.2306 39.5661 74.1353 39.3353 75.8574L39.4635 75.9269Z" fill="white"/>
<path d="M40.3181 76.4052C40.5575 74.6658 40.8054 72.7611 40.925 71.8652C41.1387 70.1258 41.5234 69.8126 41.8653 69.5082L41.9422 69.4387C42.2926 69.1169 44.6774 67.5774 44.703 67.56L44.6346 67.4383C44.5321 67.5079 42.2071 69.0038 41.8567 69.3343L41.7712 69.4126C41.4379 69.717 41.0105 70.091 40.7883 71.8478C40.6771 72.7176 40.4207 74.6136 40.1899 76.3443L40.3181 76.4052Z" fill="white"/>
<path d="M45.4722 67.8993C45.3696 67.9689 43.0532 69.4648 42.7028 69.7866L42.6173 69.8649C42.2839 70.1693 41.8566 70.5433 41.6343 72.3001C41.5232 73.1699 41.2753 75.0485 41.0446 76.7706L41.1728 76.8401C41.4035 75.1007 41.6514 73.2134 41.7711 72.3175C41.9848 70.5781 42.3694 70.2736 42.7113 69.9692L42.7882 69.891C43.1387 69.5692 45.5149 68.0297 45.5405 68.021L45.4722 67.8993Z" fill="white"/>
<path d="M46.2672 68.4212C46.1732 68.4821 43.8824 69.9607 43.532 70.2912L43.4465 70.3607C43.1132 70.6651 42.6858 71.0478 42.4636 72.796C42.3524 73.6657 42.1046 75.553 41.8738 77.2751L41.9934 77.3795L42.6003 72.8134C42.814 71.1174 43.1986 70.7695 43.5405 70.4651L43.6175 70.3868C43.9679 70.065 46.3185 68.5517 46.3441 68.5343L46.2672 68.4212Z" fill="white"/>
<path d="M47.1731 68.8645C47.0791 68.9341 44.7456 70.4387 44.3866 70.7605L44.3097 70.8388C43.9678 71.1432 43.549 71.5259 43.3267 73.2741C43.2071 74.1438 42.9592 76.0659 42.7284 77.7967L42.8481 77.9011C43.0788 76.1616 43.3438 74.196 43.4549 73.2915C43.6772 71.5955 44.0618 71.2476 44.3952 70.9432L44.4806 70.8649C44.8225 70.5431 47.2244 68.995 47.25 68.9863L47.1731 68.8645Z" fill="white"/>
<path d="M47.4292 75.6224V69.743H47.2925V75.7616C47.3337 75.7109 47.3795 75.6643 47.4292 75.6224Z" fill="white"/>
<path d="M46.6348 76.2313V70.2736H46.498V76.3096L46.6348 76.2313Z" fill="white"/>
<path d="M45.8399 76.6662V70.7085H45.7031V76.7357L45.8399 76.6662Z" fill="white"/>
<path d="M45.0362 77.1359V71.4217H44.8994V77.2229L45.0362 77.1359Z" fill="white"/>
<path d="M44.2415 77.6663V72.7958H44.1304V77.7533L44.2415 77.6663Z" fill="white"/>
<path d="M43.5403 77.9011L43.4719 77.7793L47.9081 75.1962L47.9765 75.3093L43.5403 77.9011Z" fill="white"/>
<path d="M43.6432 77.0314L43.5748 76.9097L47.9084 74.3788L47.9768 74.5005L43.6432 77.0314Z" fill="white"/>
<path d="M43.8145 76.04L43.7461 75.9182L47.9087 73.4829L47.9771 73.6047L43.8145 76.04Z" fill="white"/>
<path d="M43.9508 75.1703L43.891 75.0572L47.9083 72.7089L47.9767 72.8307L43.9508 75.1703Z" fill="white"/>
<path d="M44.0446 74.231L43.9762 74.1092L47.908 71.8131L47.9764 71.9349L44.0446 74.231Z" fill="white"/>
<path d="M44.0446 73.3786L43.9762 73.2568L47.908 70.9608L47.9764 71.0825L44.0446 73.3786Z" fill="white"/>
<path d="M44.5148 72.2044L44.455 72.0827L47.9081 70.0649L47.9765 70.1867L44.5148 72.2044Z" fill="white"/>
<path d="M115.245 14.5498V21.1337C115.351 21.1779 115.464 21.2044 115.578 21.2119V15.2195L127.69 22.3339V28.7351C127.801 28.6569 127.921 28.3785 128.032 28.3003V22.0643L115.245 14.5498Z" fill="white"/>
<path d="M119.938 18.768L119.425 18.6723L115.245 21.1336L115.613 21.3598C115.767 21.2554 119.938 18.768 119.938 18.768Z" fill="white"/>
<path d="M132.169 25.7433C132.169 25.7433 127.99 28.2308 127.827 28.3091L127.733 28.7352L132.392 26.0565L132.169 25.7433Z" fill="white"/>
<path d="M132.383 26.039C132.049 24.1865 131.579 22.1513 131.528 21.6903C131.477 21.2294 131.263 20.4292 130.622 20.7597L127.818 22.2122V22.6731L130.614 21.2294C130.844 21.1076 131.075 21.1163 131.203 21.9686C131.272 22.4296 131.725 24.4474 132.058 26.2738L132.383 26.039Z" fill="white"/>
<path d="M119.767 18.6723C119.331 16.7415 118.912 14.6367 118.801 14.1497C118.69 13.6626 118.536 12.8886 117.903 13.2191C117.271 13.5496 115.339 14.5411 115.245 14.5845V15.0455L117.886 13.6887C118.117 13.567 118.348 13.5757 118.476 14.428C118.544 14.9063 118.997 17.0372 119.425 18.9158C119.545 18.8447 119.66 18.7632 119.767 18.6723Z" fill="white"/>
<path d="M119.667 18.3219L119.467 18.6763L131.961 25.9838L132.161 25.6294L119.667 18.3219Z" fill="white"/>
<path d="M119.491 18.2314L119.423 18.3519L127.763 23.2573L127.831 23.1368L119.491 18.2314Z" fill="white"/>
<path d="M128.759 21.9425L116.092 14.4889L116.16 14.3671L128.827 21.8207L128.759 21.9425Z" fill="white"/>
<path d="M116.99 13.9815L116.921 14.102L129.59 21.5536L129.659 21.4331L116.99 13.9815Z" fill="white"/>
<path d="M117.725 13.5817L117.657 13.7021L130.326 21.1538L130.394 21.0333L117.725 13.5817Z" fill="white"/>
<path d="M131.067 20.8381L118.228 13.2801L118.297 13.167L131.135 20.7163L131.067 20.8381Z" fill="white"/>
<path d="M128.862 27.7785V22.0034H128.75V27.8393C128.786 27.816 128.823 27.7957 128.862 27.7785Z" fill="white"/>
<path d="M129.606 27.3611V21.673H129.469V27.4307L129.606 27.3611Z" fill="white"/>
<path d="M130.323 26.9783V21.1337H130.187V27.0392L130.323 26.9783Z" fill="white"/>
<path d="M131.041 26.6043V20.9511H130.905V26.6826L131.041 26.6043Z" fill="white"/>
<path d="M116.186 20.6379V15.2717H116.049V20.7162L116.186 20.6379Z" fill="white"/>
<path d="M116.904 20.2641V15.7936H116.784V20.3423L116.904 20.2641Z" fill="white"/>
<path d="M117.639 19.8292V16.2198H117.502V19.9075L117.639 19.8292Z" fill="white"/>
<path d="M118.365 19.4551V16.585H118.237V19.5247L118.365 19.4551Z" fill="white"/>
<path d="M119.117 19.0551V16.6373H118.98V19.1247L119.117 19.0551Z" fill="white"/>
<path d="M131.768 26.1694V24.1429H131.631V26.2564L131.768 26.1694Z" fill="white"/>
<path d="M116.28 15.3325L116.22 15.2107C116.323 15.1585 118.647 13.9061 118.938 13.7844C119.054 13.7552 119.174 13.7525 119.291 13.7766C119.408 13.8006 119.518 13.8508 119.613 13.9235L119.536 14.0366C119.458 13.9791 119.369 13.9386 119.275 13.9177C119.181 13.8967 119.084 13.8958 118.989 13.9148C118.699 14.0279 116.305 15.3151 116.28 15.3325Z" fill="white"/>
<path d="M117.049 15.8196L116.989 15.6978C117.083 15.6456 119.408 14.3932 119.707 14.2802C119.822 14.2469 119.944 14.2422 120.061 14.2664C120.179 14.2906 120.289 14.3431 120.382 14.4193L120.305 14.5237C120.226 14.466 120.136 14.4254 120.04 14.4045C119.944 14.3835 119.846 14.3827 119.75 14.4019C119.468 14.515 117.074 15.8109 117.049 15.8196Z" fill="white"/>
<path d="M117.853 16.2544L117.793 16.1327C117.887 16.0805 120.212 14.8281 120.511 14.7063C120.627 14.6806 120.747 14.6796 120.863 14.7036C120.979 14.7275 121.089 14.7759 121.186 14.8455L121.101 14.9585C121.023 14.8996 120.934 14.8582 120.84 14.8372C120.746 14.8162 120.648 14.8161 120.554 14.8368C120.272 14.9498 117.878 16.237 117.853 16.2544Z" fill="white"/>
<path d="M118.639 16.7154L118.571 16.5936C118.673 16.5415 120.998 15.289 121.289 15.176C121.404 15.1442 121.525 15.1402 121.643 15.1643C121.76 15.1885 121.87 15.2401 121.964 15.3151L121.887 15.4282C121.812 15.3653 121.723 15.3215 121.628 15.3003C121.533 15.2792 121.434 15.2813 121.34 15.3064C121.058 15.4195 118.665 16.7067 118.639 16.7154Z" fill="white"/>
<path d="M119.297 17.1242L119.237 17.0024C119.34 16.9502 121.665 15.6978 121.955 15.5761C122.071 15.5503 122.191 15.5494 122.307 15.5733C122.424 15.5973 122.534 15.6456 122.631 15.7152L122.554 15.8283C122.476 15.7708 122.387 15.7303 122.293 15.7094C122.198 15.6884 122.101 15.6875 122.007 15.7065C121.716 15.8196 119.348 17.1068 119.297 17.1242Z" fill="white"/>
<path d="M120.006 17.5329L119.938 17.4112C120.041 17.359 122.365 16.1066 122.656 15.9935C122.772 15.9617 122.893 15.9577 123.01 15.9819C123.127 16.006 123.237 16.0576 123.331 16.1327L123.254 16.2457C123.179 16.1828 123.09 16.139 122.995 16.1179C122.9 16.0967 122.802 16.0988 122.707 16.124C122.417 16.237 120.032 17.5242 120.006 17.5329Z" fill="white"/>
<path d="M120.724 17.9504L120.656 17.8286C120.758 17.7764 123.083 16.524 123.374 16.4022C123.49 16.3765 123.61 16.3756 123.726 16.3995C123.842 16.4235 123.952 16.4718 124.049 16.5414L123.972 16.6545C123.894 16.5965 123.806 16.5558 123.711 16.5348C123.617 16.5138 123.52 16.5131 123.425 16.5327C123.135 16.6458 120.741 17.933 120.724 17.9504Z" fill="white"/>
<path d="M121.511 18.4113L121.442 18.2896C121.545 18.2374 123.87 16.985 124.16 16.8719C124.276 16.8401 124.397 16.8361 124.514 16.8603C124.631 16.8844 124.741 16.9361 124.835 17.0111L124.759 17.1241C124.682 17.0631 124.594 17.0204 124.499 16.9993C124.404 16.9782 124.306 16.9792 124.212 17.0024C123.921 17.1154 121.528 18.4026 121.511 18.4113Z" fill="white"/>
<path d="M122.22 18.8375L122.16 18.7157C122.254 18.6549 124.579 17.4111 124.878 17.2894C124.994 17.2636 125.114 17.2627 125.23 17.2867C125.347 17.3106 125.457 17.3589 125.554 17.4285L125.468 17.5416C125.391 17.4827 125.302 17.4413 125.208 17.4203C125.113 17.3993 125.016 17.3991 124.921 17.4198C124.639 17.5329 122.246 18.8201 122.22 18.8375Z" fill="white"/>
<path d="M122.921 19.2465L122.861 19.1247C122.964 19.0725 125.289 17.8201 125.579 17.7071C125.695 17.6752 125.816 17.6713 125.933 17.6954C126.05 17.7196 126.16 17.7712 126.254 17.8462L126.178 17.9506C126.1 17.8931 126.01 17.8533 125.916 17.8338C125.822 17.8143 125.724 17.8156 125.63 17.8375C125.331 17.9506 122.947 19.2378 122.921 19.2465Z" fill="white"/>
<path d="M123.622 19.6639L123.562 19.5421C123.656 19.4813 125.981 18.2375 126.28 18.1158C126.396 18.09 126.516 18.0891 126.632 18.1131C126.749 18.137 126.859 18.1853 126.956 18.2549L126.87 18.368C126.793 18.3091 126.704 18.2677 126.61 18.2467C126.515 18.2257 126.418 18.2255 126.323 18.2462C126.058 18.3593 123.665 19.6465 123.622 19.6639Z" fill="white"/>
<path d="M124.425 20.1247L124.366 20.003C124.46 19.9508 126.785 18.6984 127.084 18.5853C127.199 18.5542 127.32 18.5505 127.437 18.5746C127.554 18.5988 127.664 18.65 127.759 18.7244L127.673 18.8288C127.596 18.7698 127.507 18.729 127.412 18.7095C127.318 18.6899 127.22 18.692 127.126 18.7158C126.844 18.8288 124.477 20.116 124.425 20.1247Z" fill="white"/>
<path d="M125.058 20.4988L124.998 20.3771C125.092 20.3162 127.417 19.0638 127.707 18.9507C127.825 18.9237 127.946 18.9221 128.064 18.9461C128.182 18.9701 128.293 19.0191 128.391 19.0899L128.306 19.2029C128.228 19.144 128.14 19.1026 128.045 19.0816C127.951 19.0606 127.853 19.0605 127.759 19.0812C127.477 19.1942 125.083 20.4814 125.058 20.4988Z" fill="white"/>
<path d="M125.759 20.9076L125.699 20.7858C125.793 20.7337 128.118 19.4812 128.417 19.3682C128.533 19.337 128.654 19.3334 128.771 19.3575C128.888 19.3817 128.998 19.4329 129.092 19.5073L129.007 19.6117C128.93 19.5527 128.841 19.5119 128.746 19.4923C128.651 19.4728 128.554 19.4749 128.46 19.4986C128.178 19.6117 125.784 20.8989 125.759 20.9076Z" fill="white"/>
<path d="M126.477 21.325L126.417 21.2033C126.511 21.1424 128.836 19.89 129.127 19.7769C129.244 19.7499 129.365 19.7483 129.483 19.7723C129.601 19.7963 129.713 19.8453 129.811 19.9161L129.725 20.0291C129.648 19.9702 129.559 19.9288 129.465 19.9078C129.37 19.8868 129.273 19.8866 129.178 19.9074C128.896 20.0204 126.503 21.3076 126.477 21.325Z" fill="white"/>
<path d="M127.263 21.7861L127.203 21.6643C127.297 21.6121 129.622 20.3597 129.913 20.2467C130.03 20.2141 130.152 20.2097 130.271 20.2339C130.39 20.258 130.501 20.3101 130.597 20.3858L130.511 20.4902C130.434 20.4311 130.345 20.3904 130.25 20.3708C130.156 20.3513 130.058 20.3534 129.964 20.3771C129.682 20.4815 127.289 21.7774 127.263 21.7861Z" fill="white"/>
<path d="M127.938 27.5872L127.87 27.4655L131.887 25.152L131.956 25.2737L127.938 27.5872Z" fill="white"/>
<path d="M127.99 26.5783L127.921 26.4565L131.802 24.23L131.87 24.3431L127.99 26.5783Z" fill="white"/>
<path d="M131.673 23.3086L127.93 25.4615L127.997 25.5827L131.74 23.4298L131.673 23.3086Z" fill="white"/>
<path d="M127.861 24.6561L127.793 24.5344L131.383 22.4644L131.451 22.5862L127.861 24.6561Z" fill="white"/>
<path d="M127.938 23.6211L127.87 23.4994L131.229 21.5686L131.298 21.6816L127.938 23.6211Z" fill="white"/>
<path d="M119.406 17.8238L115.388 20.1351L115.455 20.2562L119.473 17.945L119.406 17.8238Z" fill="white"/>
<path d="M119.135 17.0036L115.452 19.1222L115.519 19.2434L119.203 17.1247L119.135 17.0036Z" fill="white"/>
<path d="M115.519 18.2462L115.451 18.1244L118.228 16.5241L118.297 16.6458L115.519 18.2462Z" fill="white"/>
<path d="M117.321 16.0399L115.319 17.1913L115.387 17.3124L117.388 16.161L117.321 16.0399Z" fill="white"/>
<path d="M116.449 15.5575L115.392 16.1652L115.459 16.2864L116.516 15.6786L116.449 15.5575Z" fill="white"/>
<path d="M62.5249 85.2069L48.1224 76.7444L47.8403 77.3272L61.8753 85.5809C62.0805 85.4418 62.3198 85.3374 62.5249 85.2069Z" fill="white"/>
<path d="M62.1572 85.4157C62.2014 85.3171 62.2809 85.2393 62.3795 85.1982C62.3992 85.1876 62.4212 85.182 62.4436 85.182C62.4659 85.182 62.4879 85.1876 62.5077 85.1982L60.7982 84.1894L60.5247 84.7721L61.8837 85.5722C61.9722 85.5153 62.0635 85.463 62.1572 85.4157Z" fill="#DBDBDB"/>
<path d="M58.8493 83.1197C58.7819 83.1602 58.7254 83.2172 58.6851 83.2856C58.6448 83.3539 58.6219 83.4314 58.6185 83.5111C58.6147 83.547 58.6198 83.5832 58.6332 83.6166C58.6467 83.65 58.668 83.6795 58.6955 83.7024L56.986 82.7022L57.2595 82.1195L58.969 83.1197C58.9503 83.1105 58.9299 83.1057 58.9091 83.1057C58.8884 83.1057 58.868 83.1105 58.8493 83.1197Z" fill="#DBDBDB"/>
<path d="M55.3958 81.0932C55.3261 81.131 55.2678 81.1874 55.2272 81.2563C55.1865 81.3253 55.165 81.4042 55.165 81.4845C55.1602 81.5197 55.1639 81.5555 55.1759 81.5889C55.1878 81.6222 55.2075 81.6521 55.2334 81.6759L53.5239 80.6757L53.806 80.0843L55.5155 81.0932C55.4973 81.0825 55.4767 81.0769 55.4557 81.0769C55.4347 81.0769 55.414 81.0825 55.3958 81.0932Z" fill="#DBDBDB"/>
<path d="M51.9765 79.084C51.9097 79.1231 51.8536 79.1786 51.8133 79.2455C51.773 79.3123 51.7497 79.3884 51.7457 79.4667C51.7422 79.5031 51.7465 79.5398 51.7583 79.5744C51.7701 79.6089 51.7891 79.6404 51.8141 79.6667L50.1046 78.6665L50.3781 78.0751L52.0876 79.084C52.0707 79.0741 52.0516 79.0689 52.0321 79.0689C52.0126 79.0689 51.9934 79.0741 51.9765 79.084Z" fill="#DBDBDB"/>
<path d="M48.5149 77.0575C48.4468 77.0943 48.39 77.1495 48.3508 77.217C48.3116 77.2845 48.2915 77.3617 48.2926 77.4402C48.2878 77.4766 48.2915 77.5137 48.3034 77.5485C48.3153 77.5832 48.335 77.6146 48.361 77.6402L46.6515 76.64L46.9336 76.0486L48.6431 77.0575C48.6229 77.0481 48.6011 77.0432 48.579 77.0432C48.5568 77.0432 48.535 77.0481 48.5149 77.0575Z" fill="#DBDBDB"/>
<path d="M145.845 36.1366L131.443 27.6741L131.161 28.2568L145.196 36.5106C145.375 36.3714 145.623 36.2671 145.845 36.1366Z" fill="white"/>
<path d="M144.136 35.3277C144.137 35.4072 144.116 35.4855 144.075 35.5533C144.035 35.6211 143.976 35.6756 143.905 35.7104C143.786 35.7626 143.692 35.7104 143.692 35.5103C143.695 35.4307 143.718 35.3532 143.758 35.2848C143.798 35.2165 143.855 35.1595 143.922 35.119C144.076 35.0494 144.179 35.1625 144.136 35.3277Z" fill="#DBDBDB"/>
<path d="M145.452 36.3454C145.499 36.2457 145.582 36.168 145.683 36.128C145.703 36.1173 145.725 36.1117 145.747 36.1117C145.77 36.1117 145.792 36.1173 145.811 36.128L144.102 35.1191L143.828 35.7018L145.187 36.5019C145.264 36.4498 145.367 36.4063 145.452 36.3454Z" fill="#DBDBDB"/>
<path d="M140.64 33.2491C140.641 33.3275 140.621 33.4047 140.582 33.4722C140.543 33.5398 140.486 33.595 140.418 33.6318C140.29 33.6839 140.196 33.5883 140.204 33.423C140.203 33.3446 140.223 33.2674 140.262 33.1999C140.302 33.1323 140.358 33.0772 140.427 33.0403C140.555 32.9882 140.649 33.0838 140.64 33.2491Z" fill="#DBDBDB"/>
<path d="M142.153 34.0492C142.085 34.0897 142.029 34.1467 141.988 34.2151C141.948 34.2834 141.925 34.361 141.922 34.4406C141.919 34.4756 141.924 34.5109 141.935 34.5439C141.947 34.5769 141.966 34.607 141.99 34.6319L140.281 33.6317L140.554 33.049L142.264 34.0492C142.246 34.0413 142.227 34.0372 142.208 34.0372C142.189 34.0372 142.17 34.0413 142.153 34.0492Z" fill="#DBDBDB"/>
<path d="M137.187 31.2139C137.183 31.2935 137.16 31.371 137.12 31.4394C137.08 31.5077 137.023 31.5648 136.956 31.6053C136.836 31.6575 136.734 31.6053 136.742 31.3965C136.741 31.317 136.762 31.2387 136.803 31.1709C136.844 31.1032 136.903 31.0486 136.973 31.0139C137.093 30.9617 137.187 31.0573 137.187 31.2139Z" fill="#DBDBDB"/>
<path d="M138.691 32.0228C138.623 32.0625 138.567 32.1196 138.528 32.1883C138.489 32.257 138.469 32.3349 138.469 32.4142C138.464 32.4494 138.468 32.4852 138.48 32.5185C138.491 32.5519 138.511 32.5818 138.537 32.6056L136.828 31.6054L137.11 31.014L138.819 32.0228C138.799 32.0135 138.777 32.0086 138.755 32.0086C138.733 32.0086 138.711 32.0135 138.691 32.0228Z" fill="#DBDBDB"/>
<path d="M133.768 29.2048C133.768 29.2852 133.746 29.3641 133.706 29.433C133.665 29.502 133.607 29.5584 133.537 29.5962C133.418 29.6484 133.323 29.5962 133.323 29.3875C133.325 29.3086 133.347 29.2315 133.388 29.1642C133.428 29.097 133.486 29.0419 133.554 29.0048C133.674 28.9613 133.776 29.0396 133.768 29.2048Z" fill="#DBDBDB"/>
<path d="M135.281 30.0137C135.211 30.0516 135.153 30.108 135.112 30.1769C135.071 30.2458 135.05 30.3247 135.05 30.4051C135.047 30.4401 135.052 30.4754 135.063 30.5084C135.075 30.5414 135.094 30.5715 135.118 30.5965L133.409 29.5962L133.682 29.0048L135.392 30.0137C135.374 30.0058 135.355 30.0017 135.336 30.0017C135.317 30.0017 135.298 30.0058 135.281 30.0137Z" fill="#DBDBDB"/>
<path d="M130.315 27.2218C130.311 27.3014 130.288 27.3789 130.248 27.4473C130.208 27.5156 130.151 27.5726 130.084 27.6132C129.956 27.6653 129.862 27.5697 129.87 27.4044C129.87 27.324 129.892 27.2451 129.932 27.1762C129.973 27.1073 130.031 27.0509 130.101 27.013C130.221 26.9261 130.315 27.013 130.315 27.2218Z" fill="#DBDBDB"/>
<path d="M131.819 27.9872C131.75 28.0243 131.693 28.0793 131.652 28.1466C131.612 28.2139 131.59 28.2909 131.588 28.3699C131.584 28.4071 131.588 28.4448 131.602 28.4797C131.615 28.5147 131.637 28.5456 131.665 28.5699L129.956 27.5697L130.229 26.9783L131.939 27.9872C131.92 27.9779 131.899 27.9731 131.879 27.9731C131.858 27.9731 131.838 27.9779 131.819 27.9872Z" fill="#DBDBDB"/>
</g>
<defs>
<filter id="filter0_d" x="0" y="0" width="166" height="106" filterUnits="userSpaceOnUse" color-interpolation-filters="sRGB">
<feFlood flood-opacity="0" result="BackgroundImageFix"/>
<feColorMatrix in="SourceAlpha" type="matrix" values="0 0 0 0 0 0 0 0 0 0 0 0 0 0 0 0 0 0 127 0" result="hardAlpha"/>
<feOffset dy="4"/>
<feGaussianBlur stdDeviation="4"/>
<feComposite in2="hardAlpha" operator="out"/>
<feColorMatrix type="matrix" values="0 0 0 0 0 0 0 0 0 0 0 0 0 0 0 0 0 0 0.5 0"/>
<feBlend mode="normal" in2="BackgroundImageFix" result="effect1_dropShadow"/>
<feBlend mode="normal" in="SourceGraphic" in2="effect1_dropShadow" result="shape"/>
</filter>
</defs>
</svg>
