<svg width="166" height="117" viewBox="0 0 166 117" fill="none" xmlns="http://www.w3.org/2000/svg">
<g filter="url(#filter0_d)">
<path d="M8 70.1939L62.671 101.731L158 46.8812L103.105 15.1767L8 70.1939Z" fill="#FF7300"/>
<path d="M62.6707 101.731V105L158 50.1411V46.8812L62.6707 101.731Z" fill="#BC4C00"/>
<path d="M8 70.1937V73.4629L62.671 105V101.731L8 70.1937Z" fill="#D85C00"/>
<path d="M62.6712 99.8492L62.522 99.7654L11.2936 70.2124L102.853 17.1231L103.003 17.207L154.446 46.9276L154.007 47.1884L62.6712 99.8492ZM12.4784 70.2124L62.6712 99.1507L153.27 46.9276L102.891 17.8403L12.4784 70.2124Z" fill="white"/>
<path d="M117.92 42.6622C115.728 43.5936 113.34 44.2083 111.147 45.0186C108.955 45.8289 106.333 46.2387 104.113 45.3353C98.8415 43.1838 103.805 38.7038 106.622 36.1331L96.4439 30.2654L32.7046 67.1391L42.7152 72.9137C46.0738 71.8426 49.3951 70.548 52.7724 69.598C54.7969 69.0298 57.8663 68.8063 59.6482 70.2127C61.2249 71.4608 60.8984 73.3142 59.6482 74.6182C58.6407 75.6427 57.5491 76.5462 56.5788 77.6266C55.9351 78.3438 55.3007 79.0702 54.6383 79.7688L66.039 86.3444L129.946 49.5731L117.92 42.6622Z" fill="#94C628"/>
<path d="M66.0198 86.6796L65.8705 86.5957L32.1163 67.139L96.49 29.8834L130.543 49.5357L66.0198 86.6796ZM33.2919 67.1204L66.0198 86.0462L129.311 49.6195L96.4434 30.6564L33.2919 67.1204Z" fill="white"/>
<path d="M80.9478 63.8137C75.7419 63.8137 71.5156 61.2245 71.5156 58.0484C71.5156 54.8724 75.7419 52.2831 80.9478 52.2831C86.1536 52.2831 90.3706 54.8631 90.3706 58.0484C90.3706 61.2338 86.1443 63.8137 80.9478 63.8137ZM80.9478 52.8699C76.0684 52.8699 72.1034 55.1891 72.1034 58.0484C72.1034 60.9078 76.0684 63.2176 80.9478 63.2176C85.8271 63.2176 89.8295 60.8985 89.8295 58.0484C89.8295 55.1984 85.8178 52.8699 80.9478 52.8699Z" fill="white"/>
<path d="M36.9873 63.6927C27.126 63.6927 18.1977 66.1422 11.7976 70.082C11.9659 70.2003 12.114 70.345 12.2361 70.5104C18.5335 66.6824 27.3033 64.2981 36.9966 64.2981C56.1128 64.2981 71.6745 73.5561 71.6745 84.9284C71.6745 90.4608 67.9426 95.4903 62.0184 99.1973C62.138 99.3558 62.2657 99.5081 62.4009 99.6536C68.5117 95.8349 72.2809 90.6471 72.2809 84.9284C72.2715 73.2394 56.4394 63.6927 36.9873 63.6927Z" fill="white"/>
<path d="M153.643 46.9837C153.513 46.8533 153.391 46.7042 153.27 46.5645C146.973 50.3646 138.231 52.7303 128.575 52.7303C109.449 52.7303 93.8969 43.4723 93.8969 32.0907C93.8969 26.5862 97.5448 21.5846 103.469 17.8777C103.284 17.7733 103.112 17.6484 102.956 17.5052C96.9757 21.3145 93.2905 26.4465 93.2905 32.0907C93.2905 43.8076 109.151 53.3357 128.575 53.3357C138.389 53.3357 147.234 50.9141 153.671 47.0023L153.643 46.9837Z" fill="white"/>
<path d="M57.0789 43.9197L56.7848 44.4277L107.671 73.7931L107.965 73.2851L57.0789 43.9197Z" fill="white"/>
<path d="M107.192 46.0709C103.926 46.0709 101.277 44.4317 101.277 42.4106C101.277 40.3895 103.926 38.7502 107.192 38.7502C110.457 38.7502 113.153 40.4081 113.153 42.4106C113.153 44.4131 110.457 46.0709 107.192 46.0709ZM107.192 39.3463C104.253 39.3463 101.864 40.7154 101.864 42.4106C101.864 44.1057 104.253 45.4842 107.192 45.4842C110.13 45.4842 112.519 44.1057 112.519 42.4106C112.519 40.7154 110.13 39.3463 107.192 39.3463Z" fill="white"/>
<path d="M103.005 39.8561L102.714 40.3661L110.968 45.0566L111.259 44.5466L103.005 39.8561Z" fill="white"/>
<path d="M55.3101 76.2293C52.0541 76.2293 49.3951 74.59 49.3951 72.5689C49.3951 70.5478 52.0541 68.9085 55.3101 68.9085C58.5661 68.9085 61.225 70.5571 61.225 72.5689C61.225 74.5807 58.5381 76.2293 55.3101 76.2293ZM55.3101 69.5046C52.3806 69.5046 49.9829 70.8831 49.9829 72.5689C49.9829 74.2547 52.3806 75.6425 55.3101 75.6425C58.2395 75.6425 60.6372 74.264 60.6372 72.5689C60.6372 70.8738 58.2115 69.5046 55.3101 69.5046Z" fill="white"/>
<path d="M51.0862 70.0253L50.7954 70.5353L59.0493 75.2258L59.3401 74.7159L51.0862 70.0253Z" fill="white"/>
<path d="M103.068 40.3336L102.097 40.4827L116.903 25.5339L117.323 25.953L103.068 40.3336Z" fill="white"/>
<path d="M136.149 36.6259L111.023 44.5396L111.2 45.0992L136.326 37.1855L136.149 36.6259Z" fill="white"/>
<path d="M25.6515 78.3996L25.4742 77.8315L51.3637 69.8495L51.0278 70.5759L25.6515 78.3996Z" fill="white"/>
<path d="M58.9762 74.7845L44.9246 89.2049L45.3459 89.6141L59.3975 75.1937L58.9762 74.7845Z" fill="white"/>
<path d="M55.7535 53.6564L55.4596 54.1645L88.7718 73.3652L89.0657 72.857L55.7535 53.6564Z" fill="white"/>
<path d="M74.6526 42.7153L74.3588 43.2234L107.671 62.424L107.965 61.9159L74.6526 42.7153Z" fill="white"/>
<path d="M123.816 31.6621H124.749V10.6686C124.749 10.6686 120.7 8.93617 120.001 8.68469V9.7651C121.083 10.1935 122.473 10.8269 123.788 11.395L123.816 31.6621Z" fill="#0F0F0F"/>
<path d="M124.777 31.7088C124.777 31.8765 124.563 32.0069 124.292 32.0069C124.022 32.0069 123.817 31.8765 123.817 31.7088C123.817 31.5412 124.031 31.4201 124.292 31.4201C124.554 31.4201 124.777 31.5505 124.777 31.7088Z" fill="#0F0F0F"/>
<path d="M116.642 11.6934L124.134 16.0057V8.36833L116.642 4.57758V11.6934Z" fill="#8E8E8E"/>
<path d="M116.176 11.9075L123.677 16.2199V8.58248L116.176 4.27014V11.9075Z" fill="#B2B2B2"/>
<path d="M123.677 16.2197L124.134 16.0055V8.31223L123.677 8.58233V16.2197Z" fill="#8E8E8E"/>
<path d="M116.176 4.2701L116.642 4L124.134 8.31233L123.677 8.58244L116.176 4.2701Z" fill="#DBDBDB"/>
<path d="M121.876 13.3976L117.976 11.1623V7.12935L121.876 9.374V13.3976ZM118.144 11.0691L121.745 13.1461V9.45782L118.144 7.38083V11.0691Z" fill="white"/>
<path d="M123.341 15.4746L116.568 11.5348V5.01508L123.341 8.90829V15.4746ZM116.708 11.5348L123.192 15.2604V9.00142L116.708 5.27586V11.5348Z" fill="white"/>
<path d="M118.35 11.563H118.098V14.2082H118.35V11.563Z" fill="#E2E2E2"/>
<path d="M116.987 11.7897L116.738 11.8261L117.127 14.4802L117.376 14.4439L116.987 11.7897Z" fill="#E2E2E2"/>
<path d="M119.475 11.8967L119.086 14.5509L119.336 14.5873L119.724 11.9331L119.475 11.8967Z" fill="#E2E2E2"/>
<path d="M118.219 16.6669C117.155 16.6669 116.353 16.1267 116.353 15.4374C116.353 14.7482 117.192 14.208 118.219 14.208C119.245 14.208 120.084 14.7482 120.084 15.4374C120.084 16.1267 119.291 16.6669 118.219 16.6669ZM118.219 14.4501C117.286 14.4501 116.567 14.8879 116.567 15.4374C116.567 15.9869 117.295 16.4247 118.219 16.4247C119.142 16.4247 119.879 15.9869 119.879 15.4374C119.879 14.8879 119.152 14.4501 118.219 14.4501Z" fill="#E2E2E2"/>
<path d="M118.219 15.8285C117.053 15.8285 116.138 15.2417 116.138 14.4873C116.138 13.7329 117.071 13.1461 118.219 13.1461C119.366 13.1461 120.29 13.7329 120.29 14.4873C120.29 15.2417 119.385 15.8285 118.219 15.8285ZM118.219 13.4162C117.202 13.4162 116.409 13.8819 116.409 14.4873C116.409 15.0927 117.202 15.5584 118.219 15.5584C119.236 15.5584 120.02 15.0927 120.02 14.4873C120.02 13.8819 119.226 13.3976 118.219 13.3976V13.4162Z" fill="#E2E2E2"/>
<path d="M118.219 15.0275C116.988 15.0275 116.018 14.4034 116.018 13.6024C116.018 12.8014 116.951 12.1774 118.219 12.1774C119.488 12.1774 120.412 12.8108 120.412 13.6024C120.412 14.3941 119.451 15.0275 118.219 15.0275ZM118.219 12.4661C117.146 12.4661 116.307 12.9691 116.307 13.6024C116.307 14.2358 117.146 14.7387 118.219 14.7387C119.292 14.7387 120.085 14.2451 120.085 13.6024C120.085 12.9598 119.292 12.4661 118.219 12.4661Z" fill="#E2E2E2"/>
<path d="M120.122 15.4562H119.88C120.057 14.5248 120.328 13.0532 120.337 12.9601H120.617C120.617 12.988 120.337 14.3292 120.122 15.4562Z" fill="#E2E2E2"/>
<path d="M117.137 16.3501L116.969 14.0961L117.221 14.0775L117.379 16.3314L117.137 16.3501Z" fill="#E2E2E2"/>
<path d="M119.276 14.0149L119.111 16.2722L119.362 16.2905L119.527 14.0332L119.276 14.0149Z" fill="#E2E2E2"/>
<path d="M118.35 14.329H118.098V16.5457H118.35V14.329Z" fill="#E2E2E2"/>
<path d="M118.219 14.4036C116.885 14.4036 115.84 13.7516 115.84 12.9227C115.84 12.0938 116.885 11.4325 118.219 11.4325C119.553 11.4325 120.607 12.0845 120.607 12.9227C120.607 13.761 119.562 14.4036 118.219 14.4036ZM118.219 11.7212C117.081 11.7212 116.129 12.2707 116.129 12.9227C116.129 13.5747 117.062 14.1149 118.219 14.1149C119.376 14.1149 120.318 13.5654 120.318 12.9227C120.318 12.28 119.357 11.7212 118.219 11.7212Z" fill="#D6403C"/>
<path d="M44.7673 53.8198H44.5154V56.465H44.7673V53.8198Z" fill="#E2E2E2"/>
<path d="M43.4013 54.0518L43.1521 54.0882L43.5409 56.7423L43.7901 56.7059L43.4013 54.0518Z" fill="#E2E2E2"/>
<path d="M45.8838 54.1586L45.495 56.8127L45.7442 56.8491L46.133 54.195L45.8838 54.1586Z" fill="#E2E2E2"/>
<path d="M44.6371 58.9335C43.5736 58.9335 42.7712 58.3933 42.7712 57.704C42.7712 57.0148 43.6109 56.4653 44.6371 56.4653C45.6634 56.4653 46.503 57.0055 46.503 57.704C46.503 58.4026 45.71 58.9335 44.6371 58.9335ZM44.6371 56.7168C43.7042 56.7168 42.9858 57.1452 42.9858 57.704C42.9858 58.2629 43.7135 58.682 44.6371 58.682C45.5608 58.682 46.2978 58.2536 46.2978 57.704C46.2978 57.1545 45.5701 56.7168 44.6371 56.7168Z" fill="#E2E2E2"/>
<path d="M44.6371 58.1046C43.4709 58.1046 42.5566 57.5179 42.5566 56.7634C42.5566 56.009 43.4896 55.4129 44.6371 55.4129C45.7847 55.4129 46.7083 56.009 46.7083 56.7634C46.7083 57.5179 45.8033 58.1046 44.6371 58.1046ZM44.6371 55.683C43.6202 55.683 42.8272 56.158 42.8272 56.7634C42.8272 57.3688 43.6202 57.8345 44.6371 57.8345C45.654 57.8345 46.4377 57.3595 46.4377 56.7634C46.4377 56.1673 45.6447 55.6737 44.6371 55.6737V55.683Z" fill="#E2E2E2"/>
<path d="M44.6371 57.2943C43.4056 57.2943 42.4353 56.6703 42.4353 55.8693C42.4353 55.0683 43.3683 54.4442 44.6371 54.4442C45.9059 54.4442 46.8295 55.0683 46.8295 55.8693C46.8295 56.6703 45.8686 57.2943 44.6371 57.2943ZM44.6371 54.733C43.5642 54.733 42.7245 55.2359 42.7245 55.8693C42.7245 56.5026 43.5642 57.0056 44.6371 57.0056C45.71 57.0056 46.503 56.5026 46.503 55.8693C46.503 55.2359 45.71 54.733 44.6371 54.733Z" fill="#E2E2E2"/>
<path d="M42.5616 55.2943L42.314 55.3401L42.7564 57.7211L43.0041 57.6753L42.5616 55.2943Z" fill="#E2E2E2"/>
<path d="M46.5399 57.7228L46.2974 57.6762C46.4746 56.7448 46.7452 55.2732 46.7545 55.1801H47.0064C47.0064 55.2546 46.7545 56.6051 46.5399 57.7228Z" fill="#E2E2E2"/>
<path d="M43.5547 58.6169L43.3961 56.3629L43.6387 56.3443L43.7973 58.5983L43.5547 58.6169Z" fill="#E2E2E2"/>
<path d="M45.6928 56.2759L45.5283 58.5332L45.7795 58.5514L45.944 56.2941L45.6928 56.2759Z" fill="#E2E2E2"/>
<path d="M44.7673 56.5954H44.5154V58.812H44.7673V56.5954Z" fill="#E2E2E2"/>
<path d="M44.6367 56.67C43.3026 56.67 42.2577 56.018 42.2577 55.1798C42.2577 54.3415 43.3026 53.6989 44.6367 53.6989C45.9708 53.6989 47.0251 54.3508 47.0251 55.1798C47.0251 56.0087 45.9802 56.67 44.6367 56.67ZM44.6367 53.9876C43.4985 53.9876 42.5469 54.5371 42.5469 55.1798C42.5469 55.8224 43.4799 56.3812 44.6367 56.3812C45.7936 56.3812 46.7359 55.8317 46.7359 55.1798C46.7359 54.5278 45.7749 53.9876 44.6367 53.9876Z" fill="#D6403C"/>
<path d="M37.7144 57.1637L45.2153 61.476V53.8386L37.7144 50.0479V57.1637Z" fill="#8E8E8E"/>
<path d="M37.2571 57.3778L44.758 61.6902V54.0528L37.2571 49.7404V57.3778Z" fill="#B2B2B2"/>
<path d="M44.7584 61.6905L45.2156 61.4763V53.783L44.7584 54.0531V61.6905Z" fill="#8E8E8E"/>
<path d="M37.2571 49.7404L37.7142 49.4703L45.2152 53.7826L44.758 54.0527L37.2571 49.7404Z" fill="#DBDBDB"/>
<path d="M40.8028 55.1614L38.0413 59.7904V81.3987H39.0302V60.2468L41.4279 56.0742L40.8028 55.1614Z" fill="#0F0F0F"/>
<path d="M40.7461 55.3754C40.7489 55.5168 40.784 55.6557 40.8487 55.7816C40.9134 55.9075 41.0059 56.017 41.1193 56.1019C41.3339 56.2229 41.5018 56.1019 41.5018 55.8131C41.4978 55.6709 41.4613 55.5315 41.395 55.4055C41.3287 55.2796 41.2344 55.1705 41.1193 55.0866C40.914 54.9656 40.7461 55.096 40.7461 55.3754Z" fill="#0F0F0F"/>
<path d="M39.0115 81.389C39.0115 81.5473 38.7969 81.6777 38.5264 81.6777C38.2558 81.6777 38.0413 81.5473 38.0413 81.389C38.0413 81.2307 38.2652 81.1003 38.5264 81.1003C38.7876 81.1003 39.0115 81.24 39.0115 81.389Z" fill="#0F0F0F"/>
</g>
<defs>
<filter id="filter0_d" x="0" y="0" width="166" height="117" filterUnits="userSpaceOnUse" color-interpolation-filters="sRGB">
<feFlood flood-opacity="0" result="BackgroundImageFix"/>
<feColorMatrix in="SourceAlpha" type="matrix" values="0 0 0 0 0 0 0 0 0 0 0 0 0 0 0 0 0 0 127 0" result="hardAlpha"/>
<feOffset dy="4"/>
<feGaussianBlur stdDeviation="4"/>
<feComposite in2="hardAlpha" operator="out"/>
<feColorMatrix type="matrix" values="0 0 0 0 0 0 0 0 0 0 0 0 0 0 0 0 0 0 0.5 0"/>
<feBlend mode="normal" in2="BackgroundImageFix" result="effect1_dropShadow"/>
<feBlend mode="normal" in="SourceGraphic" in2="effect1_dropShadow" result="shape"/>
</filter>
</defs>
</svg>
