<svg width="166" height="106" viewBox="0 0 166 106" fill="none" xmlns="http://www.w3.org/2000/svg">
<g filter="url(#filter0_d)">
<path d="M8 61.6108L58.6628 90.958L158 33.5031L107.13 4L8 61.6108Z" fill="#94C628"/>
<path d="M58.6628 90.9578V94L158 36.5452V33.503L58.6628 90.9578Z" fill="#65871B"/>
<path d="M8 61.6106V64.6528L58.6628 94V90.9578L8 61.6106Z" fill="#77A01F"/>
<path d="M64.2565 85.8703L64.1182 85.7923L16.6196 58.3086L101.467 8.90558L101.605 8.98361L149.268 36.6146L64.2565 85.8703ZM17.7349 58.3086L64.2565 85.2376L148.205 36.6493L101.519 9.57297L17.7349 58.3086Z" fill="white"/>
<path d="M80.8908 53.3248C74.9859 53.3248 70.1703 50.378 70.1703 46.7638C70.1703 43.1495 74.9859 40.2114 80.8908 40.2114C86.7957 40.2114 91.6112 43.1495 91.6112 46.7638C91.6112 50.378 86.8043 53.3248 80.8908 53.3248ZM80.8908 40.766C75.2798 40.766 70.7236 43.4529 70.7236 46.7638C70.7236 50.0746 75.2798 52.7701 80.8908 52.7701C86.5017 52.7701 91.0579 50.0746 91.0579 46.7638C91.0579 43.4529 86.5017 40.766 80.8908 40.766Z" fill="white"/>
<path d="M48.6946 57.3466C50.039 56.9996 51.4218 56.8249 52.8099 56.8265C58.4209 56.8265 62.9771 59.5134 62.9771 62.8242C62.9585 63.6925 62.6546 64.5303 62.1125 65.2077L62.5275 65.5631C63.1506 64.7847 63.5001 63.822 63.5217 62.8242C63.5217 59.2013 58.7062 56.2632 52.7926 56.2632C51.1975 56.2559 49.6099 56.4836 48.0808 56.9392C48.3049 57.0429 48.5119 57.1803 48.6946 57.3466Z" fill="white"/>
<path d="M114.876 35.5138L114.435 35.2365C112.984 35.6492 111.482 35.8564 109.974 35.8518C104.372 35.8518 99.8156 33.165 99.8156 29.8541C99.8332 28.952 100.153 28.0819 100.723 27.384C100.587 27.2627 100.44 27.1552 100.282 27.0633C99.6361 27.851 99.2736 28.8343 99.2537 29.8541C99.2537 33.4684 104.061 36.4152 109.974 36.4152C111.678 36.4236 113.372 36.1663 114.997 35.6525L114.876 35.5138Z" fill="white"/>
<path d="M59.0347 33.8261L58.7621 34.2988L105.918 61.6253L106.19 61.1525L59.0347 33.8261Z" fill="white"/>
<path d="M54.4438 79.8464L54.1671 79.3697L70.2911 70.0351L41.5792 53.3681L25.1354 62.8847L24.8674 62.4167L41.5792 52.7267L71.3804 70.0351L54.4438 79.8464Z" fill="white"/>
<path d="M122.649 40.5235L92.5967 23.0765L109.144 13.4905L109.421 13.9673L93.6947 23.0765L122.64 39.8822L138.427 30.5216L138.712 30.9983L122.649 40.5235Z" fill="white"/>
<path d="M46.5246 75.4611L46.2393 74.993L54.6255 69.9314L40.6283 61.8189L31.7667 66.9239L31.4987 66.4472L40.6283 61.1862L55.7061 69.9227L46.5246 75.4611Z" fill="white"/>
<path d="M123.479 30.8595L108.167 22.0363L115.974 17.512L116.251 17.9887L109.257 22.0363L123.479 30.2268L130.724 26.0492L130.992 26.5259L123.479 30.8595Z" fill="white"/>
<path d="M62.5965 84.5528C63.1077 84.3132 63.6661 84.1918 64.2305 84.1974C64.796 84.1892 65.3556 84.3139 65.8645 84.5615C66.0547 84.4661 66.2362 84.3621 66.4178 84.2494C65.7644 83.8352 65.0033 83.6241 64.2305 83.6427C63.4693 83.6239 62.7189 83.8256 62.0691 84.2234C62.2506 84.3275 62.4236 84.4314 62.5965 84.5528Z" fill="white"/>
<path d="M19.2998 56.9738C19.1415 57.1095 18.9637 57.2206 18.7725 57.3032C19.2825 57.5545 19.637 57.9099 19.637 58.3086C19.6123 58.5147 19.5337 58.7106 19.4092 58.8765C19.2847 59.0424 19.1188 59.1724 18.9281 59.2533C19.06 59.3509 19.187 59.455 19.3085 59.5653L19.3776 59.6173C19.6098 59.4835 19.8049 59.2938 19.9453 59.0652C20.0857 58.8367 20.1669 58.5766 20.1817 58.3086C20.1609 58.029 20.0689 57.7596 19.9145 57.5259C19.7601 57.2922 19.5485 57.1021 19.2998 56.9738Z" fill="white"/>
<path d="M146.389 37.9579C146.588 37.8539 146.787 37.7499 146.994 37.6546C146.415 37.4032 146.035 37.0132 146.035 36.5885C146.058 36.3852 146.134 36.1916 146.255 36.0272C146.376 35.8629 146.539 35.7336 146.726 35.6524L146.329 35.2451C146.084 35.3782 145.876 35.5711 145.725 35.8059C145.574 36.0407 145.484 36.3098 145.464 36.5885C145.484 36.8783 145.58 37.1576 145.743 37.3981C145.905 37.6386 146.128 37.8317 146.389 37.9579Z" fill="white"/>
<path d="M103.343 10.1362C102.763 10.5233 102.077 10.7202 101.381 10.6996C100.825 10.7083 100.275 10.5897 99.7725 10.3529L99.2278 10.6823C99.878 11.0707 100.624 11.2688 101.381 11.2543C102.266 11.2888 103.135 11.0027 103.827 10.4483L103.343 10.1362Z" fill="white"/>
<path d="M44.2594 75.1922V65.9183L32.0087 58.8285V68.1024L31.6628 67.8944V58.1611L44.6052 65.6496V75.3395L44.2594 75.1922Z" fill="#E2E2E2"/>
<path d="M44.2592 75.1055L39.3918 77.8963L27.2361 70.8585L32.0085 68.1024L31.6627 67.8943L26.4235 70.8932L39.3399 78.373L44.605 75.3395L44.2592 75.1055Z" fill="#E2E2E2"/>
<path d="M39.5821 78.1305L39.1326 78.0698C39.1326 78.0092 39.9107 72.5835 40.1355 70.6594C40.3602 68.7352 40.732 67.8252 41.3891 67.4265L44.1643 65.6931L44.5101 65.9704C44.4496 65.9704 41.9164 67.7039 41.6225 67.8512C41.3285 67.9985 40.8444 68.5792 40.585 70.746C40.3602 72.6442 39.5908 78.0698 39.5821 78.1305Z" fill="#E2E2E2"/>
<path d="M26.873 70.9799L26.4235 70.9193C26.4235 70.8586 27.1929 65.4329 27.4263 63.5088C27.6598 61.5847 27.9537 60.5966 28.6108 60.1979C28.8788 60.0333 31.6021 58.1958 31.6627 58.1611L32.069 58.4298C32.0171 58.4298 29.1209 60.4233 28.8442 60.5879C28.5676 60.7526 28.1353 61.394 27.8759 63.5608C27.6511 65.4936 26.8817 70.9193 26.873 70.9799Z" fill="#E2E2E2"/>
<path d="M39.4958 77.1164L26.6831 69.6886L26.7523 69.5673L39.5649 76.9951L39.4958 77.1164Z" fill="#E2E2E2"/>
<path d="M39.7466 76.1196L26.934 68.7005L27.0031 68.5791L39.8158 76.0069L39.7466 76.1196Z" fill="#E2E2E2"/>
<path d="M27.1637 67.5428L27.0945 67.6628L39.9088 75.0887L39.978 74.9686L27.1637 67.5428Z" fill="#E2E2E2"/>
<path d="M27.4208 66.5457L27.3516 66.6658L39.9114 73.9442L39.9806 73.8241L27.4208 66.5457Z" fill="#E2E2E2"/>
<path d="M27.4165 65.4835L27.3473 65.6035L39.9071 72.8819L39.9763 72.7619L27.4165 65.4835Z" fill="#E2E2E2"/>
<path d="M40.1614 71.8899L27.5216 64.5575L27.5908 64.4448L40.2305 71.7686L40.1614 71.8899Z" fill="#E2E2E2"/>
<path d="M27.5886 63.3032L27.5194 63.4232L40.3337 70.8491L40.4029 70.729L27.5886 63.3032Z" fill="#E2E2E2"/>
<path d="M27.8379 62.305L27.7687 62.4251L40.583 69.8509L40.6522 69.7308L27.8379 62.305Z" fill="#E2E2E2"/>
<path d="M40.8963 68.8479L28.0923 61.4201L28.1528 61.2987L40.9655 68.7265L40.8963 68.8479Z" fill="#E2E2E2"/>
<path d="M41.389 67.9551L28.5763 60.536L28.6455 60.4147L41.4581 67.8424L41.389 67.9551Z" fill="#E2E2E2"/>
<path d="M29.4805 59.8285L29.4113 59.9485L42.2255 67.3744L42.2948 67.2543L29.4805 59.8285Z" fill="#E2E2E2"/>
<path d="M43.0059 66.811L30.1932 59.3832L30.2624 59.2619L43.0751 66.6897L43.0059 66.811Z" fill="#E2E2E2"/>
<path d="M43.81 66.2737L30.9973 58.8546L31.0665 58.7333L43.8792 66.161L43.81 66.2737Z" fill="#E2E2E2"/>
<path d="M27.6774 71.4654H27.5477C27.5477 71.4047 28.4123 65.2597 28.6284 63.4222C28.8446 61.5848 29.2855 61.2988 29.6313 60.9954L29.7091 60.9261C30.0636 60.5967 32.5967 58.9846 32.7005 58.9153L32.7783 59.0366C32.7783 59.0366 30.1846 60.7007 29.8042 61.0214L29.7178 61.0994C29.3719 61.4028 28.9829 61.7495 28.7667 63.4396C28.5247 65.2597 27.6861 71.4047 27.6774 71.4654Z" fill="#E2E2E2"/>
<path d="M28.5332 71.916H28.4036C28.4036 71.8553 29.2681 65.7103 29.4843 63.8729C29.7004 62.0354 30.1413 61.7494 30.4871 61.4461L30.5649 61.3767C30.9194 61.0473 33.4526 59.4352 33.5563 59.3659L33.6341 59.4873C33.6341 59.4873 31.0405 61.16 30.66 61.4807C30.6276 61.4989 30.5984 61.5223 30.5736 61.5501C30.2278 61.8534 29.8387 62.2001 29.6226 63.8989C29.3805 65.719 28.5419 71.8553 28.5332 71.916Z" fill="#E2E2E2"/>
<path d="M29.4064 72.3928H29.2681C29.2681 72.3321 30.1326 66.1958 30.3574 64.3583C30.5822 62.5209 31.0058 62.2262 31.3516 61.9228L31.4294 61.8535C31.7926 61.5241 34.3171 59.912 34.4295 59.8427L34.4986 59.964C34.4986 59.964 31.905 61.6368 31.5246 61.9575L31.4467 62.0268C31.1009 62.3302 30.7119 62.6769 30.4871 64.3756C30.2537 66.1957 29.415 72.3321 29.4064 72.3928Z" fill="#E2E2E2"/>
<path d="M30.2624 72.8436H30.124C30.124 72.7829 30.9886 66.6465 31.2134 64.8091C31.4381 62.9716 31.8618 62.6769 32.2076 62.3736L32.2854 62.3042C32.6485 61.9749 35.173 60.3715 35.2854 60.3021L35.3546 60.4148C35.3546 60.4148 32.7609 62.0876 32.3805 62.4082L32.3027 62.4776C31.9569 62.7809 31.5678 63.1276 31.343 64.8264C31.1096 66.6465 30.271 72.7829 30.2624 72.8436Z" fill="#E2E2E2"/>
<path d="M31.101 73.4676H30.9626C30.9626 73.3982 31.8272 67.2619 32.052 65.4244C32.2768 63.587 32.709 63.3009 33.0462 62.9976L33.124 62.9196C33.4871 62.5989 36.0203 60.9868 36.124 60.9174L36.2018 61.0301C36.2018 61.0301 33.6082 62.7029 33.2191 63.0236L33.1413 63.1016C32.7955 63.4049 32.4064 63.7516 32.1903 65.4417C31.9482 67.2618 31.1096 73.4069 31.101 73.4676Z" fill="#E2E2E2"/>
<path d="M31.9567 73.9182H31.8184C31.8184 73.8576 32.6829 67.7125 32.9077 65.8751C33.1325 64.0376 33.5648 63.7516 33.9019 63.4483L33.9797 63.3789C34.3429 63.0496 36.876 61.4375 36.9797 61.3681L37.0489 61.4895C37.0489 61.4895 34.4552 63.1536 34.0748 63.4743L33.997 63.5523C33.6512 63.8556 33.2622 64.2023 33.046 65.8924C32.804 67.7125 31.9653 73.8662 31.9567 73.9182Z" fill="#E2E2E2"/>
<path d="M32.8213 74.3948H32.6917C32.6917 74.3341 33.5562 68.189 33.7723 66.3516C33.9885 64.5142 34.4294 64.2281 34.7752 63.9248L34.853 63.8555C35.2075 63.5261 37.7406 61.914 37.8444 61.8447L37.9222 61.966C37.9222 61.966 35.3285 63.6301 34.9481 63.9508L34.8617 64.0288C34.5159 64.3321 34.1355 64.6788 33.9107 66.369C33.6686 68.1891 32.83 74.3341 32.8213 74.3948Z" fill="#E2E2E2"/>
<path d="M33.6774 74.8456H33.5477C33.5477 74.7849 34.4123 68.6398 34.6284 66.811C34.8446 64.9823 35.2855 64.6789 35.6313 64.3756L35.7264 64.3322C36.0809 64.0029 38.614 62.3908 38.7178 62.3214L38.7956 62.4428C38.7956 62.4428 36.2019 64.1156 35.8215 64.4362L35.735 64.5056C35.3892 64.8089 35.0088 65.1556 34.784 66.8544C34.5247 68.6658 33.6861 74.7849 33.6774 74.8456Z" fill="#E2E2E2"/>
<path d="M34.516 75.3569H34.3864C34.3864 75.2962 35.2509 69.1599 35.4757 67.3224C35.7005 65.485 36.1241 65.199 36.4699 64.887L36.5477 64.8176C36.9108 64.4883 39.4353 62.8848 39.5477 62.8155L39.6169 62.9282C39.6169 62.9282 37.0232 64.6009 36.6428 64.9216L36.5564 64.991C36.2192 65.2943 35.8302 65.641 35.6054 67.3398C35.3719 69.1599 34.5247 75.2962 34.516 75.3569Z" fill="#E2E2E2"/>
<path d="M35.3717 75.8163H35.2421C35.2421 75.7556 36.1066 69.6193 36.3228 67.7818C36.5389 65.9444 36.9798 65.6583 37.3256 65.355L37.4034 65.277C37.7666 64.9476 40.2911 63.3442 40.4034 63.2749L40.4726 63.3875C40.4726 63.3875 37.879 65.0603 37.4985 65.381C37.4737 65.4087 37.4445 65.4322 37.4121 65.4503C37.0749 65.7624 36.6859 66.1004 36.4611 67.7992C36.2277 69.6106 35.3804 75.747 35.3717 75.8163Z" fill="#E2E2E2"/>
<path d="M36.245 76.2929H36.1067C36.1067 76.2323 36.9712 70.0959 37.196 68.2585C37.4208 66.421 37.8531 66.135 38.1903 65.8317L38.2767 65.7536C38.6312 65.4243 40.9828 63.9335 41.0865 63.8729L41.1557 63.9855C41.1557 63.9855 38.7176 65.537 38.3632 65.8577L38.2854 65.927C37.9395 66.239 37.5505 66.577 37.3344 68.2758C37.0923 70.0872 36.2537 76.2236 36.245 76.2929Z" fill="#E2E2E2"/>
<path d="M37.1009 76.7437H36.9625C36.9625 76.6743 37.8271 70.538 38.0519 68.7005C38.2766 66.8631 38.7089 66.577 39.0461 66.2737C39.0709 66.246 39.1001 66.2225 39.1326 66.2044C39.487 65.875 41.83 64.3843 41.9337 64.3149L42.0029 64.4362C42.0029 64.4362 39.5735 65.979 39.219 66.2997L39.1412 66.3777C38.7954 66.681 38.4063 67.0277 38.1902 68.7178C37.9481 70.538 37.1095 76.683 37.1009 76.7437Z" fill="#E2E2E2"/>
<path d="M37.9395 77.2378H37.8011C37.8011 77.1771 38.6657 71.0321 38.8905 69.1946C39.1153 67.3572 39.5475 67.0712 39.8847 66.7678L39.9712 66.6985C40.3256 66.3691 42.6426 64.8957 42.7377 64.835L42.8156 64.9477C42.8156 64.9477 40.4121 66.4731 40.0576 66.7938L39.9798 66.8718C39.634 67.1752 39.2449 67.5219 39.0288 69.212C38.7867 71.0321 37.9481 77.1771 37.9395 77.2378Z" fill="#E2E2E2"/>
<path d="M38.8125 77.7145H38.6742C38.6742 77.6538 39.5387 71.5088 39.7635 69.6713C39.9883 67.8339 40.4119 67.5478 40.7578 67.2445L40.8356 67.1752C41.1987 66.8458 43.5589 65.3464 43.654 65.277L43.7318 65.3984C43.7318 65.3984 41.2765 66.9325 40.9134 67.2532L40.8269 67.3312C40.4898 67.6345 40.1007 67.9812 39.8759 69.6713C39.6598 71.5088 38.8212 77.6538 38.8125 77.7145Z" fill="#E2E2E2"/>
<path d="M43.9137 66.1351H43.7754V75.5823H43.9137V66.1351Z" fill="#E2E2E2"/>
<path d="M43.1093 66.6637H42.9709V76.1109H43.1093V66.6637Z" fill="#E2E2E2"/>
<path d="M42.3228 67.1057H42.1844V76.553H42.3228V67.1057Z" fill="#E2E2E2"/>
<path d="M41.4928 67.8077H41.3545V76.969H41.4928V67.8077Z" fill="#E2E2E2"/>
<path d="M40.6889 69.186H40.5505V77.4978H40.6889V69.186Z" fill="#E2E2E2"/>
<path d="M39.6512 77.0558L39.582 76.9345L44.3976 74.1696L44.4668 74.2823L39.6512 77.0558Z" fill="#E2E2E2"/>
<path d="M44.4151 73.2659L39.5977 76.0296L39.6664 76.15L44.4838 73.3863L44.4151 73.2659Z" fill="#E2E2E2"/>
<path d="M44.4135 72.4475L39.5961 75.2111L39.6648 75.3315L44.4822 72.5678L44.4135 72.4475Z" fill="#E2E2E2"/>
<path d="M39.9801 74.2649L39.9109 74.1436L44.3979 71.5694L44.4671 71.6821L39.9801 74.2649Z" fill="#E2E2E2"/>
<path d="M40.0837 73.3981L40.0232 73.2767L44.3978 70.7546L44.467 70.8759L40.0837 73.3981Z" fill="#E2E2E2"/>
<path d="M40.2564 72.4102L40.1873 72.2889L44.3976 69.8707L44.4668 69.9834L40.2564 72.4102Z" fill="#E2E2E2"/>
<path d="M44.4136 69.0866L40.3457 71.4183L40.4144 71.5387L44.4822 69.207L44.4136 69.0866Z" fill="#E2E2E2"/>
<path d="M44.4148 68.1833L40.4303 70.4691L40.499 70.5895L44.4835 68.3037L44.4148 68.1833Z" fill="#E2E2E2"/>
<path d="M44.4038 67.3478L40.4185 69.6323L40.4871 69.7527L44.4724 67.4682L44.4038 67.3478Z" fill="#E2E2E2"/>
<path d="M40.9653 68.5878L40.8961 68.4664L44.3976 66.4556L44.4667 66.577L40.9653 68.5878Z" fill="#E2E2E2"/>
<path d="M129.885 24.8879V15.614L117.634 8.52422V17.7288L117.28 17.5988V7.85686L130.231 15.354V25.0353L129.885 24.8879Z" fill="#E2E2E2"/>
<path d="M122.398 15.0244L122.052 14.8251L117.28 17.5899L117.66 17.8066C117.859 17.7373 122.398 15.0244 122.398 15.0244Z" fill="#E2E2E2"/>
<path d="M134.821 22.0103C134.821 22.0103 130.04 24.8097 129.885 24.8877L130.196 25.0698L135.046 22.3136L134.821 22.0103Z" fill="#E2E2E2"/>
<path d="M134.657 22.4525C134.657 22.3918 133.524 16.0821 133.395 15.2327C133.265 14.3833 133.04 14.366 132.807 14.496L129.963 15.9434V15.484L132.807 14.0366C133.447 13.6986 133.671 14.4006 133.715 14.9553C133.844 15.822 135.003 22.0538 135.029 22.3138L134.657 22.4525Z" fill="#E2E2E2"/>
<path d="M122.009 15.1632C122.009 15.1025 120.677 8.58476 120.548 7.74404C120.418 6.90332 120.185 6.87733 119.951 6.99867C119.337 7.31936 117.297 8.34209 117.28 8.35075V7.89139L119.968 6.53931C120.617 6.20996 120.833 6.90334 120.885 7.46671C121.015 8.33343 122.372 14.7731 122.398 15.0245L122.009 15.1632Z" fill="#E2E2E2"/>
<path d="M122.203 14.6186L122.001 14.9717L134.638 22.2539L134.841 21.9007L122.203 14.6186Z" fill="#E2E2E2"/>
<path d="M122.014 13.5114L121.945 13.6315L129.954 18.2726L130.023 18.1526L122.014 13.5114Z" fill="#E2E2E2"/>
<path d="M130.11 17.408L121.784 12.6671L121.845 12.5457L130.179 17.2867L130.11 17.408Z" fill="#E2E2E2"/>
<path d="M121.574 11.5357L121.505 11.6557L129.941 16.5441L130.01 16.4241L121.574 11.5357Z" fill="#E2E2E2"/>
<path d="M130.948 15.224L118.135 7.79621L118.205 7.68356L131.017 15.1027L130.948 15.224Z" fill="#E2E2E2"/>
<path d="M119.056 7.28842L118.987 7.40848L131.801 14.8343L131.87 14.7143L119.056 7.28842Z" fill="#E2E2E2"/>
<path d="M119.793 6.8944L119.724 7.01447L132.538 14.4403L132.607 14.3203L119.793 6.8944Z" fill="#E2E2E2"/>
<path d="M133.282 14.1232L120.306 6.60005L120.375 6.4787L133.352 14.0018L133.282 14.1232Z" fill="#E2E2E2"/>
<path d="M131.052 15.3192H130.914V24.4197H131.052V15.3192Z" fill="#E2E2E2"/>
<path d="M131.787 14.9553H131.648V24.0558H131.787V14.9553Z" fill="#E2E2E2"/>
<path d="M132.53 14.4265H132.392V23.527H132.53V14.4265Z" fill="#E2E2E2"/>
<path d="M133.265 14.2445H133.127V23.163H133.265V14.2445Z" fill="#E2E2E2"/>
<path d="M118.239 8.57608H118.101V17.1306H118.239V8.57608Z" fill="#E2E2E2"/>
<path d="M118.965 9.06152H118.827V16.7666H118.965V9.06152Z" fill="#E2E2E2"/>
<path d="M119.718 9.5209H119.579V16.238H119.718V9.5209Z" fill="#E2E2E2"/>
<path d="M120.444 9.88484H120.306V15.8739H120.444V9.88484Z" fill="#E2E2E2"/>
<path d="M121.205 9.94559H121.066V15.5186H121.205V9.94559Z" fill="#E2E2E2"/>
<path d="M134 17.4168H133.862V22.6605H134V17.4168Z" fill="#E2E2E2"/>
<path d="M118.334 8.63682L118.274 8.51549C118.369 8.46349 120.721 7.21541 121.023 7.10274C121.14 7.07034 121.263 7.06602 121.381 7.09012C121.5 7.11422 121.611 7.16605 121.706 7.24141L121.62 7.34542C121.542 7.28659 121.451 7.24596 121.356 7.22647C121.26 7.20698 121.161 7.20911 121.066 7.23274C120.781 7.33674 118.36 8.62815 118.334 8.63682Z" fill="#E2E2E2"/>
<path d="M119.112 9.12225L119.052 9.00092C119.147 8.94892 121.498 7.70084 121.792 7.58816C121.911 7.5577 122.034 7.55434 122.154 7.57835C122.274 7.60236 122.387 7.65312 122.484 7.72684L122.398 7.83952C122.321 7.77686 122.232 7.7332 122.135 7.71211C122.039 7.69101 121.939 7.69308 121.844 7.71817C121.559 7.83084 119.138 9.11358 119.112 9.12225Z" fill="#E2E2E2"/>
<path d="M119.925 9.55548L119.856 9.43415C119.96 9.38215 122.311 8.13407 122.605 8.02139C122.722 7.98756 122.845 7.98251 122.964 8.00666C123.083 8.03081 123.194 8.08344 123.288 8.16007L123.211 8.26408C123.132 8.20535 123.042 8.16413 122.947 8.1432C122.852 8.12226 122.753 8.12212 122.657 8.14275C122.363 8.25542 119.951 9.53815 119.925 9.55548Z" fill="#E2E2E2"/>
<path d="M120.712 10.0237L120.651 9.90239C120.755 9.84172 123.107 8.59363 123.401 8.48095C123.517 8.44993 123.64 8.4463 123.758 8.47035C123.877 8.4944 123.988 8.54548 124.084 8.61963L124.006 8.73231C124.006 8.73231 123.703 8.50695 123.453 8.61096C123.202 8.71496 120.738 10.0064 120.712 10.0237Z" fill="#E2E2E2"/>
<path d="M121.386 10.4223L121.326 10.301C121.421 10.249 123.772 9.00092 124.075 8.88824C124.192 8.85585 124.314 8.85153 124.433 8.87563C124.552 8.89972 124.663 8.95156 124.758 9.02692L124.671 9.13092C124.593 9.0722 124.503 9.03098 124.408 9.01005C124.312 8.98911 124.214 8.98897 124.118 9.0096C123.833 9.12227 121.412 10.405 121.386 10.4223Z" fill="#E2E2E2"/>
<path d="M122.095 10.8384L122.035 10.717C122.138 10.6564 124.481 9.41695 124.784 9.29561C124.901 9.26996 125.022 9.26904 125.14 9.29292C125.258 9.31679 125.369 9.36493 125.467 9.43429L125.389 9.54697C125.309 9.48947 125.217 9.44905 125.121 9.42818C125.024 9.40732 124.924 9.40644 124.827 9.42562C124.542 9.53829 122.121 10.821 122.095 10.8384Z" fill="#E2E2E2"/>
<path d="M122.822 11.2457L122.761 11.1243C122.856 11.0723 125.208 9.82427 125.51 9.71159C125.627 9.6792 125.75 9.67488 125.868 9.69898C125.987 9.72307 126.098 9.77491 126.193 9.85027L126.107 9.95427C126.029 9.89555 125.939 9.85433 125.843 9.8334C125.748 9.81246 125.649 9.81229 125.553 9.83292C125.268 9.94559 122.847 11.2283 122.822 11.2457Z" fill="#E2E2E2"/>
<path d="M123.617 11.7137L123.556 11.5923C123.651 11.5317 126.003 10.2836 126.305 10.1709C126.422 10.1412 126.544 10.1382 126.663 10.1622C126.781 10.1862 126.892 10.2366 126.988 10.3096L126.902 10.4222C126.825 10.3619 126.735 10.3197 126.639 10.2988C126.543 10.2778 126.444 10.2785 126.349 10.3009C126.063 10.4136 123.643 11.6963 123.617 11.7137Z" fill="#E2E2E2"/>
<path d="M124.343 12.1298L124.274 12.0085C124.377 11.9565 126.729 10.7084 127.023 10.5957C127.141 10.5676 127.263 10.5646 127.383 10.587C127.502 10.6094 127.615 10.6566 127.715 10.7257L127.628 10.8384C127.55 10.7797 127.46 10.7385 127.365 10.7175C127.269 10.6966 127.17 10.6964 127.075 10.7171C126.79 10.8297 124.369 12.1125 124.343 12.1298Z" fill="#E2E2E2"/>
<path d="M125.052 12.5371L124.991 12.4158C125.087 12.3638 127.438 11.1157 127.741 11.003C127.858 10.9774 127.979 10.9764 128.097 11.0003C128.214 11.0242 128.326 11.0723 128.424 11.1417L128.337 11.2544C128.26 11.1941 128.17 11.1518 128.074 11.1308C127.979 11.1098 127.879 11.1106 127.784 11.133C127.499 11.2457 125.078 12.5284 125.052 12.5371Z" fill="#E2E2E2"/>
<path d="M125.778 12.9531L125.718 12.8318C125.813 12.7798 128.164 11.5317 128.458 11.4191C128.576 11.3909 128.699 11.3879 128.818 11.4103C128.937 11.4327 129.05 11.48 129.15 11.5491L129.063 11.6617C128.985 11.603 128.895 11.5618 128.8 11.5409C128.705 11.5199 128.606 11.5198 128.51 11.5404C128.234 11.6531 125.804 12.9358 125.778 12.9531Z" fill="#E2E2E2"/>
<path d="M126.574 13.4125L126.504 13.2912C126.608 13.2392 128.96 11.9911 129.254 11.8784C129.372 11.8515 129.495 11.8499 129.614 11.8738C129.733 11.8977 129.846 11.9466 129.945 12.0171L129.859 12.1298C129.783 12.0671 129.693 12.0234 129.597 12.0024C129.501 11.9813 129.401 11.9834 129.306 12.0084C129.02 12.1211 126.599 13.4039 126.574 13.4125Z" fill="#E2E2E2"/>
<path d="M127.213 13.7851L127.144 13.6638C127.248 13.6118 129.599 12.3637 129.893 12.2424C130.01 12.2133 130.132 12.2106 130.25 12.2346C130.369 12.2586 130.48 12.3086 130.576 12.3811L130.499 12.4937C130.42 12.4365 130.33 12.3961 130.234 12.3753C130.139 12.3544 130.041 12.3534 129.945 12.3724C129.651 12.485 127.231 13.7678 127.213 13.7851Z" fill="#E2E2E2"/>
<path d="M127.922 14.1924L127.853 14.0711C127.957 14.0191 130.308 12.771 130.602 12.6583C130.721 12.6279 130.844 12.6245 130.964 12.6485C131.084 12.6725 131.197 12.7233 131.294 12.797L131.208 12.9097C131.132 12.847 131.042 12.8033 130.946 12.7822C130.849 12.7611 130.75 12.7632 130.654 12.7883C130.369 12.901 127.948 14.1837 127.922 14.1924Z" fill="#E2E2E2"/>
<path d="M128.648 14.6085L128.579 14.4871C128.683 14.4351 131.035 13.1871 131.329 13.0657C131.445 13.0366 131.567 13.034 131.686 13.0579C131.804 13.0819 131.915 13.132 132.011 13.2044L131.934 13.3171C131.855 13.2598 131.765 13.2195 131.67 13.1986C131.574 13.1777 131.476 13.1767 131.38 13.1957C131.086 13.3084 128.666 14.5911 128.648 14.6085Z" fill="#E2E2E2"/>
<path d="M129.444 15.0679L129.375 14.9465C129.479 14.8945 131.83 13.6464 132.124 13.5338C132.241 13.5021 132.363 13.4981 132.482 13.5222C132.6 13.5462 132.712 13.5977 132.807 13.6724L132.729 13.7851C132.652 13.7242 132.562 13.6817 132.466 13.6607C132.371 13.6397 132.271 13.6407 132.176 13.6638C131.882 13.7764 129.461 15.0592 129.444 15.0679Z" fill="#E2E2E2"/>
<path d="M130.179 23.8911L130.109 23.7697L134.709 21.1609L134.769 21.2736L130.179 23.8911Z" fill="#E2E2E2"/>
<path d="M134.472 20.2102L130.122 22.6755L130.19 22.7963L134.54 20.3309L134.472 20.2102Z" fill="#E2E2E2"/>
<path d="M134.277 19.3017L130.108 21.6647L130.176 21.7854L134.345 19.4225L134.277 19.3017Z" fill="#E2E2E2"/>
<path d="M130.127 20.8489L130.058 20.7276L134.121 18.4221L134.182 18.5435L130.127 20.8489Z" fill="#E2E2E2"/>
<path d="M130.179 19.8522L130.109 19.7308L134.034 17.5034L134.095 17.6247L130.179 19.8522Z" fill="#E2E2E2"/>
<path d="M133.895 16.5875L130.109 18.733L130.177 18.8537L133.963 16.7082L133.895 16.5875Z" fill="#E2E2E2"/>
<path d="M130.049 17.928L129.98 17.8067L133.602 15.7439L133.671 15.8652L130.049 17.928Z" fill="#E2E2E2"/>
<path d="M130.127 16.8966L130.058 16.7753L133.447 14.8511L133.516 14.9725L130.127 16.8966Z" fill="#E2E2E2"/>
<path d="M122.09 13.8462L117.492 16.4523L117.56 16.5731L122.158 13.967L122.09 13.8462Z" fill="#E2E2E2"/>
<path d="M117.574 15.4839L117.504 15.3712L121.853 12.901L121.914 13.0224L117.574 15.4839Z" fill="#E2E2E2"/>
<path d="M121.661 11.9932L117.491 14.3562L117.559 14.4769L121.729 12.114L121.661 11.9932Z" fill="#E2E2E2"/>
<path d="M121.499 11.1164L117.435 13.4196L117.503 13.5403L121.567 11.2371L121.499 11.1164Z" fill="#E2E2E2"/>
<path d="M121.204 10.3145L117.477 12.4245L117.545 12.5453L121.272 10.4352L121.204 10.3145Z" fill="#E2E2E2"/>
<path d="M117.556 11.5402L117.487 11.4189L120.306 9.82413L120.366 9.94548L117.556 11.5402Z" fill="#E2E2E2"/>
<path d="M119.385 9.33969L117.361 10.4871L117.429 10.6078L119.453 9.46042L119.385 9.33969Z" fill="#E2E2E2"/>
<path d="M117.504 9.58155L117.435 9.4689L118.507 8.86218L118.576 8.97486L117.504 9.58155Z" fill="#E2E2E2"/>
<path d="M129.764 19.1934L128.986 14.9205L129.115 14.8945L129.902 19.1674L129.764 19.1934Z" fill="#E2E2E2"/>
<path d="M128.7 18.5955L127.922 14.3226L128.061 14.2966L128.839 18.5695L128.7 18.5955Z" fill="#E2E2E2"/>
<path d="M127.663 18.032L126.876 13.7677L127.014 13.7417L127.792 18.006L127.663 18.032Z" fill="#E2E2E2"/>
<path d="M126.072 13.1635L125.936 13.1886L126.718 17.4595L126.854 17.4344L126.072 13.1635Z" fill="#E2E2E2"/>
<path d="M125.735 16.862L124.957 12.5891L125.086 12.5631L125.873 16.836L125.735 16.862Z" fill="#E2E2E2"/>
<path d="M124.172 12.0072L124.036 12.0322L124.818 16.3031L124.954 16.2781L124.172 12.0072Z" fill="#E2E2E2"/>
<path d="M123.275 11.5903L123.139 11.6153L123.921 15.8863L124.057 15.8612L123.275 11.5903Z" fill="#E2E2E2"/>
<path d="M122.36 10.9419L122.224 10.967L123.006 15.2379L123.142 15.2129L122.36 10.9419Z" fill="#E2E2E2"/>
</g>
<defs>
<filter id="filter0_d" x="0" y="0" width="166" height="106" filterUnits="userSpaceOnUse" color-interpolation-filters="sRGB">
<feFlood flood-opacity="0" result="BackgroundImageFix"/>
<feColorMatrix in="SourceAlpha" type="matrix" values="0 0 0 0 0 0 0 0 0 0 0 0 0 0 0 0 0 0 127 0" result="hardAlpha"/>
<feOffset dy="4"/>
<feGaussianBlur stdDeviation="4"/>
<feComposite in2="hardAlpha" operator="out"/>
<feColorMatrix type="matrix" values="0 0 0 0 0 0 0 0 0 0 0 0 0 0 0 0 0 0 0.5 0"/>
<feBlend mode="normal" in2="BackgroundImageFix" result="effect1_dropShadow"/>
<feBlend mode="normal" in="SourceGraphic" in2="effect1_dropShadow" result="shape"/>
</filter>
</defs>
</svg>
