<svg width="166" height="147" viewBox="0 0 166 147" fill="none" xmlns="http://www.w3.org/2000/svg">
<g filter="url(#filter0_d)">
<path d="M77.6107 107.625L8 67.6527L88.3893 21.4807L158 61.4665L77.6107 107.625Z" fill="#D6403C"/>
<path d="M78.1311 101.41L19.4679 67.8205L88.4876 28.4085L147.137 61.9983L78.1311 101.41Z" fill="#F3C69D"/>
<path d="M77.6107 107.624V128.142L8 88.1704V67.6526L77.6107 107.624Z" fill="#BE352D"/>
<path d="M158 61.4664L77.6104 107.624V128.142L158 81.9842V61.4664Z" fill="#AD2825"/>
<path d="M118.404 28.9124L90.1489 12.6913L89.6564 13.5591L117.869 29.7661C118.038 29.4722 118.221 29.2063 118.404 28.9124Z" fill="#DBDBDB"/>
<path d="M116.813 28.0027C116.773 27.9793 116.726 27.9671 116.68 27.9671C116.633 27.9671 116.586 27.9793 116.546 28.0027C116.444 28.0709 116.362 28.1656 116.31 28.2766C116.258 28.3876 116.237 28.5107 116.25 28.6325C116.253 28.6914 116.273 28.7482 116.308 28.7956C116.343 28.843 116.391 28.8788 116.447 28.8984L144.294 44.9375L144.787 44.0698L116.813 28.0027Z" fill="#AD2825"/>
<path d="M118.404 34.2308L90.1489 17.9397L89.6564 18.7935L117.869 35.0005C118.038 34.7206 118.221 34.4407 118.404 34.2308Z" fill="#DBDBDB"/>
<path d="M116.813 33.2511C116.772 33.2277 116.726 33.2154 116.679 33.2154C116.632 33.2154 116.586 33.2277 116.546 33.2511C116.443 33.3226 116.362 33.4199 116.31 33.5331C116.258 33.6462 116.237 33.7711 116.25 33.8949C116.255 33.9513 116.276 34.005 116.311 34.0497C116.346 34.0944 116.393 34.1281 116.447 34.1468L144.294 50.1719L144.787 49.3182L116.813 33.2511Z" fill="#AD2825"/>
<path d="M118.404 39.3672L90.1489 23.1461L89.6564 23.9999L117.869 40.2069C118.038 39.927 118.221 39.6471 118.404 39.3672Z" fill="#DBDBDB"/>
<path d="M116.813 38.4294C116.773 38.4061 116.727 38.3938 116.68 38.3938C116.633 38.3938 116.587 38.4061 116.546 38.4294C116.443 38.4998 116.36 38.597 116.308 38.7105C116.256 38.8239 116.236 38.9493 116.25 39.0732C116.255 39.1296 116.277 39.1834 116.312 39.2281C116.347 39.2728 116.394 39.3065 116.447 39.3251L144.295 55.3782L144.787 54.5105L116.813 38.4294Z" fill="#AD2825"/>
<path d="M55.4769 30.7598L88.2912 11.9495L88.7978 12.8032L56.0116 31.5995C55.8428 31.3196 55.6599 31.0397 55.4769 30.7598Z" fill="#DBDBDB"/>
<path d="M57.6299 30.5078C57.6412 30.3842 57.6199 30.2599 57.5681 30.147C57.5163 30.0341 57.4357 29.9365 57.3344 29.864C57.2938 29.8407 57.2477 29.8284 57.2008 29.8284C57.1538 29.8284 57.1077 29.8407 57.0671 29.864L23.0005 49.5141V50.6617L57.4611 30.7878C57.5139 30.7629 57.5581 30.7231 57.5882 30.6733C57.6182 30.6234 57.6327 30.5659 57.6299 30.5078Z" fill="#2C98DB"/>
<path d="M55.4769 36.0082L88.5445 17.0159L89.037 17.8837L56.0116 36.8479C55.8428 36.568 55.6599 36.2881 55.4769 36.0082Z" fill="#DBDBDB"/>
<path d="M57.0661 35.0984C57.1067 35.0751 57.1528 35.0628 57.1997 35.0628C57.2467 35.0628 57.2928 35.0751 57.3334 35.0984C57.4357 35.1699 57.5171 35.2672 57.569 35.3804C57.621 35.4936 57.6416 35.6185 57.6289 35.7422C57.6229 35.8003 57.5996 35.8553 57.562 35.9002C57.5244 35.945 57.4742 35.9777 57.4178 35.9941L22.9995 55.8261L22.507 54.9584L57.0661 35.0984Z" fill="#2C98DB"/>
<path d="M55.4769 41.2287L88.2912 22.4044L88.7978 23.2582L56.0116 42.0545C55.8428 41.7606 55.6599 41.4946 55.4769 41.2287Z" fill="#DBDBDB"/>
<path d="M57.0666 40.305C57.1072 40.2816 57.1533 40.2693 57.2002 40.2693C57.2472 40.2693 57.2933 40.2816 57.3339 40.305C57.4374 40.3754 57.5195 40.4726 57.5716 40.586C57.6237 40.6995 57.6437 40.8249 57.6294 40.9488C57.6234 41.0069 57.6001 41.0619 57.5625 41.1067C57.5249 41.1516 57.4747 41.1843 57.4183 41.2007L22.7326 61.2006L22.2401 60.3329L57.0666 40.305Z" fill="#2C98DB"/>
<path d="M22.9434 49.1363H16.7661V50.13H22.9434V49.1363Z" fill="#69CAFB"/>
<path d="M22.9434 59.8849H16.7661V60.8786H22.9434V59.8849Z" fill="#69CAFB"/>
<path d="M22.9434 54.5106H16.7661V55.5043H22.9434V54.5106Z" fill="#69CAFB"/>
<path d="M24.1824 62.0964C23.8588 62.0964 22.3531 62.0964 22.3531 63.398C22.3531 64.6996 24.1824 64.9095 24.1824 64.9095V62.0964Z" fill="#69CAFB"/>
<path d="M24.1824 45.9732H22.3531V63.5099H24.1824V45.9732Z" fill="#69CAFB"/>
<path d="M24.1824 44.6716C23.8588 44.6716 22.3531 44.6716 22.3531 45.9732C22.3531 47.2748 24.1824 47.4847 24.1824 47.4847V44.6716Z" fill="#8FDFFF"/>
<path d="M150.851 43.4819H144.674V44.4756H150.851V43.4819Z" fill="#EA5959"/>
<path d="M150.851 54.2307H144.674V55.2244H150.851V54.2307Z" fill="#EA5959"/>
<path d="M150.851 48.8563H144.674V49.85H150.851V48.8563Z" fill="#EA5959"/>
<path d="M143.422 56.4421C143.76 56.4421 145.266 56.4421 145.266 57.7437C145.266 59.0453 143.422 59.2552 143.422 59.2552V56.4421Z" fill="#EA5959"/>
<path d="M143.436 57.8416H145.265V40.3049H143.436V57.8416Z" fill="#EA5959"/>
<path d="M143.422 39.0034C143.76 39.0034 145.266 39.0034 145.266 40.319C145.266 41.6346 143.422 41.8305 143.422 41.8305V39.0034Z" fill="#F97878"/>
<path d="M77.836 76.0501H77.3857C76.3288 76.0501 75.472 76.9023 75.472 77.9535V93.6707C75.472 94.722 76.3288 95.5741 77.3857 95.5741H77.836C78.8929 95.5741 79.7497 94.722 79.7497 93.6707V77.9535C79.7497 76.9023 78.8929 76.0501 77.836 76.0501Z" fill="white"/>
<path d="M51.705 65.7212L23.4499 49.5001L22.9574 50.3539L51.1422 66.561C51.3392 66.281 51.5221 66.0011 51.705 65.7212Z" fill="#69CAFB"/>
<path d="M50.1149 64.8115C50.0743 64.7882 50.0282 64.7759 49.9812 64.7759C49.9343 64.7759 49.8882 64.7882 49.8476 64.8115C49.7441 64.882 49.6619 64.9792 49.6099 65.0926C49.5578 65.206 49.5378 65.3315 49.5521 65.4553C49.557 65.5117 49.5783 65.5655 49.6132 65.6102C49.6482 65.6549 49.6954 65.6886 49.7491 65.7073L77.5962 81.7324L78.0887 80.8647L50.1149 64.8115Z" fill="white"/>
<path d="M51.705 70.9557L23.4499 54.7346L22.9574 55.6023L51.1 71.7954C51.3392 71.5155 51.5221 71.2356 51.705 70.9557Z" fill="#69CAFB"/>
<path d="M50.1154 70.0459C50.0748 70.0226 50.0287 70.0103 49.9818 70.0103C49.9348 70.0103 49.8887 70.0226 49.8481 70.0459C49.7457 70.1174 49.6644 70.2148 49.6125 70.3279C49.5606 70.4411 49.5399 70.566 49.5526 70.6897C49.5582 70.7476 49.5795 70.8029 49.6142 70.8497C49.6489 70.8965 49.6957 70.9331 49.7496 70.9556L77.5967 86.9668L78.0892 86.113L50.1154 70.0459Z" fill="white"/>
<path d="M51.7059 76.218L23.4508 59.9409L23.0005 60.8227L51.1431 77.0298C51.3401 76.7219 51.523 76.4419 51.7059 76.218Z" fill="#69CAFB"/>
<path d="M50.1159 75.2523C50.0752 75.229 50.0291 75.2167 49.9822 75.2167C49.9352 75.2167 49.8891 75.229 49.8485 75.2523C49.7462 75.3238 49.6649 75.4212 49.6129 75.5343C49.561 75.6475 49.5403 75.7724 49.553 75.8961C49.5418 75.9625 49.5539 76.0307 49.5872 76.0893C49.6205 76.1479 49.673 76.1933 49.7359 76.218L77.5971 92.1732L78.0896 91.3195L50.1159 75.2523Z" fill="white"/>
<path d="M111.649 61.4385L144.421 42.6282L144.928 43.4959L112.142 62.2222C111.973 61.9983 111.79 61.7184 111.649 61.4385Z" fill="#EA5959"/>
<path d="M113.197 60.5287C113.237 60.5054 113.283 60.4931 113.33 60.4931C113.377 60.4931 113.423 60.5054 113.464 60.5287C113.569 60.5981 113.652 60.6951 113.704 60.8088C113.756 60.9225 113.775 61.0485 113.76 61.1725C113.757 61.2314 113.737 61.2882 113.702 61.3356C113.667 61.383 113.618 61.4189 113.562 61.4385L78.1169 81.9142L77.6104 81.0465L113.197 60.5287Z" fill="white"/>
<path d="M111.649 66.6869L144.717 47.6947L145.223 48.5484L112.142 67.5267C111.973 67.2327 111.79 66.9668 111.649 66.6869Z" fill="#EA5959"/>
<path d="M113.197 65.7632C113.238 65.7398 113.284 65.7275 113.331 65.7275C113.378 65.7275 113.424 65.7398 113.464 65.7632C113.569 65.829 113.652 65.9234 113.705 66.035C113.757 66.1466 113.776 66.2709 113.76 66.393C113.76 66.4523 113.74 66.5101 113.705 66.5579C113.67 66.6057 113.62 66.6411 113.563 66.6589L79.1163 86.4908L78.6238 85.6371L113.197 65.7632Z" fill="white"/>
<path d="M111.649 71.8792L144.463 53.069L144.97 53.9367L112.142 72.719C111.973 72.4391 111.79 72.1592 111.649 71.8792Z" fill="#EA5959"/>
<path d="M113.197 70.9696C113.237 70.9462 113.283 70.9339 113.33 70.9339C113.377 70.9339 113.423 70.9462 113.464 70.9696C113.567 71.04 113.65 71.1372 113.702 71.2506C113.754 71.3641 113.774 71.4895 113.759 71.6134C113.759 71.6727 113.74 71.7305 113.705 71.7783C113.669 71.8261 113.619 71.8615 113.562 71.8793L78.8767 91.8792L78.3701 91.0115L113.197 70.9696Z" fill="white"/>
<path d="M18.0328 67.8205C18.0328 68.2403 17.4559 68.5762 16.7664 68.5762C16.0769 68.5762 15.5 68.2403 15.5 67.8205C15.5 67.4006 16.0628 67.0507 16.7664 67.0507C17.47 67.0507 18.0328 67.4006 18.0328 67.8205Z" fill="#0F0F0F"/>
<path d="M18.0187 45.9732H15.5V67.7786H18.0187V45.9732Z" fill="#0F0F0F"/>
<path d="M16.7664 46.7289C17.4658 46.7289 18.0328 46.3906 18.0328 45.9732C18.0328 45.5558 17.4658 45.2174 16.7664 45.2174C16.067 45.2174 15.5 45.5558 15.5 45.9732C15.5 46.3906 16.067 46.7289 16.7664 46.7289Z" fill="#353535"/>
<path d="M78.877 102.572C78.877 102.992 78.3142 103.328 77.6106 103.328C76.907 103.328 76.3583 102.992 76.3583 102.572C76.3583 102.152 76.9211 101.816 77.6106 101.816C78.3001 101.816 78.877 102.152 78.877 102.572Z" fill="#0F0F0F"/>
<path d="M78.877 80.7246H76.3583V102.53H78.877V80.7246Z" fill="#0F0F0F"/>
<path d="M78.877 80.7247C78.877 81.1446 78.3142 81.4805 77.6106 81.4805C76.907 81.4805 76.3583 81.1446 76.3583 80.7247C76.3583 80.3048 76.9211 79.9689 77.6106 79.9689C78.3001 79.9689 78.877 80.3048 78.877 80.7247Z" fill="#353535"/>
<path d="M89.656 26.6031C89.656 27.023 89.0932 27.3729 88.4037 27.3729C87.7142 27.3729 87.1372 27.023 87.1372 26.6031C87.1372 26.1832 87.7001 25.8473 88.4037 25.8473C89.1072 25.8473 89.656 26.1832 89.656 26.6031Z" fill="#0F0F0F"/>
<path d="M89.656 4.75566H87.1372V26.561H89.656V4.75566Z" fill="#0F0F0F"/>
<path d="M89.6562 4.75577C89.6562 5.17564 89.0934 5.51154 88.4039 5.51154C87.7144 5.51154 87.1375 5.17564 87.1375 4.75577C87.1375 4.3359 87.7003 4 88.4039 4C89.1075 4 89.6562 4.3359 89.6562 4.75577Z" fill="#353535"/>
<path d="M151.78 61.3405C151.78 61.7604 151.218 62.0963 150.514 62.0963C149.81 62.0963 149.248 61.7604 149.248 61.3405C149.248 60.9206 149.81 60.5847 150.514 60.5847C151.218 60.5847 151.78 60.9206 151.78 61.3405Z" fill="#0F0F0F"/>
<path d="M151.766 39.4932H149.248V61.2985H151.766V39.4932Z" fill="#0F0F0F"/>
<path d="M151.78 39.4931C151.78 39.913 151.218 40.2489 150.514 40.2489C149.81 40.2489 149.248 39.913 149.248 39.4931C149.248 39.0732 149.81 38.7374 150.514 38.7374C151.218 38.7374 151.78 39.0732 151.78 39.4931Z" fill="#353535"/>
<path d="M88.6146 8.29662H88.1643C87.1074 8.29662 86.2506 9.14881 86.2506 10.2V26.2392C86.2506 27.2904 87.1074 28.1426 88.1643 28.1426H88.6146C89.6715 28.1426 90.5283 27.2904 90.5283 26.2392V10.2C90.5283 9.14881 89.6715 8.29662 88.6146 8.29662Z" fill="#DBDBDB"/>
<path d="M114.056 102.152L88.5444 116.806V113.447L114.056 98.7932V102.152Z" fill="#D1946B"/>
<path d="M88.5441 113.447L114.055 98.793L109.327 96.0779L83.8162 110.731L88.5441 113.447Z" fill="#F3C69D"/>
<path d="M118.797 108.226L93.2859 122.88V119.521L118.797 104.867V108.226Z" fill="#D1946B"/>
<path d="M93.2865 119.521L118.798 104.867L114.056 102.152L88.5444 116.806L93.2865 119.521Z" fill="#F3C69D"/>
<path d="M123.525 114.3L98.028 128.954V125.595L123.525 110.942V114.3Z" fill="#D1946B"/>
<path d="M98.0279 125.595L123.525 110.941L118.797 108.226L93.2859 122.866L98.0279 125.595Z" fill="#F3C69D"/>
<path d="M128.267 120.346L102.756 135V131.641L128.267 117.001V120.346Z" fill="#D1946B"/>
<path d="M102.756 131.641L128.267 117.002L123.525 114.272L98.028 128.954L102.756 131.641Z" fill="#F3C69D"/>
<path d="M93.2862 122.88V119.521L88.5441 116.806V113.447L83.8162 110.731V124.055L102.756 135V131.641L98.0282 128.954V125.595L93.2862 122.88Z" fill="#E2AA7D"/>
</g>
<defs>
<filter id="filter0_d" x="0" y="0" width="166" height="147" filterUnits="userSpaceOnUse" color-interpolation-filters="sRGB">
<feFlood flood-opacity="0" result="BackgroundImageFix"/>
<feColorMatrix in="SourceAlpha" type="matrix" values="0 0 0 0 0 0 0 0 0 0 0 0 0 0 0 0 0 0 127 0" result="hardAlpha"/>
<feOffset dy="4"/>
<feGaussianBlur stdDeviation="4"/>
<feComposite in2="hardAlpha" operator="out"/>
<feColorMatrix type="matrix" values="0 0 0 0 0 0 0 0 0 0 0 0 0 0 0 0 0 0 0.5 0"/>
<feBlend mode="normal" in2="BackgroundImageFix" result="effect1_dropShadow"/>
<feBlend mode="normal" in="SourceGraphic" in2="effect1_dropShadow" result="shape"/>
</filter>
</defs>
</svg>
