<svg width="166" height="106" viewBox="0 0 166 106" fill="none" xmlns="http://www.w3.org/2000/svg">
<g filter="url(#filter0_d)">
<path d="M8 55.2167L69.7464 90.9565L158 39.8872L96.0549 4L8 55.2167Z" fill="#69CAFB"/>
<path d="M69.7463 90.9566V94L158 42.9307V39.8873L69.7463 90.9566Z" fill="#2C98DB"/>
<path d="M8 55.2168V58.2861L69.7464 94V90.9566L8 55.2168Z" fill="#3DB8E8"/>
<path d="M28.2109 55.8324L67.1814 78.4191L137.159 37.8671L98.0244 15.1504L28.2109 55.8324Z" fill="#FF7300"/>
<path d="M117.475 54.9393L118.019 54.6272L116.032 53.4653L115.48 53.7774L117.475 54.9393Z" fill="white"/>
<path d="M114.849 53.4132L115.402 53.0924L72.2077 27.8526L71.6636 28.1647L114.849 53.4132Z" fill="white"/>
<path d="M66.8356 24.714L66.2915 25.0261L68.4076 26.266L68.9517 25.9452L66.8356 24.714Z" fill="white"/>
<path d="M120.144 56.5087L120.697 56.1879L118.65 54.9913L118.105 55.3121L120.144 56.5087Z" fill="white"/>
<path d="M71.0332 27.8005L71.5774 27.4797L69.5822 26.3179L69.0381 26.63L71.0332 27.8005Z" fill="white"/>
<path d="M44.6299 37.6329L44.0771 37.9537L46.15 39.1589L46.7028 38.8468L44.6299 37.6329Z" fill="white"/>
<path d="M97.9378 69.4278L98.482 69.107L96.4004 67.8931L95.8477 68.2053L97.9378 69.4278Z" fill="white"/>
<path d="M47.3247 39.211L46.7805 39.5318L48.7757 40.6937L49.3198 40.3815L47.3247 39.211Z" fill="white"/>
<path d="M49.9501 40.7457L49.406 41.0665L92.6 66.3064L93.1441 65.9942L49.9501 40.7457Z" fill="white"/>
<path d="M93.7746 66.3585L93.2305 66.6793L95.217 67.8411L95.7698 67.5203L93.7746 66.3585Z" fill="white"/>
<path d="M63.3894 35.2486L62.8367 35.5954L101.893 58.2687L102.507 57.9479L63.3894 35.2486Z" fill="white"/>
<path d="M60.1506 33.4017C60.1506 33.5578 59.9519 33.6792 59.7101 33.6792C59.4683 33.6792 59.261 33.5578 59.261 33.4017C59.261 33.2457 59.4596 33.133 59.7101 33.133C59.9606 33.133 60.1506 33.2544 60.1506 33.4017Z" fill="#0F0F0F"/>
<path d="M60.1506 15.4277H59.261V33.393H60.1506V15.4277Z" fill="#0F0F0F"/>
<path d="M60.1506 15.4278C60.1506 15.5752 59.9519 15.6966 59.7101 15.6966C59.4683 15.6966 59.261 15.5752 59.261 15.4278C59.261 15.2804 59.4596 15.1504 59.7101 15.1504C59.9606 15.1504 60.1506 15.2717 60.1506 15.4278Z" fill="#353535"/>
<path d="M105.625 43.0521H105.555L59.874 16.2949C59.8497 16.2691 59.8362 16.235 59.8362 16.1995C59.8362 16.1641 59.8497 16.1299 59.874 16.1042C59.8829 16.0891 59.8947 16.076 59.9087 16.0657C59.9227 16.0553 59.9386 16.0479 59.9555 16.0438C59.9725 16.0398 59.99 16.0392 60.0072 16.0421C60.0244 16.0451 60.0407 16.0514 60.0554 16.0608L105.737 42.818C105.764 42.833 105.785 42.8566 105.797 42.8851C105.809 42.9135 105.811 42.9453 105.804 42.9752C105.796 43.0051 105.778 43.0314 105.753 43.0501C105.729 43.0688 105.699 43.0786 105.668 43.0781L105.625 43.0521Z" fill="#E2E2E2"/>
<path d="M101.626 41.4566C101.604 41.4646 101.579 41.4646 101.557 41.4566L63.3724 19.0174C63.3417 18.9977 63.3194 18.9672 63.3099 18.932C63.3003 18.8967 63.3041 18.8592 63.3205 18.8266C63.3295 18.8106 63.3416 18.7965 63.356 18.7851C63.3705 18.7738 63.387 18.7655 63.4047 18.7606C63.4224 18.7558 63.4408 18.7545 63.459 18.7569C63.4772 18.7593 63.4947 18.7653 63.5106 18.7746L101.695 41.1705C101.711 41.1795 101.725 41.1916 101.736 41.2061C101.748 41.2206 101.756 41.2372 101.761 41.255C101.766 41.2727 101.767 41.2913 101.764 41.3095C101.762 41.3278 101.756 41.3453 101.747 41.3612C101.739 41.388 101.724 41.4117 101.702 41.4289C101.68 41.4461 101.654 41.4558 101.626 41.4566Z" fill="#E2E2E2"/>
<path d="M101.626 42.2717H101.557L63.3723 19.8844C63.3563 19.8754 63.3423 19.8633 63.331 19.8488C63.3197 19.8343 63.3115 19.8177 63.3066 19.7999C63.3018 19.7821 63.3005 19.7636 63.3029 19.7454C63.3053 19.7271 63.3113 19.7095 63.3205 19.6936C63.3295 19.6776 63.3415 19.6635 63.356 19.6522C63.3704 19.6408 63.387 19.6325 63.4047 19.6277C63.4223 19.6228 63.4408 19.6216 63.459 19.624C63.4772 19.6264 63.4947 19.6324 63.5105 19.6416L101.695 42.0375C101.711 42.0465 101.725 42.0586 101.736 42.0731C101.748 42.0877 101.756 42.1043 101.761 42.122C101.766 42.1398 101.767 42.1583 101.764 42.1766C101.762 42.1948 101.756 42.2124 101.747 42.2283C101.732 42.2448 101.713 42.2574 101.692 42.2649C101.671 42.2725 101.648 42.2748 101.626 42.2717Z" fill="#E2E2E2"/>
<path d="M101.626 43.0174C101.604 43.0253 101.579 43.0253 101.557 43.0174L63.3724 20.6301C63.3417 20.6104 63.3194 20.58 63.3099 20.5448C63.3003 20.5096 63.3041 20.472 63.3205 20.4394C63.3295 20.4234 63.3416 20.4092 63.356 20.3979C63.3705 20.3866 63.387 20.3783 63.4047 20.3734C63.4224 20.3686 63.4408 20.3673 63.459 20.3697C63.4772 20.3721 63.4947 20.3781 63.5106 20.3874L101.695 42.7833C101.711 42.7923 101.725 42.8044 101.736 42.8189C101.748 42.8334 101.756 42.85 101.761 42.8678C101.766 42.8855 101.767 42.9041 101.764 42.9223C101.762 42.9406 101.756 42.9581 101.747 42.9741C101.732 42.9912 101.713 43.0042 101.692 43.0118C101.671 43.0194 101.648 43.0213 101.626 43.0174Z" fill="#E2E2E2"/>
<path d="M101.626 43.8324H101.557L63.3723 21.4365C63.3563 21.4275 63.3423 21.4154 63.331 21.4009C63.3197 21.3863 63.3115 21.3697 63.3066 21.352C63.3018 21.3342 63.3005 21.3157 63.3029 21.2974C63.3053 21.2792 63.3113 21.2616 63.3205 21.2457C63.3295 21.2297 63.3415 21.2156 63.356 21.2043C63.3704 21.1929 63.387 21.1846 63.4047 21.1797C63.4223 21.1749 63.4408 21.1737 63.459 21.176C63.4772 21.1784 63.4947 21.1844 63.5105 21.1937L101.695 43.5896C101.711 43.5986 101.725 43.6107 101.736 43.6252C101.748 43.6397 101.756 43.6563 101.761 43.6741C101.766 43.6918 101.767 43.7104 101.764 43.7286C101.762 43.7469 101.756 43.7645 101.747 43.7804C101.733 43.7984 101.714 43.8127 101.693 43.8217C101.672 43.8308 101.649 43.8345 101.626 43.8324Z" fill="#E2E2E2"/>
<path d="M105.357 49.1387H105.288L59.9089 22.4856C59.8846 22.4598 59.8711 22.4257 59.8711 22.3902C59.8711 22.3547 59.8846 22.3206 59.9089 22.2948C59.9178 22.2798 59.9296 22.2667 59.9436 22.2563C59.9576 22.2459 59.9735 22.2385 59.9905 22.2345C60.0074 22.2304 60.0249 22.2298 60.0421 22.2328C60.0593 22.2357 60.0757 22.2421 60.0903 22.2515L105.461 48.8526C105.487 48.8672 105.508 48.89 105.52 48.9177C105.533 48.9453 105.536 48.9762 105.529 49.0056C105.522 49.0351 105.506 49.0615 105.483 49.0808C105.459 49.1002 105.43 49.1113 105.4 49.1127L105.357 49.1387Z" fill="#E2E2E2"/>
<path d="M101.626 44.5866C101.603 44.5939 101.579 44.5939 101.557 44.5866L63.3723 22.1994C63.3563 22.1904 63.3423 22.1782 63.331 22.1637C63.3197 22.1492 63.3115 22.1326 63.3066 22.1149C63.3018 22.0971 63.3005 22.0786 63.3029 22.0603C63.3053 22.0421 63.3113 22.0245 63.3205 22.0086C63.3295 21.9926 63.3415 21.9785 63.356 21.9671C63.3704 21.9558 63.387 21.9475 63.4047 21.9426C63.4223 21.9378 63.4408 21.9365 63.459 21.9389C63.4772 21.9413 63.4947 21.9473 63.5105 21.9566L101.695 44.3525C101.722 44.3675 101.743 44.3911 101.755 44.4196C101.767 44.448 101.77 44.4797 101.762 44.5096C101.754 44.5396 101.736 44.5659 101.711 44.5846C101.687 44.6032 101.657 44.6131 101.626 44.6126V44.5866Z" fill="#E2E2E2"/>
<path d="M101.626 45.3932H101.557L63.3723 22.9972C63.3563 22.9882 63.3423 22.9761 63.331 22.9616C63.3197 22.9471 63.3115 22.9305 63.3066 22.9128C63.3018 22.895 63.3005 22.8765 63.3029 22.8582C63.3053 22.84 63.3113 22.8224 63.3205 22.8065C63.3401 22.7757 63.3704 22.7534 63.4055 22.7437C63.4406 22.7341 63.4781 22.738 63.5105 22.7545L101.695 45.1504C101.711 45.1594 101.725 45.1715 101.736 45.186C101.748 45.2005 101.756 45.2171 101.761 45.2349C101.766 45.2526 101.767 45.2712 101.764 45.2894C101.762 45.3076 101.756 45.3252 101.747 45.3411C101.733 45.3592 101.714 45.3734 101.693 45.3825C101.672 45.3916 101.649 45.3953 101.626 45.3932Z" fill="#E2E2E2"/>
<path d="M101.626 46.1473C101.603 46.1546 101.579 46.1546 101.557 46.1473L63.3723 23.7601C63.3563 23.7511 63.3423 23.7389 63.331 23.7244C63.3197 23.7099 63.3115 23.6933 63.3066 23.6756C63.3018 23.6578 63.3005 23.6393 63.3029 23.621C63.3053 23.6028 63.3113 23.5852 63.3205 23.5693C63.3295 23.5533 63.3415 23.5392 63.356 23.5278C63.3704 23.5165 63.387 23.5082 63.4047 23.5033C63.4223 23.4985 63.4408 23.4972 63.459 23.4996C63.4772 23.502 63.4947 23.508 63.5105 23.5173L101.695 45.8959C101.722 45.9108 101.743 45.9344 101.755 45.9629C101.767 45.9914 101.77 46.0231 101.762 46.053C101.754 46.0829 101.736 46.1093 101.711 46.128C101.687 46.1466 101.657 46.1565 101.626 46.156V46.1473Z" fill="#E2E2E2"/>
<path d="M106.109 60.1417C106.109 60.2978 105.91 60.4192 105.659 60.4192C105.409 60.4192 105.219 60.2978 105.219 60.1417C105.219 59.9856 105.418 59.8729 105.659 59.8729C105.901 59.8729 106.109 59.9943 106.109 60.1417Z" fill="#0F0F0F"/>
<path d="M106.109 42.2544H105.219V60.133H106.109V42.2544Z" fill="#0F0F0F"/>
<path d="M106.109 42.2543C106.109 42.4017 105.91 42.5231 105.659 42.5231C105.409 42.5231 105.219 42.4017 105.219 42.2543C105.219 42.1069 105.418 41.9855 105.659 41.9855C105.901 41.9855 106.109 42.1069 106.109 42.2543Z" fill="#353535"/>
<path d="M67.1813 78.7398L27.6667 55.8323L98.0243 14.8382L98.1625 14.9162L137.703 37.867L137.297 38.1011L67.1813 78.7398ZM28.755 55.8323L67.1813 78.1069L136.615 37.867L98.0243 15.4711L28.755 55.8323Z" fill="white"/>
<path d="M64.8233 25.1735L64.5469 25.0694V18.8266L64.8233 18.9307V25.1735Z" fill="#E2E2E2"/>
<path d="M66.1362 25.9624L65.8684 25.8584V19.6156L66.1362 19.7196V25.9624Z" fill="#E2E2E2"/>
<path d="M67.3882 26.6821L67.1118 26.5781V20.3353L67.3882 20.4394V26.6821Z" fill="#E2E2E2"/>
<path d="M68.7012 27.4711L68.4248 27.367V21.1243L68.7012 21.2283V27.4711Z" fill="#E2E2E2"/>
<path d="M70.0314 28.2429L69.7637 28.1388V21.8961L70.0314 22.0001V28.2429Z" fill="#E2E2E2"/>
<path d="M71.3444 29.0318L71.0767 28.9277V22.685L71.3444 22.789V29.0318Z" fill="#E2E2E2"/>
<path d="M72.5965 29.7515L72.3201 29.6475V23.4047L72.5965 23.5088V29.7515Z" fill="#E2E2E2"/>
<path d="M73.9093 30.5405L73.6416 30.4451V24.1937L73.9093 24.2977V30.5405Z" fill="#E2E2E2"/>
<path d="M75.231 31.3294L74.9546 31.2253V24.9826L75.231 25.0866V31.3294Z" fill="#E2E2E2"/>
<path d="M76.4746 32.0492L76.1982 31.9538V25.7023L76.4746 25.8064V32.0492Z" fill="#E2E2E2"/>
<path d="M77.7873 32.8383L77.5195 32.7429V26.4915L77.7873 26.5955V32.8383Z" fill="#E2E2E2"/>
<path d="M79.1262 33.6098L78.8499 33.5145V27.263L79.1262 27.3671V33.6098Z" fill="#E2E2E2"/>
<path d="M80.4392 34.3988L80.1628 34.3034V28.052L80.4392 28.156V34.3988Z" fill="#E2E2E2"/>
<path d="M81.6828 35.1185L81.415 35.0231V28.7717L81.6828 28.8757V35.1185Z" fill="#E2E2E2"/>
<path d="M83.0042 35.9161L82.7278 35.8121V29.5607L83.0042 29.6647V35.9161Z" fill="#E2E2E2"/>
<path d="M84.248 36.6358L83.9802 36.5318V30.2803L84.248 30.3844V36.6358Z" fill="#E2E2E2"/>
<path d="M85.561 37.4248L85.2932 37.3207V31.0693L85.561 31.1734V37.4248Z" fill="#E2E2E2"/>
<path d="M86.8997 38.1966L86.6233 38.0925V31.8411L86.8997 31.9451V38.1966Z" fill="#E2E2E2"/>
<path d="M88.2124 38.9855L87.936 38.8814V32.63L88.2124 32.734V38.9855Z" fill="#E2E2E2"/>
<path d="M89.4649 39.7052L89.1885 39.6012V33.3584L89.4649 33.4538V39.7052Z" fill="#E2E2E2"/>
<path d="M90.7779 40.4942L90.5015 40.3902V34.1387L90.7779 34.2428V40.4942Z" fill="#E2E2E2"/>
<path d="M92.0906 41.1965L91.8142 41.0925V34.8411L92.0906 34.9451V41.1965Z" fill="#E2E2E2"/>
<path d="M93.4292 41.9681L93.1528 41.8641V35.6213L93.4292 35.7167V41.9681Z" fill="#E2E2E2"/>
<path d="M94.8801 42.7573L94.6038 42.6533V36.4105L94.8801 36.5059V42.7573Z" fill="#E2E2E2"/>
<path d="M96.1931 43.6675L95.9167 43.5635V37.3207L96.1931 37.4248V43.6675Z" fill="#E2E2E2"/>
<path d="M97.6441 44.448L97.3677 44.3439V38.0925L97.6441 38.1966V44.448Z" fill="#E2E2E2"/>
<path d="M99.026 45.2456L98.7583 45.1415V38.8988L99.026 39.0028V45.2456Z" fill="#E2E2E2"/>
<path d="M100.348 46.0348L100.071 45.9307V39.688L100.348 39.7834V46.0348Z" fill="#E2E2E2"/>
<path d="M101.764 40.5376H101.488V46.7804H101.764V40.5376Z" fill="#E2E2E2"/>
<path d="M63.5796 18.1763H63.3032V24.4191H63.5796V18.1763Z" fill="#E2E2E2"/>
</g>
<defs>
<filter id="filter0_d" x="0" y="0" width="166" height="106" filterUnits="userSpaceOnUse" color-interpolation-filters="sRGB">
<feFlood flood-opacity="0" result="BackgroundImageFix"/>
<feColorMatrix in="SourceAlpha" type="matrix" values="0 0 0 0 0 0 0 0 0 0 0 0 0 0 0 0 0 0 127 0" result="hardAlpha"/>
<feOffset dy="4"/>
<feGaussianBlur stdDeviation="4"/>
<feComposite in2="hardAlpha" operator="out"/>
<feColorMatrix type="matrix" values="0 0 0 0 0 0 0 0 0 0 0 0 0 0 0 0 0 0 0.5 0"/>
<feBlend mode="normal" in2="BackgroundImageFix" result="effect1_dropShadow"/>
<feBlend mode="normal" in="SourceGraphic" in2="effect1_dropShadow" result="shape"/>
</filter>
</defs>
</svg>
