<svg width="166" height="123" viewBox="0 0 166 123" fill="none" xmlns="http://www.w3.org/2000/svg">
<g filter="url(#filter0_d)">
<path d="M8 72.6497L69.7462 107.991L158 57.4914L96.0547 22.0048L8 72.6497Z" fill="#D3D3D3"/>
<path d="M69.7466 107.991V111L158 60.5008V57.4915L69.7466 107.991Z" fill="#8B969C"/>
<path d="M8 72.6498V75.6849L69.7462 111V107.991L8 72.6498Z" fill="#A9B4B9"/>
<path d="M28.2112 73.2585L67.1815 95.593L137.159 55.4938L98.0244 33.0307L28.2112 73.2585Z" fill="#535353"/>
<path d="M67.181 95.9102L27.6665 73.2584L98.0239 32.722L98.1621 32.7991L137.702 55.4937L137.297 55.7252L67.181 95.9102ZM28.7548 73.2584L67.181 95.2843L136.614 55.4937L98.0239 33.3478L28.7548 73.2584Z" fill="white"/>
<path d="M80.0094 50.2231L77.8123 48.9446L79.753 47.8223L81.9443 49.1008L80.0094 50.2231Z" fill="#2B333B"/>
<path d="M81.9439 49.1008V50.2347L80.009 51.357V50.2231L81.9439 49.1008Z" fill="#131719"/>
<path d="M77.8123 48.9446V50.0843L80.0094 51.357V50.2231L77.8123 48.9446Z" fill="#20262B"/>
<path d="M79.9915 34.5856L78.0974 33.4864L79.77 32.5203L81.6583 33.6195L79.9915 34.5856Z" fill="#2B333B"/>
<path d="M81.6585 33.6195V49.1008L79.9917 50.0669V34.5856L81.6585 33.6195Z" fill="#131719"/>
<path d="M78.0974 33.4864V48.9678L79.9915 50.067V34.5856L78.0974 33.4864Z" fill="#20262B"/>
<path d="M79.951 9.19993L78.7388 8.49991L79.8053 7.87511L81.0175 8.58091L79.951 9.19993Z" fill="#D9D9D9"/>
<path d="M81.0174 8.58092V33.631L79.9509 34.2501V9.19993L81.0174 8.58092Z" fill="#A1A1A1"/>
<path d="M78.7388 8.49992V33.5443L79.951 34.2501V9.19993L78.7388 8.49992Z" fill="#BFBFBF"/>
<path d="M78.5462 18.8613L79.9508 17.9704V17.01L77.8294 17.8952L77.334 18.2134L78.5462 18.8613Z" fill="#A1A1A1"/>
<path d="M78.5462 17.849L79.9508 17.0101L78.7385 16.3564L77.334 17.1952L78.5462 17.849Z" fill="#D9D9D9"/>
<path d="M78.5462 17.8489V18.8613L77.334 18.2134V17.1952L78.5462 17.8489Z" fill="#BFBFBF"/>
<path d="M87.9526 51.7042V53.1216L109.213 65.259V63.8358L87.9526 51.7042Z" fill="#BFBFBF"/>
<path d="M110.198 63.2978V64.7152L109.213 65.259V63.8358L110.198 63.2978Z" fill="#A1A1A1"/>
<path d="M88.9551 51.1025L110.198 63.2978L109.213 63.8358L87.9526 51.7041L88.9551 51.1025Z" fill="#D9D9D9"/>
<path d="M79.9917 36.8013V39.1675L107.407 54.967V52.6066L79.9917 36.8013Z" fill="#20262B"/>
<path d="M109.05 51.7042V54.0646L107.407 54.9671V52.6067L109.05 51.7042Z" fill="#A1A1A1"/>
<path d="M81.6527 35.8063L109.05 51.7041L107.407 52.6066L79.9917 36.8013L81.6527 35.8063Z" fill="#2B333B"/>
<path d="M94.9579 55.7192V57.1424L59.04 77.628V76.2048L94.9579 55.7192Z" fill="#A1A1A1"/>
<path d="M58.0493 75.6609V77.0841L59.0401 77.628V76.2048L58.0493 75.6609Z" fill="#BFBFBF"/>
<path d="M93.9555 55.1176L58.0493 75.661L59.0401 76.2048L94.958 55.7192L93.9555 55.1176Z" fill="#D9D9D9"/>
<path d="M57.9969 81.3363L55.9688 80.1561L57.7579 79.1205L59.7861 80.3007L57.9969 81.3363Z" fill="#2B333B"/>
<path d="M59.7858 80.3008V81.3479L57.9966 82.3835V81.3363L59.7858 80.3008Z" fill="#131719"/>
<path d="M55.9688 80.1562V81.2091L57.9969 82.3835V81.3363L55.9688 80.1562Z" fill="#20262B"/>
<path d="M57.9676 66.0343L56.4407 65.1434L57.7869 64.3624L59.3139 65.2533L57.9676 66.0343Z" fill="#D9D9D9"/>
<path d="M59.314 65.2533V80.3181L57.9678 81.0933V66.0343L59.314 65.2533Z" fill="#A1A1A1"/>
<path d="M56.4407 65.1433V80.1849L57.9676 81.0759V66.0342L56.4407 65.1433ZM57.21 72.4385C57.032 72.3116 56.8865 72.145 56.7852 71.952C56.684 71.7591 56.6299 71.5452 56.6272 71.3277C56.6272 70.9054 56.8894 70.7087 57.21 70.8938C57.3875 71.0198 57.5328 71.1854 57.634 71.3774C57.7352 71.5693 57.7896 71.7822 57.7928 71.9988C57.7869 72.4211 57.5305 72.6178 57.21 72.4385ZM57.21 69.6731C57.0322 69.5487 56.8867 69.3842 56.7854 69.1931C56.684 69.002 56.6298 68.7898 56.6272 68.5739C56.6272 68.1458 56.8894 67.9549 57.21 68.14C57.3874 68.2648 57.5327 68.4293 57.634 68.6204C57.7352 68.8114 57.7896 69.0234 57.7928 69.2392C57.7869 69.6847 57.5305 69.864 57.21 69.6847V69.6731Z" fill="#BFBFBF"/>
<path d="M57.6703 72.1145C57.4931 71.9882 57.3481 71.8225 57.2469 71.6307C57.1457 71.4388 57.0911 71.2261 57.0875 71.0095C57.0815 70.9557 57.0815 70.9014 57.0875 70.8476C56.8136 70.755 56.6038 70.9517 56.6038 71.3277C56.6074 71.5443 56.6619 71.757 56.7631 71.9488C56.8643 72.1407 57.0093 72.3064 57.1866 72.4327C57.4663 72.5947 57.6936 72.4674 57.7694 72.1608L57.6703 72.1145Z" fill="#8C8C8C"/>
<path d="M57.6703 69.3549C57.4932 69.2298 57.3482 69.0652 57.2469 68.8742C57.1457 68.6833 57.0911 68.4714 57.0875 68.2557C57.0808 68.2019 57.0808 68.1475 57.0875 68.0937C56.8136 68.0011 56.6038 68.192 56.6038 68.5739C56.6078 68.7903 56.6626 69.0029 56.7637 69.1947C56.8649 69.3864 57.0097 69.5522 57.1866 69.6788C57.4663 69.835 57.6936 69.7136 57.7694 69.4012C57.7344 69.3902 57.7011 69.3746 57.6703 69.3549Z" fill="#8C8C8C"/>
<path d="M63.2534 71.0212L52.9961 65.0913L92.8129 42.0892L103.07 48.0885L63.2534 71.0212Z" fill="black"/>
<path d="M63.2534 68.5971L52.9961 62.6672L92.8129 39.7345L103.07 45.6644L63.2534 68.5971Z" fill="#D9D9D9"/>
<path d="M103.07 45.6644V48.0884L63.2537 71.0211V68.5971L103.07 45.6644Z" fill="#A1A1A1"/>
<path d="M52.9961 62.6673V65.0914L63.2534 71.0212V68.5972L52.9961 62.6673Z" fill="#BFBFBF"/>
<path d="M104.073 44.2298V45.3868C104.079 45.429 104.079 45.4719 104.073 45.5141V45.6009C104.015 46.324 103.49 47.0761 102.43 47.672L67.7998 67.9204C67.4052 68.142 66.9893 68.3242 66.5584 68.4642C65.0497 68.9621 63.4247 68.9964 61.896 68.5625C61.6043 68.4703 61.323 68.3482 61.0568 68.198L53.2764 63.6856C52.9514 63.5361 52.6722 63.3036 52.4674 63.0118C52.2627 62.7201 52.1396 62.3796 52.1108 62.0252V60.6078H52.7344C53.0384 60.2961 53.3858 60.0292 53.766 59.8152L54.4537 59.4218L88.3901 39.5668C90.3891 38.4098 93.4138 38.2941 95.1447 39.2892L102.925 43.7959C103.256 43.9805 103.544 44.2329 103.77 44.5364L104.073 44.2298Z" fill="#B31F00"/>
<path d="M61.8841 59.3696V68.5276C61.5923 68.4355 61.311 68.3133 61.0448 68.1632L53.2645 63.6507C52.9395 63.5012 52.6603 63.2687 52.4555 62.977C52.2507 62.6852 52.1276 62.3447 52.0989 61.9903V60.5729H52.7225C53.0265 60.2612 53.3738 59.9943 53.754 59.7804L54.4417 59.387L61.8841 59.3696Z" fill="#E63515"/>
<path d="M66.5523 65.9359V68.412C65.0436 68.9099 63.4186 68.9442 61.8899 68.5104V65.9359H66.5523Z" fill="#BD2A0B"/>
<path d="M61.0392 66.931L53.2646 62.4243C51.5162 61.4292 51.7493 59.6994 53.7483 58.5482L88.3724 38.2998C90.3714 37.1427 93.3961 37.0328 95.127 38.0221L102.907 42.5346C104.656 43.5239 104.423 45.2594 102.424 46.4049L67.7938 66.6533C65.7948 67.7988 62.7701 67.9492 61.0392 66.931Z" fill="#F93A17"/>
<path d="M108.887 66.6706L106.696 65.3921L108.637 64.2697L110.828 65.5483L108.887 66.6706Z" fill="#2B333B"/>
<path d="M110.828 65.5484V66.6823L108.887 67.8046V66.6707L110.828 65.5484Z" fill="#131719"/>
<path d="M106.696 65.3921V66.5318L108.887 67.8046V66.6707L106.696 65.3921Z" fill="#20262B"/>
<path d="M108.87 51.0331L106.981 49.9339L108.654 48.9677L110.542 50.0669L108.87 51.0331Z" fill="#2B333B"/>
<path d="M110.542 50.0671V65.5484L108.869 66.5145V51.0332L110.542 50.0671Z" fill="#131719"/>
<path d="M106.981 49.934V65.4153L108.87 66.5145V51.0332L106.981 49.934Z" fill="#20262B"/>
<path d="M108.835 25.6475L107.622 24.9475L108.689 24.3227L109.901 25.0285L108.835 25.6475Z" fill="#D9D9D9"/>
<path d="M109.901 25.0285V50.0786L108.834 50.6976V25.6475L109.901 25.0285Z" fill="#A1A1A1"/>
<path d="M107.622 24.9474V49.9918L108.835 50.6976V25.6474L107.622 24.9474Z" fill="#BFBFBF"/>
<path d="M107.43 34.9444L108.834 34.0534V33.0873L106.713 33.9782L106.217 34.2906L107.43 34.9444Z" fill="#A1A1A1"/>
<path d="M107.43 33.9262L108.834 33.0873L107.622 32.4336L106.217 33.2782L107.43 33.9262Z" fill="#D9D9D9"/>
<path d="M107.429 33.9262V34.9444L106.217 34.2907V33.2783L107.429 33.9262Z" fill="#BFBFBF"/>
<path d="M107.43 43.466L108.834 42.5751V41.6089L106.713 42.4999L106.217 42.8123L107.43 43.466Z" fill="#A1A1A1"/>
<path d="M107.43 42.4536L108.834 41.609L107.622 40.9553L106.217 41.7999L107.43 42.4536Z" fill="#D9D9D9"/>
<path d="M107.429 42.4536V43.466L106.217 42.8123V41.7999L107.429 42.4536Z" fill="#BFBFBF"/>
<path d="M107.43 42.4536L107.622 42.3321V41.3659L106.713 41.4816L106.217 41.7998L107.43 42.4536Z" fill="#A1A1A1"/>
<path d="M107.43 41.4353L107.622 41.3659L106.41 40.7122L106.217 40.7816L107.43 41.4353Z" fill="#D9D9D9"/>
<path d="M107.429 41.4354V42.4536L106.217 41.7998V40.7816L107.429 41.4354Z" fill="#BFBFBF"/>
<path d="M78.5462 29.7782L79.9508 28.8872V27.9211L77.8294 28.812L77.334 29.1244L78.5462 29.7782Z" fill="#A1A1A1"/>
<path d="M78.5462 28.7657L79.9508 27.921L78.7385 27.2731L77.334 28.1119L78.5462 28.7657Z" fill="#D9D9D9"/>
<path d="M78.5462 28.7656V29.778L77.334 29.1243V28.1119L78.5462 28.7656Z" fill="#BFBFBF"/>
<path d="M78.5462 28.7656L78.7385 28.6441V27.6838L77.8294 27.7937L77.334 28.1119L78.5462 28.7656Z" fill="#A1A1A1"/>
<path d="M78.5462 27.7475L78.7385 27.6838L77.5205 27.0301L77.334 27.0938L78.5462 27.7475Z" fill="#D9D9D9"/>
<path d="M78.5462 27.7474V28.7656L77.334 28.1119V27.0937L78.5462 27.7474Z" fill="#BFBFBF"/>
<path d="M66.6106 10.2702L67.3683 8.63302L64.4076 6.89744C64.3479 6.85862 64.278 6.83794 64.2066 6.83794C64.1351 6.83794 64.0653 6.85862 64.0055 6.89744C63.8274 7.02555 63.6819 7.19324 63.5807 7.38711C63.4795 7.58098 63.4254 7.79566 63.4227 8.01399C63.4165 8.09822 63.4289 8.18279 63.4591 8.26175C63.4893 8.3407 63.5366 8.41214 63.5975 8.47103L63.65 8.49996L66.6106 10.2702Z" fill="url(#paint0_linear)"/>
<path d="M67.5955 9.12467C67.5928 9.343 67.5387 9.55768 67.4375 9.75155C67.3363 9.94542 67.1909 10.1131 67.0127 10.2412C66.6864 10.4321 66.4299 10.2412 66.4299 9.80154C66.4322 9.58231 66.4861 9.36664 66.5873 9.17176C66.6884 8.97689 66.8342 8.80821 67.0127 8.6792C67.3333 8.49407 67.5955 8.69077 67.5955 9.12467Z" fill="#B5B5B5"/>
<path d="M66.2612 9.71488C66.2643 9.49663 66.3186 9.28212 66.4198 9.08832C66.5209 8.89452 66.6662 8.72676 66.844 8.59833C66.8934 8.56399 66.9504 8.54186 67.0102 8.53381C67.07 8.52576 67.1309 8.53202 67.1878 8.55205C67.1272 8.50466 67.0523 8.4789 66.9751 8.4789C66.8979 8.4789 66.823 8.50466 66.7624 8.55205C66.5841 8.68138 66.4387 8.85013 66.3375 9.04493C66.2363 9.23974 66.1823 9.45525 66.1796 9.67439C66.1656 9.76984 66.181 9.86725 66.2236 9.95393C66.2662 10.0406 66.3341 10.1125 66.4185 10.1603C66.3622 10.1013 66.3191 10.031 66.292 9.95427C66.2649 9.87751 66.2544 9.79594 66.2612 9.71488Z" fill="#737373"/>
<path d="M66.0689 9.60499C66.072 9.38593 66.1263 9.17059 66.2274 8.97585C66.3285 8.78112 66.4737 8.6123 66.6517 8.48266C66.7022 8.44825 66.7602 8.42612 66.8209 8.41808C66.8817 8.41004 66.9435 8.41631 67.0013 8.43638C66.9386 8.39122 66.8632 8.3669 66.7857 8.3669C66.7082 8.3669 66.6328 8.39122 66.5701 8.43638C66.3923 8.5648 66.247 8.73256 66.1459 8.92636C66.0447 9.12016 65.9904 9.33468 65.9873 9.55293C65.9734 9.64983 65.9894 9.74862 66.0331 9.83636C66.0768 9.92411 66.1461 9.99671 66.232 10.0447C66.1754 9.98674 66.1317 9.91769 66.1036 9.84197C66.0755 9.76625 66.0637 9.68553 66.0689 9.60499Z" fill="#737373"/>
<path d="M65.8821 9.51808C65.8853 9.29983 65.9396 9.08531 66.0407 8.89151C66.1419 8.69771 66.2871 8.52996 66.4649 8.40153C66.5144 8.36718 66.5714 8.34506 66.6312 8.33701C66.691 8.32896 66.7519 8.33521 66.8088 8.35525C66.7473 8.30971 66.6727 8.2851 66.5961 8.2851C66.5194 8.2851 66.4448 8.30971 66.3833 8.35525C66.2054 8.48489 66.0602 8.6537 65.9591 8.84844C65.858 9.04317 65.8037 9.25852 65.8005 9.47758C65.8005 9.73791 65.8938 9.91148 66.0395 9.96933C65.9824 9.90956 65.9389 9.83839 65.9117 9.76057C65.8846 9.68275 65.8745 9.60008 65.8821 9.51808Z" fill="#737373"/>
<path d="M65.6895 9.37935C65.6926 9.1611 65.7469 8.94658 65.8481 8.75278C65.9492 8.55898 66.0945 8.39122 66.2723 8.2628C66.3228 8.22838 66.3808 8.20626 66.4415 8.19822C66.5023 8.19018 66.5641 8.19645 66.6219 8.21651C66.56 8.1696 66.4842 8.14418 66.4063 8.14418C66.3284 8.14418 66.2526 8.1696 66.1907 8.21651C66.0124 8.34584 65.867 8.51459 65.7658 8.70939C65.6646 8.9042 65.6106 9.11971 65.6079 9.33885C65.5953 9.43484 65.6118 9.53238 65.6554 9.61896C65.6991 9.70554 65.7677 9.77722 65.8526 9.82481C65.7953 9.76621 65.7511 9.69621 65.723 9.61943C65.6949 9.54265 65.6834 9.46083 65.6895 9.37935Z" fill="#737373"/>
<path d="M65.5032 9.26935C65.5064 9.05029 65.5606 8.83494 65.6618 8.6402C65.7629 8.44547 65.9081 8.27665 66.086 8.14701C66.1355 8.11267 66.1925 8.09054 66.2523 8.08249C66.3121 8.07444 66.373 8.0807 66.4299 8.10073C66.3684 8.05519 66.2938 8.03058 66.2172 8.03058C66.1405 8.03058 66.0659 8.05519 66.0044 8.10073C65.8266 8.22916 65.6814 8.39691 65.5802 8.59072C65.4791 8.78452 65.4248 8.99903 65.4216 9.21728C65.4216 9.47762 65.5149 9.65118 65.6606 9.70903C65.605 9.6506 65.5624 9.58133 65.5353 9.50563C65.5082 9.42993 65.4973 9.34947 65.5032 9.26935Z" fill="#737373"/>
<path d="M65.3108 9.15375C65.314 8.9355 65.3683 8.72099 65.4694 8.52719C65.5706 8.33339 65.7158 8.16563 65.8936 8.0372C65.9441 8.00279 66.0021 7.98067 66.0629 7.97263C66.1236 7.96459 66.1854 7.97085 66.2433 7.99092C66.1809 7.9449 66.1053 7.92004 66.0276 7.92004C65.95 7.92004 65.8743 7.9449 65.812 7.99092C65.6341 8.12056 65.4889 8.28937 65.3877 8.48411C65.2866 8.67884 65.2324 8.8942 65.2292 9.11326C65.2154 9.21016 65.2313 9.30895 65.275 9.39669C65.3187 9.48443 65.388 9.55703 65.474 9.605C65.4159 9.54573 65.3712 9.47479 65.3431 9.39695C65.3149 9.31911 65.3039 9.23618 65.3108 9.15375Z" fill="#737373"/>
<path d="M65.1535 9.04383C65.1562 8.82549 65.2103 8.61082 65.3115 8.41694C65.4127 8.22307 65.5582 8.05538 65.7363 7.92728C65.7871 7.89349 65.8448 7.8713 65.9052 7.8623C65.9657 7.8533 66.0274 7.85771 66.086 7.87521C66.0236 7.82919 65.948 7.80434 65.8703 7.80434C65.7927 7.80434 65.717 7.82919 65.6547 7.87521C65.4761 8.00422 65.3304 8.1729 65.2292 8.36778C65.128 8.56265 65.0742 8.77832 65.0719 8.99755C65.058 9.09301 65.0733 9.19042 65.1159 9.2771C65.1585 9.36378 65.2265 9.4357 65.3109 9.48351C65.2553 9.42509 65.2126 9.35581 65.1855 9.28012C65.1584 9.20442 65.1475 9.12394 65.1535 9.04383Z" fill="#737373"/>
<path d="M64.9321 8.93957C64.9353 8.72051 64.9896 8.50516 65.0907 8.31042C65.1918 8.11569 65.337 7.94687 65.5149 7.81723C65.5655 7.78282 65.6235 7.7607 65.6842 7.75266C65.745 7.74462 65.8068 7.75088 65.8646 7.77095C65.8019 7.72579 65.7264 7.70148 65.649 7.70148C65.5715 7.70148 65.496 7.72579 65.4333 7.77095C65.2555 7.89937 65.1103 8.06713 65.0092 8.26093C64.908 8.45474 64.8537 8.66926 64.8505 8.88751C64.8367 8.98441 64.8527 9.08319 64.8964 9.17093C64.94 9.25868 65.0094 9.33128 65.0953 9.37925C65.0387 9.32131 64.995 9.25227 64.9669 9.17655C64.9388 9.10083 64.9269 9.0201 64.9321 8.93957Z" fill="#737373"/>
<path d="M64.7457 8.81811C64.7484 8.59978 64.8025 8.3851 64.9037 8.19123C65.0049 7.99736 65.1503 7.82967 65.3285 7.70156C65.379 7.66715 65.437 7.64503 65.4977 7.63699C65.5585 7.62895 65.6203 7.63521 65.6781 7.65528C65.6158 7.60926 65.5402 7.58441 65.4625 7.58441C65.3848 7.58441 65.3092 7.60926 65.2469 7.65528C65.0686 7.7846 64.9232 7.95335 64.822 8.14816C64.7208 8.34296 64.6668 8.55847 64.6641 8.77762C64.6641 9.03796 64.7573 9.21152 64.903 9.26937C64.8459 9.2096 64.8024 9.13842 64.7752 9.06061C64.7481 8.98279 64.738 8.90011 64.7457 8.81811Z" fill="#737373"/>
<path d="M64.5708 8.70823C64.574 8.48917 64.6282 8.27381 64.7293 8.07908C64.8305 7.88434 64.9757 7.71553 65.1536 7.58589C65.2053 7.55414 65.2632 7.53361 65.3235 7.52563C65.3837 7.51765 65.445 7.52242 65.5033 7.53961C65.4406 7.49445 65.3651 7.47012 65.2876 7.47012C65.2102 7.47012 65.1347 7.49445 65.072 7.53961C64.8938 7.66893 64.7483 7.83768 64.6471 8.03248C64.546 8.22729 64.4919 8.4428 64.4892 8.66194C64.4766 8.75793 64.4932 8.85547 64.5368 8.94205C64.5804 9.02863 64.6491 9.10031 64.734 9.1479C64.6774 9.08997 64.6336 9.02092 64.6055 8.9452C64.5774 8.86947 64.5656 8.78876 64.5708 8.70823Z" fill="#737373"/>
<path d="M64.3667 8.59836C64.369 8.37913 64.4228 8.16345 64.524 7.96858C64.6252 7.7737 64.7709 7.60502 64.9495 7.47602C65 7.4416 65.058 7.41948 65.1188 7.41144C65.1795 7.4034 65.2413 7.40967 65.2992 7.42973C65.2369 7.38371 65.1612 7.35886 65.0836 7.35886C65.0059 7.35886 64.9302 7.38371 64.8679 7.42973C64.6901 7.55816 64.5449 7.72592 64.4437 7.91972C64.3426 8.11352 64.2883 8.32804 64.2851 8.54629C64.2713 8.64319 64.2873 8.74198 64.3309 8.82972C64.3746 8.91746 64.444 8.99006 64.5299 9.03803C64.4733 8.98009 64.4296 8.91104 64.4014 8.83532C64.3733 8.7596 64.3615 8.67889 64.3667 8.59836Z" fill="#737373"/>
<path d="M64.1744 8.48266C64.1775 8.26442 64.2318 8.04989 64.333 7.85609C64.4341 7.66229 64.5794 7.49453 64.7572 7.36611C64.8066 7.33176 64.8636 7.30964 64.9234 7.30159C64.9832 7.29354 65.0441 7.29979 65.101 7.31982C65.0396 7.27428 64.965 7.24968 64.8883 7.24968C64.8116 7.24968 64.737 7.27428 64.6756 7.31982C64.4977 7.44946 64.3524 7.61828 64.2513 7.81301C64.1502 8.00775 64.0959 8.2231 64.0928 8.44216C64.0928 8.7025 64.186 8.87606 64.3375 8.93391C64.2794 8.87465 64.2348 8.8037 64.2067 8.72586C64.1785 8.64801 64.1675 8.56509 64.1744 8.48266Z" fill="#737373"/>
<path d="M63.988 8.36109C63.9907 8.14275 64.0448 7.92808 64.146 7.73421C64.2472 7.54033 64.3927 7.37265 64.5708 7.24454C64.6216 7.21076 64.6793 7.18856 64.7398 7.17956C64.8003 7.17056 64.862 7.17496 64.9205 7.19247C64.8582 7.14645 64.7826 7.1216 64.7049 7.1216C64.6272 7.1216 64.5516 7.14645 64.4892 7.19247C64.311 7.32179 64.1655 7.49054 64.0644 7.68534C63.9632 7.88015 63.9092 8.09566 63.9064 8.3148C63.8938 8.41079 63.9104 8.50833 63.954 8.59491C63.9976 8.68149 64.0663 8.75317 64.1512 8.80076C64.0946 8.74283 64.0509 8.67379 64.0228 8.59806C63.9947 8.52234 63.9828 8.44162 63.988 8.36109Z" fill="#737373"/>
<path d="M63.7957 8.26272C63.7984 8.04358 63.8525 7.82807 63.9536 7.63326C64.0548 7.43846 64.2003 7.26971 64.3785 7.14038C64.428 7.10603 64.485 7.08391 64.5448 7.07586C64.6046 7.06781 64.6655 7.07406 64.7224 7.0941C64.6609 7.04856 64.5863 7.02396 64.5096 7.02396C64.433 7.02396 64.3583 7.04856 64.2969 7.0941C64.1191 7.22253 63.9739 7.39028 63.8727 7.58408C63.7716 7.77789 63.7173 7.99241 63.7141 8.21066C63.7141 8.47099 63.8074 8.64455 63.9531 8.7024C63.8975 8.64397 63.8548 8.57471 63.8277 8.49901C63.8007 8.42331 63.7897 8.34284 63.7957 8.26272Z" fill="#737373"/>
<path d="M63.6033 8.14713C63.6064 7.92888 63.6607 7.71436 63.7619 7.52056C63.8631 7.32676 64.0083 7.159 64.1861 7.03057C64.2366 6.99616 64.2946 6.97404 64.3554 6.966C64.4161 6.95796 64.4779 6.96422 64.5358 6.98429C64.4734 6.93827 64.3978 6.91342 64.3201 6.91342C64.2424 6.91342 64.1668 6.93827 64.1045 6.98429C63.9266 7.11393 63.7814 7.28274 63.6802 7.47748C63.5791 7.67221 63.5248 7.88757 63.5217 8.10663C63.5087 8.20346 63.525 8.30195 63.5686 8.38953C63.6122 8.47711 63.6811 8.54982 63.7665 8.59838C63.7084 8.53911 63.6637 8.46816 63.6356 8.39032C63.6074 8.31248 63.5964 8.22955 63.6033 8.14713Z" fill="#737373"/>
<path d="M66.3194 16.8135L71.9784 4.76285L71.4597 4.38103C70.6787 3.87192 69.6355 3.87771 68.4874 4.53723C66.0688 5.9199 64.1106 9.63403 64.1106 12.8333C64.1106 14.4474 64.6118 15.6218 65.4219 16.2061L65.5443 16.2929C65.7774 16.4317 65.7599 16.4375 65.9872 16.5879L66.3194 16.8135Z" fill="url(#paint1_linear)"/>
<path d="M73.6682 8.36113C73.6682 11.5604 71.71 15.2745 69.2914 16.6572C66.8728 18.0398 64.9204 16.5704 64.9204 13.3712C64.9204 10.1719 66.8786 6.46357 69.2914 5.07511C71.7042 3.68665 73.6682 5.16188 73.6682 8.36113Z" fill="#BE2F12"/>
<path d="M67.6307 18.3001L73.8899 4.99404L73.0041 4.41551C72.1416 3.83699 70.9876 3.83699 69.7171 4.57751C67.0479 6.1106 64.8799 10.2181 64.8799 13.7529C64.8799 15.5406 65.4335 16.8364 66.3311 17.4844C66.3734 17.5185 66.4182 17.5495 66.4651 17.577C66.7215 17.7332 67.0129 17.9183 67.2635 18.0861L67.6307 18.3001Z" fill="url(#paint2_linear)"/>
<path d="M75.7601 8.93965C75.7601 12.4744 73.5921 16.582 70.9229 18.1093C68.2537 19.6366 66.0857 18.0167 66.0857 14.4819C66.0857 10.9471 68.2537 6.8396 70.9229 5.31229C73.5921 3.78499 75.7601 5.41643 75.7601 8.93965Z" fill="#BE3013"/>
<path d="M69.0056 17.9646C67.6826 17.9646 66.8259 16.6051 66.8259 14.4935C66.8259 11.2016 68.8308 7.37181 71.296 5.96021C71.7601 5.6637 72.2949 5.49407 72.8462 5.46846C74.1692 5.46846 75.0201 6.83378 75.0201 8.93961C75.0201 12.2372 73.0152 16.067 70.5558 17.4786C70.0897 17.7702 69.5558 17.9375 69.0056 17.9646Z" fill="#AF2D11"/>
<path d="M73.4759 5.60155C74.2918 6.07015 74.7872 7.23878 74.7872 8.84129C74.7872 12.1331 72.7824 15.9629 70.3171 17.3745C69.8518 17.667 69.3171 17.8326 68.7669 17.8547C68.551 17.8564 68.337 17.8151 68.1375 17.7332C68.4004 17.887 68.7006 17.967 69.0058 17.9646C69.555 17.9411 70.0888 17.7777 70.5561 17.4902C73.0155 16.0786 75.0203 12.2488 75.0203 8.95121C75.0203 7.20407 74.4317 5.9718 73.4759 5.60155Z" fill="url(#paint3_linear)"/>
<path d="M69.3613 19.7985L76.0635 5.53211L74.7697 4.66432C73.8431 4.05687 72.6075 4.08579 71.2729 4.84366C68.4172 6.48089 66.0977 10.8835 66.0977 14.6786C66.0977 16.5935 66.6805 17.982 67.6479 18.6762C67.6941 18.7123 67.7428 18.7451 67.7936 18.7745C68.0675 18.9423 68.7261 19.3531 69 19.544L69.3613 19.7985Z" fill="url(#paint4_linear)"/>
<path d="M78.0685 9.79012C78.0685 13.5737 75.7373 17.9705 72.8874 19.625C70.0375 21.2796 67.7122 19.5209 67.7122 15.7374C67.7122 11.9538 70.0434 7.55701 72.8874 5.90243C75.7315 4.24785 78.0685 6.00656 78.0685 9.79012Z" fill="#CC2D0C"/>
<path d="M70.8358 19.4457C69.4196 19.4457 68.5046 17.982 68.5046 15.7258C68.5046 12.1968 70.6552 8.09502 73.2894 6.58507C73.7842 6.26504 74.3549 6.07953 74.9446 6.04704C76.3608 6.04704 77.2758 7.51071 77.2758 9.76695C77.2758 13.296 75.1311 17.3977 72.491 18.9076C71.9969 19.2292 71.4258 19.4148 70.8358 19.4457Z" fill="#BD2A0B"/>
<path d="M75.6438 6.19745C76.518 6.70655 77.0483 7.93302 77.0483 9.6686C77.0483 13.1976 74.9036 17.2993 72.2635 18.8093C71.7651 19.1229 71.1922 19.3005 70.6026 19.3242C70.3712 19.3239 70.1419 19.2807 69.9265 19.1969C70.2087 19.3625 70.5311 19.4486 70.859 19.4457C71.4468 19.4218 72.0177 19.2441 72.5141 18.9308C75.1542 17.4208 77.2989 13.3191 77.2989 9.79009C77.2756 7.91567 76.6462 6.62556 75.6438 6.19745Z" fill="url(#paint5_linear)"/>
<path d="M72.9923 14.401L74.0646 12.0406L73.1962 11.5662C73.1069 11.514 73.0041 11.4888 72.9005 11.494C72.7969 11.4991 72.6971 11.5343 72.6134 11.5952C72.3545 11.7795 72.1426 12.0215 71.9948 12.3018C71.847 12.5821 71.7675 12.8929 71.7626 13.2092C71.7505 13.3306 71.7675 13.453 71.812 13.5666C71.8566 13.6801 71.9275 13.7817 72.019 13.863C72.042 13.8817 72.0675 13.8973 72.0948 13.9093L72.9923 14.401Z" fill="url(#paint6_linear)"/>
<path d="M74.3968 12.7405C74.3905 13.0566 74.3104 13.3668 74.1628 13.6469C74.0151 13.927 73.804 14.1693 73.546 14.3546C73.0739 14.6265 72.6951 14.3546 72.6951 13.7182C72.6996 13.401 72.7789 13.0892 72.9266 12.8079C73.0744 12.5266 73.2865 12.2836 73.546 12.0983C74.0122 11.8322 74.3968 12.1157 74.3968 12.7405Z" fill="#B5B5B5"/>
<path d="M74.2333 12.9431C74.2263 13.1796 74.1643 13.4113 74.0521 13.6201C73.9399 13.8288 73.7805 14.009 73.5864 14.1464C73.2309 14.3489 72.9453 14.1464 72.9453 13.6604C72.9485 13.4214 73.0081 13.1863 73.1194 12.9743C73.2308 12.7623 73.3907 12.5792 73.5864 12.4397C73.9419 12.2546 74.2333 12.4687 74.2333 12.9431Z" fill="#666666"/>
<path d="M116.714 38.8205L117.472 37.1833L74.024 12.5323C73.964 12.4942 73.8942 12.4739 73.8229 12.4739C73.7516 12.4739 73.6819 12.4942 73.6218 12.5323C73.4433 12.6613 73.2976 12.83 73.1964 13.0249C73.0952 13.2198 73.0413 13.4354 73.039 13.6547C73.0336 13.7393 73.0469 13.8242 73.0781 13.9031C73.1093 13.9821 73.1577 14.0533 73.2197 14.1117L73.2722 14.1406L116.714 38.8205Z" fill="url(#paint7_linear)"/>
<path d="M117.699 37.6692C117.696 37.8883 117.642 38.1038 117.541 38.2986C117.439 38.4934 117.294 38.6622 117.116 38.7915C116.789 38.9767 116.533 38.7915 116.533 38.3461C116.536 38.1277 116.59 37.913 116.691 37.7192C116.792 37.5253 116.938 37.3576 117.116 37.2295C117.436 37.0386 117.699 37.2411 117.699 37.6692Z" fill="#B5B5B5"/>
<path d="M113.066 44.5189L119.768 30.2525L118.474 29.3847C117.547 28.7772 116.312 28.8061 114.948 29.564C112.092 31.207 109.773 35.6038 109.773 39.3989C109.773 41.3139 110.356 42.7023 111.323 43.3965L111.469 43.4891L112.675 44.2586L113.066 44.5189Z" fill="url(#paint8_linear)"/>
<path d="M121.773 34.5105C121.773 38.2999 119.441 42.6966 116.592 44.3454C113.742 45.9942 111.416 44.2471 111.416 40.4577C111.416 36.6684 113.747 32.2774 116.592 30.6228C119.436 28.9682 121.773 30.727 121.773 34.5105Z" fill="#CC2D0C"/>
<path d="M114.54 44.1661C113.124 44.1661 112.209 42.7082 112.209 40.4462C112.209 36.9171 114.36 32.8154 116.994 31.3055C117.493 30.9942 118.066 30.8186 118.655 30.7963C120.071 30.7963 120.986 32.2542 120.986 34.5105C120.986 38.0395 118.841 42.1412 116.201 43.6512C115.703 43.9655 115.13 44.1432 114.54 44.1661Z" fill="#BD2A0B"/>
<path d="M119.353 30.9236C120.228 31.4269 120.758 32.6592 120.758 34.3947C120.758 37.9237 118.613 42.0197 115.973 43.5354C115.473 43.8447 114.901 44.0201 114.312 44.0445C114.081 44.0442 113.852 44.0011 113.636 43.9173C113.918 44.0829 114.241 44.1689 114.569 44.166C115.156 44.1421 115.727 43.9645 116.224 43.6511C118.864 42.1412 121.009 38.0394 121.009 34.5104C120.979 32.6592 120.35 31.317 119.353 30.9236Z" fill="url(#paint9_linear)"/>
<path d="M114.96 44.9585L121.213 31.6524L120.333 31.0739C119.465 30.4954 118.311 30.4954 117.04 31.2417C114.371 32.769 112.203 36.8765 112.203 40.4113C112.203 42.199 112.786 43.4949 113.654 44.1428L113.788 44.2354L114.593 44.7445L114.96 44.9585Z" fill="url(#paint10_linear)"/>
<path d="M123.084 35.6096C123.084 39.1444 120.922 43.2519 118.253 44.785C115.583 46.3181 113.415 44.6867 113.415 41.1519C113.415 37.6171 115.577 33.5154 118.253 31.9823C120.928 30.4492 123.084 32.0806 123.084 35.6096Z" fill="#CC2D0C"/>
<path d="M116.329 44.6231C115.006 44.6231 114.156 43.2636 114.156 41.152C114.156 37.8602 116.16 34.0303 118.62 32.6187C119.085 32.3263 119.62 32.1607 120.17 32.1385C121.493 32.1385 122.35 33.5039 122.35 35.6097C122.35 38.9073 120.345 42.7371 117.88 44.1487C117.414 44.4396 116.879 44.6033 116.329 44.6231Z" fill="#BD2A0B"/>
<path d="M120.805 32.26C121.621 32.7286 122.111 33.8972 122.111 35.4997C122.111 38.7973 120.106 42.6272 117.646 44.033C117.181 44.3247 116.646 44.4902 116.096 44.5132C115.879 44.5141 115.664 44.4748 115.461 44.3974C115.726 44.5464 116.025 44.6242 116.329 44.6231C116.879 44.6032 117.414 44.4396 117.88 44.1487C120.345 42.7371 122.35 38.9073 122.35 35.6097C122.35 33.8625 121.761 32.6592 120.805 32.26Z" fill="url(#paint11_linear)"/>
<path d="M116.382 44.8081L122.041 32.7574L121.522 32.3756C120.747 31.8665 119.698 31.8723 118.55 32.5318C116.137 33.9145 114.173 37.6286 114.173 40.8278C114.173 42.4419 114.68 43.6163 115.484 44.2006L115.607 44.2874C115.84 44.4263 115.822 44.4321 116.049 44.5825L116.382 44.8081Z" fill="url(#paint12_linear)"/>
<path d="M123.736 36.3675C123.736 39.561 121.778 43.2751 119.36 44.6636C116.941 46.052 114.989 44.5768 114.989 41.3775C114.989 38.1783 116.947 34.4699 119.36 33.0815C121.772 31.693 123.736 33.1683 123.736 36.3675Z" fill="#CC2D0C"/>
<path d="M117.605 44.5189C116.41 44.5189 115.635 43.2867 115.635 41.3776C115.635 38.3981 117.448 34.9328 119.68 33.66C120.107 33.3947 120.598 33.2488 121.102 33.2377C122.268 33.2377 123.072 34.47 123.072 36.3791C123.072 39.3585 121.259 42.8239 119.033 44.0966C118.604 44.3614 118.111 44.5072 117.605 44.5189Z" fill="#B31F00"/>
<path d="M121.685 33.336C122.419 33.7583 122.85 34.817 122.85 36.2634C122.85 39.2485 121.038 42.7081 118.812 43.9867C118.392 44.2506 117.909 44.4002 117.413 44.4206C117.213 44.4207 117.016 44.3834 116.83 44.3106C117.07 44.4469 117.341 44.5187 117.617 44.5189C118.115 44.4996 118.6 44.3499 119.021 44.085C121.248 42.8123 123.06 39.3469 123.06 36.3675C123.066 34.7823 122.536 33.6716 121.685 33.336Z" fill="url(#paint13_linear)"/>
<path d="M119.505 40.7065L120.578 38.3403L119.704 37.8659C119.614 37.8144 119.511 37.7897 119.408 37.7948C119.304 37.7999 119.205 37.8347 119.121 37.8949C118.862 38.0792 118.65 38.3213 118.502 38.6016C118.354 38.8819 118.275 39.1926 118.27 39.5089C118.258 39.6311 118.275 39.7544 118.319 39.8689C118.364 39.9834 118.435 40.086 118.526 40.1685L118.596 40.209L119.505 40.7065Z" fill="url(#paint14_linear)"/>
<path d="M120.904 39.023C120.901 39.3395 120.822 39.6508 120.674 39.9313C120.526 40.2118 120.314 40.4537 120.054 40.637C119.587 40.9089 119.203 40.637 119.203 40.0007C119.209 39.6846 119.289 39.3743 119.437 39.0942C119.584 38.8141 119.796 38.5719 120.054 38.3866C120.52 38.132 120.904 38.4444 120.904 39.023Z" fill="#B5B5B5"/>
<path d="M120.7 39.1618C120.696 39.4013 120.635 39.6365 120.522 39.8485C120.41 40.0605 120.249 40.2434 120.053 40.3825C119.697 40.585 119.412 40.3825 119.412 39.9024C119.415 39.6625 119.475 39.4266 119.586 39.2137C119.697 39.0007 119.857 38.8166 120.053 38.6759C120.408 38.4734 120.7 38.6932 120.7 39.1618Z" fill="#666666"/>
<path d="M122.699 42.1469L123.457 40.5097L120.496 38.7741C120.436 38.736 120.366 38.7157 120.295 38.7157C120.224 38.7157 120.154 38.736 120.094 38.7741C119.915 38.9028 119.769 39.0714 119.668 39.2664C119.567 39.4613 119.513 39.6771 119.511 39.8965C119.505 39.9807 119.517 40.0653 119.547 40.1442C119.578 40.2232 119.625 40.2946 119.686 40.3535H119.738L122.699 42.1469Z" fill="url(#paint15_linear)"/>
<path d="M123.684 41.0014C123.682 41.2206 123.628 41.4361 123.526 41.6309C123.425 41.8257 123.28 41.9945 123.102 42.1238C122.775 42.3089 122.519 42.1238 122.519 41.6783C122.522 41.4592 122.576 41.2437 122.677 41.0488C122.778 40.854 122.923 40.6853 123.102 40.556C123.434 40.3708 123.684 40.5675 123.684 41.0014Z" fill="#B5B5B5"/>
<path d="M122.349 41.5973C122.352 41.3781 122.406 41.1626 122.507 40.9678C122.609 40.773 122.754 40.6043 122.932 40.475C122.982 40.4406 123.039 40.4185 123.098 40.4104C123.158 40.4024 123.219 40.4086 123.276 40.4287C123.215 40.3813 123.141 40.3555 123.063 40.3555C122.986 40.3555 122.911 40.3813 122.851 40.4287C122.673 40.5571 122.528 40.7249 122.426 40.9187C122.325 41.1125 122.271 41.327 122.268 41.5452C122.268 41.8056 122.361 41.9791 122.507 42.037C122.451 41.9786 122.409 41.9093 122.381 41.8336C122.354 41.7579 122.343 41.6774 122.349 41.5973Z" fill="#737373"/>
<path d="M122.157 41.4817C122.16 41.2634 122.215 41.0489 122.316 40.8551C122.417 40.6613 122.562 40.4935 122.74 40.3651C122.791 40.3307 122.849 40.3086 122.909 40.3005C122.97 40.2925 123.032 40.2988 123.09 40.3188C123.028 40.2719 122.952 40.2465 122.874 40.2465C122.796 40.2465 122.72 40.2719 122.658 40.3188C122.481 40.4485 122.335 40.6173 122.234 40.812C122.133 41.0068 122.079 41.2221 122.076 41.4412C122.062 41.5372 122.078 41.6351 122.122 41.7218C122.166 41.8086 122.235 41.8801 122.32 41.9271C122.263 41.8685 122.219 41.7985 122.191 41.7218C122.163 41.645 122.151 41.5631 122.157 41.4817Z" fill="#737373"/>
<path d="M121.971 41.3717C121.975 41.1528 122.029 40.9378 122.13 40.7432C122.231 40.5486 122.376 40.3796 122.553 40.2494C122.604 40.2162 122.662 40.1948 122.723 40.1868C122.783 40.1788 122.845 40.1843 122.903 40.2031C122.841 40.1571 122.765 40.1322 122.687 40.1322C122.61 40.1322 122.534 40.1571 122.472 40.2031C122.294 40.3312 122.148 40.4989 122.047 40.6928C121.946 40.8866 121.892 41.1013 121.889 41.3197C121.889 41.58 121.982 41.7536 122.128 41.8114C122.072 41.753 122.03 41.6837 122.003 41.608C121.975 41.5323 121.965 41.4518 121.971 41.3717Z" fill="#737373"/>
<path d="M121.779 41.2619C121.781 41.0428 121.835 40.8272 121.937 40.6324C122.038 40.4376 122.183 40.2689 122.361 40.1396C122.412 40.1051 122.47 40.083 122.531 40.075C122.591 40.0669 122.653 40.0732 122.711 40.0933C122.649 40.0464 122.573 40.021 122.495 40.021C122.417 40.021 122.342 40.0464 122.28 40.0933C122.102 40.2217 121.957 40.3895 121.856 40.5833C121.754 40.7771 121.7 40.9916 121.697 41.2098C121.683 41.3067 121.699 41.4055 121.743 41.4933C121.786 41.581 121.856 41.6536 121.942 41.7016C121.885 41.6436 121.841 41.5746 121.813 41.4989C121.785 41.4232 121.773 41.3424 121.779 41.2619Z" fill="#737373"/>
<path d="M121.592 41.1461C121.595 40.9278 121.649 40.7131 121.75 40.5192C121.851 40.3253 121.997 40.1576 122.175 40.0295C122.225 39.9951 122.283 39.973 122.344 39.965C122.405 39.9569 122.467 39.9632 122.524 39.9833C122.462 39.9363 122.387 39.9109 122.309 39.9109C122.231 39.9109 122.155 39.9363 122.093 39.9833C121.915 40.1126 121.769 40.2813 121.668 40.4761C121.567 40.6709 121.513 40.8865 121.51 41.1056C121.496 41.2011 121.512 41.2985 121.554 41.3851C121.597 41.4718 121.665 41.5438 121.749 41.5916C121.693 41.5325 121.65 41.4622 121.623 41.3855C121.596 41.3087 121.585 41.2272 121.592 41.1461Z" fill="#737373"/>
<path d="M121.399 41.0362C121.403 40.8171 121.457 40.6018 121.558 40.407C121.659 40.2123 121.804 40.0435 121.982 39.9138C122.033 39.8806 122.091 39.8592 122.152 39.8512C122.212 39.8432 122.274 39.8488 122.332 39.8675C122.269 39.8224 122.194 39.7981 122.116 39.7981C122.039 39.7981 121.963 39.8224 121.901 39.8675C121.723 39.996 121.578 40.1637 121.476 40.3575C121.375 40.5513 121.321 40.7658 121.318 40.9841C121.304 41.081 121.32 41.1798 121.364 41.2675C121.407 41.3553 121.477 41.4279 121.563 41.4758C121.506 41.4179 121.462 41.3489 121.434 41.2731C121.406 41.1974 121.394 41.1167 121.399 41.0362Z" fill="#737373"/>
<path d="M121.213 40.9263C121.215 40.707 121.269 40.4914 121.37 40.2965C121.471 40.1016 121.617 39.9329 121.795 39.8039C121.846 39.7695 121.904 39.7474 121.965 39.7394C122.025 39.7313 122.087 39.7376 122.145 39.7577C122.083 39.7107 122.007 39.6853 121.929 39.6853C121.852 39.6853 121.776 39.7107 121.714 39.7577C121.536 39.8861 121.391 40.0538 121.29 40.2476C121.189 40.4414 121.134 40.656 121.131 40.8742C121.117 40.9711 121.133 41.0699 121.177 41.1576C121.221 41.2454 121.29 41.318 121.376 41.366C121.319 41.308 121.275 41.239 121.247 41.1632C121.219 41.0875 121.207 41.0068 121.213 40.9263Z" fill="#737373"/>
<path d="M121.021 40.8106C121.024 40.5924 121.078 40.3779 121.179 40.1841C121.28 39.9903 121.426 39.8225 121.603 39.6941C121.654 39.6597 121.712 39.6376 121.773 39.6295C121.833 39.6215 121.895 39.6277 121.953 39.6478C121.891 39.6009 121.815 39.5755 121.737 39.5755C121.659 39.5755 121.584 39.6009 121.522 39.6478C121.344 39.7774 121.199 39.9463 121.098 40.141C120.996 40.3357 120.942 40.5511 120.939 40.7701C120.939 41.0247 121.032 41.1983 121.184 41.2561C121.126 41.1975 121.082 41.1275 121.054 41.0507C121.026 40.9739 121.015 40.8921 121.021 40.8106Z" fill="#737373"/>
<path d="M120.828 40.7007C120.831 40.4817 120.886 40.2663 120.987 40.0716C121.088 39.8769 121.233 39.708 121.411 39.5784C121.461 39.544 121.519 39.5219 121.58 39.5138C121.641 39.5058 121.703 39.5121 121.761 39.5321C121.698 39.4861 121.623 39.4612 121.545 39.4612C121.467 39.4612 121.392 39.4861 121.329 39.5321C121.152 39.6605 121.006 39.8283 120.905 40.0221C120.804 40.2159 120.75 40.4304 120.747 40.6487C120.733 40.7456 120.749 40.8444 120.792 40.9321C120.836 41.0199 120.905 41.0925 120.991 41.1404C120.935 41.0825 120.891 41.0134 120.863 40.9377C120.835 40.862 120.823 40.7813 120.828 40.7007Z" fill="#737373"/>
<path d="M120.642 40.5849C120.645 40.3666 120.699 40.1521 120.8 39.9583C120.901 39.7645 121.047 39.5968 121.224 39.4683C121.274 39.434 121.331 39.4119 121.391 39.4038C121.451 39.3958 121.511 39.402 121.568 39.422C121.508 39.3747 121.433 39.3489 121.356 39.3489C121.278 39.3489 121.203 39.3747 121.143 39.422C120.965 39.5505 120.82 39.7182 120.719 39.912C120.618 40.1058 120.563 40.3203 120.56 40.5386C120.56 40.7989 120.653 40.9725 120.799 41.0303C120.743 40.9712 120.7 40.901 120.672 40.8243C120.645 40.7475 120.635 40.6659 120.642 40.5849Z" fill="#737373"/>
<path d="M120.45 40.475C120.453 40.2567 120.507 40.0422 120.608 39.8484C120.709 39.6546 120.855 39.4869 121.033 39.3584C121.083 39.324 121.141 39.3019 121.202 39.2939C121.263 39.2858 121.324 39.2921 121.382 39.3122C121.32 39.2652 121.244 39.2398 121.167 39.2398C121.089 39.2398 121.013 39.2652 120.951 39.3122C120.773 39.4415 120.627 39.6102 120.526 39.805C120.425 39.9998 120.371 40.2153 120.368 40.4345C120.356 40.5305 120.372 40.628 120.416 40.7146C120.459 40.8012 120.528 40.8729 120.613 40.9205C120.556 40.8618 120.511 40.7918 120.483 40.7151C120.455 40.6383 120.444 40.5565 120.45 40.475Z" fill="#737373"/>
<path d="M120.263 40.3651C120.266 40.146 120.32 39.9306 120.422 39.7359C120.523 39.5412 120.668 39.3724 120.846 39.2427C120.895 39.2084 120.952 39.1862 121.012 39.1782C121.072 39.1701 121.133 39.1764 121.19 39.1964C121.128 39.1509 121.054 39.1263 120.977 39.1263C120.9 39.1263 120.826 39.1509 120.764 39.1964C120.586 39.3249 120.441 39.4926 120.34 39.6864C120.239 39.8802 120.185 40.0947 120.181 40.313C120.181 40.5733 120.275 40.7469 120.42 40.8047C120.365 40.7463 120.322 40.677 120.295 40.6013C120.268 40.5256 120.257 40.4452 120.263 40.3651Z" fill="#737373"/>
<path d="M120.071 40.2495C120.074 40.0312 120.129 39.8167 120.23 39.6229C120.331 39.4291 120.476 39.2613 120.654 39.1329C120.704 39.0985 120.762 39.0764 120.823 39.0683C120.884 39.0603 120.946 39.0666 121.004 39.0866C120.941 39.0406 120.866 39.0157 120.788 39.0157C120.71 39.0157 120.635 39.0406 120.572 39.0866C120.394 39.2163 120.249 39.3851 120.148 39.5798C120.047 39.7745 119.993 39.9899 119.989 40.209C119.976 40.3059 119.992 40.4047 120.035 40.4924C120.079 40.5801 120.148 40.6527 120.234 40.7007C120.176 40.6414 120.131 40.5705 120.103 40.4927C120.075 40.4148 120.064 40.3319 120.071 40.2495Z" fill="#737373"/>
<path d="M119.884 40.1395C119.887 39.9212 119.941 39.7067 120.043 39.5129C120.144 39.3191 120.289 39.1514 120.467 39.0229C120.516 38.9893 120.573 38.9671 120.633 38.9581C120.692 38.9491 120.753 38.9535 120.811 38.9709C120.749 38.9253 120.675 38.9007 120.598 38.9007C120.521 38.9007 120.447 38.9253 120.385 38.9709C120.207 39.1002 120.061 39.269 119.96 39.4638C119.859 39.6586 119.805 39.8741 119.802 40.0932C119.788 40.1887 119.804 40.2861 119.846 40.3728C119.889 40.4594 119.957 40.5314 120.041 40.5792C119.986 40.5208 119.943 40.4515 119.916 40.3758C119.889 40.3001 119.878 40.2196 119.884 40.1395Z" fill="#737373"/>
<path d="M119.691 40.0295C119.694 39.8104 119.748 39.5949 119.849 39.4001C119.951 39.2053 120.096 39.0365 120.274 38.9072C120.325 38.8728 120.383 38.8507 120.443 38.8426C120.504 38.8346 120.566 38.8409 120.624 38.8609C120.561 38.8158 120.486 38.7914 120.408 38.7914C120.331 38.7914 120.255 38.8158 120.193 38.8609C120.015 38.9893 119.87 39.1571 119.768 39.3509C119.667 39.5447 119.613 39.7592 119.61 39.9775C119.596 40.0744 119.612 40.1732 119.656 40.2609C119.699 40.3486 119.769 40.4213 119.855 40.4692C119.798 40.4113 119.754 40.3422 119.726 40.2665C119.698 40.1908 119.686 40.1101 119.691 40.0295Z" fill="#737373"/>
<path d="M108.66 33.8683C108.662 33.6492 108.716 33.4336 108.818 33.2388C108.919 33.044 109.064 32.8753 109.243 32.746C109.292 32.7116 109.349 32.6895 109.409 32.6814C109.469 32.6734 109.529 32.6797 109.586 32.6997C109.526 32.6523 109.451 32.6265 109.374 32.6265C109.296 32.6265 109.222 32.6523 109.161 32.6997C108.983 32.8281 108.838 32.9959 108.737 33.1897C108.636 33.3835 108.581 33.598 108.578 33.8162C108.578 34.0766 108.671 34.2501 108.817 34.308C108.762 34.2496 108.719 34.1803 108.692 34.1046C108.665 34.0289 108.654 33.9484 108.66 33.8683Z" fill="#737373"/>
<path d="M108.327 33.6832C108.33 33.464 108.384 33.2485 108.485 33.0537C108.586 32.8589 108.732 32.6902 108.91 32.5608C108.96 32.5264 109.018 32.5043 109.079 32.4963C109.14 32.4882 109.202 32.4945 109.26 32.5145C109.198 32.4676 109.122 32.4422 109.044 32.4422C108.966 32.4422 108.89 32.4676 108.828 32.5145C108.651 32.643 108.505 32.8107 108.404 33.0045C108.303 33.1983 108.249 33.4128 108.246 33.6311C108.232 33.728 108.248 33.8268 108.291 33.9145C108.335 34.0023 108.404 34.0749 108.49 34.1228C108.434 34.0649 108.39 33.9959 108.362 33.9201C108.334 33.8444 108.322 33.7637 108.327 33.6832Z" fill="#737373"/>
<path d="M108.001 33.4923C108.004 33.2739 108.058 33.0593 108.159 32.8654C108.26 32.6715 108.406 32.5038 108.584 32.3757C108.634 32.3413 108.692 32.3192 108.753 32.3111C108.814 32.3031 108.876 32.3094 108.933 32.3294C108.871 32.2834 108.796 32.2586 108.718 32.2586C108.64 32.2586 108.565 32.2834 108.502 32.3294C108.325 32.4594 108.18 32.6283 108.079 32.8229C107.977 33.0176 107.923 33.2328 107.919 33.4518C107.919 33.7121 108.013 33.8857 108.158 33.9435C108.101 33.8838 108.058 33.8126 108.031 33.7348C108.003 33.657 107.993 33.5743 108.001 33.4923Z" fill="#737373"/>
<path d="M107.698 33.3072C107.701 33.0889 107.755 32.8744 107.856 32.6806C107.958 32.4868 108.103 32.319 108.281 32.1906C108.331 32.1562 108.389 32.1341 108.45 32.126C108.511 32.118 108.572 32.1243 108.63 32.1443C108.568 32.0983 108.492 32.0735 108.415 32.0735C108.337 32.0735 108.261 32.0983 108.199 32.1443C108.021 32.274 107.876 32.4428 107.775 32.6375C107.674 32.8323 107.619 33.0476 107.616 33.2667C107.616 33.527 107.709 33.7006 107.861 33.7584C107.803 33.6991 107.758 33.6282 107.73 33.5504C107.702 33.4725 107.691 33.3896 107.698 33.3072Z" fill="#737373"/>
<path d="M107.336 33.1219C107.34 32.9037 107.394 32.6892 107.495 32.4954C107.596 32.3016 107.741 32.1338 107.919 32.0054C107.97 31.971 108.028 31.9488 108.089 31.9408C108.149 31.9328 108.211 31.939 108.269 31.9591C108.207 31.9131 108.131 31.8882 108.053 31.8882C107.976 31.8882 107.9 31.9131 107.838 31.9591C107.66 32.0887 107.515 32.2576 107.413 32.4523C107.312 32.647 107.258 32.8624 107.255 33.0814C107.241 33.1783 107.257 33.2771 107.301 33.3649C107.344 33.4526 107.414 33.5252 107.5 33.5732C107.442 33.5139 107.397 33.443 107.369 33.3651C107.341 33.2873 107.33 33.2044 107.336 33.1219Z" fill="#737373"/>
<path d="M107.01 32.9368C107.013 32.7185 107.067 32.504 107.169 32.3102C107.27 32.1164 107.415 31.9486 107.593 31.8202C107.642 31.7859 107.699 31.7638 107.759 31.7557C107.819 31.7477 107.88 31.7539 107.937 31.7739C107.875 31.7284 107.801 31.7038 107.724 31.7038C107.647 31.7038 107.573 31.7284 107.511 31.7739C107.333 31.9036 107.188 32.0724 107.087 32.2671C106.986 32.4619 106.932 32.6772 106.928 32.8963C106.915 32.9925 106.93 33.0906 106.973 33.1781C107.015 33.2656 107.083 33.3387 107.167 33.388C107.11 33.3283 107.067 33.2571 107.04 33.1793C107.012 33.1014 107.002 33.0188 107.01 32.9368Z" fill="#737373"/>
<path d="M106.678 32.7517C106.681 32.5334 106.735 32.3189 106.836 32.1251C106.938 31.9313 107.083 31.7636 107.261 31.6351C107.311 31.6007 107.369 31.5786 107.43 31.5706C107.491 31.5625 107.552 31.5688 107.61 31.5888C107.548 31.5419 107.473 31.5165 107.395 31.5165C107.317 31.5165 107.241 31.5419 107.179 31.5888C107.001 31.7185 106.856 31.8873 106.755 32.082C106.654 32.2768 106.599 32.4921 106.596 32.7112C106.583 32.808 106.599 32.9065 106.643 32.9941C106.687 33.0817 106.756 33.1544 106.841 33.2029C106.783 33.1437 106.738 33.0727 106.71 32.9949C106.682 32.917 106.671 32.8341 106.678 32.7517Z" fill="#737373"/>
<path d="M106.346 32.5666C106.349 32.3484 106.403 32.1339 106.504 31.9401C106.605 31.7463 106.751 31.5785 106.928 31.4501C106.979 31.4157 107.037 31.3935 107.098 31.3855C107.159 31.3775 107.22 31.3837 107.278 31.4038C107.216 31.3569 107.14 31.3315 107.063 31.3315C106.985 31.3315 106.909 31.3569 106.847 31.4038C106.669 31.5334 106.524 31.7023 106.423 31.897C106.322 32.0917 106.267 32.3071 106.264 32.5261C106.251 32.6222 106.267 32.72 106.311 32.8068C106.354 32.8935 106.423 32.9651 106.509 33.0121C106.452 32.9535 106.407 32.8835 106.379 32.8067C106.351 32.7299 106.34 32.6481 106.346 32.5666Z" fill="#737373"/>
<path d="M106.019 32.3815C106.022 32.1633 106.077 31.9487 106.178 31.7549C106.279 31.5611 106.424 31.3934 106.602 31.2649C106.652 31.2306 106.709 31.2085 106.768 31.2004C106.828 31.1924 106.889 31.1986 106.946 31.2187C106.885 31.1713 106.81 31.1455 106.733 31.1455C106.656 31.1455 106.581 31.1713 106.521 31.2187C106.343 31.3483 106.197 31.5171 106.096 31.7118C105.995 31.9066 105.941 32.1219 105.938 32.341C105.938 32.6013 106.031 32.7691 106.177 32.827C106.12 32.7679 106.077 32.6976 106.05 32.6209C106.023 32.5441 106.013 32.4626 106.019 32.3815Z" fill="#737373"/>
<path d="M105.687 32.1963C105.69 31.978 105.745 31.7635 105.846 31.5697C105.947 31.3759 106.092 31.2082 106.27 31.0797C106.321 31.0453 106.379 31.0232 106.439 31.0152C106.5 31.0071 106.562 31.0134 106.62 31.0335C106.558 30.9865 106.482 30.9611 106.404 30.9611C106.326 30.9611 106.25 30.9865 106.188 31.0335C106.01 31.1628 105.865 31.3315 105.764 31.5263C105.662 31.7211 105.608 31.9367 105.606 32.1558C105.593 32.2518 105.61 32.3493 105.653 32.4359C105.697 32.5225 105.766 32.5942 105.85 32.6418C105.793 32.5832 105.749 32.5132 105.721 32.4364C105.693 32.3596 105.681 32.2778 105.687 32.1963Z" fill="#737373"/>
<path d="M105.366 32.0111C105.37 31.7921 105.424 31.5769 105.526 31.3823C105.627 31.1876 105.772 31.0187 105.949 30.8888C106.001 30.8565 106.059 30.8362 106.119 30.8292C106.18 30.8222 106.241 30.8287 106.299 30.8483C106.237 30.8014 106.161 30.776 106.083 30.776C106.005 30.776 105.93 30.8014 105.868 30.8483C105.689 30.9773 105.543 31.146 105.442 31.3408C105.341 31.5357 105.287 31.7514 105.285 31.9706C105.271 32.0661 105.286 32.1635 105.329 32.2502C105.371 32.3368 105.439 32.4088 105.524 32.4566C105.467 32.3975 105.424 32.3273 105.397 32.2505C105.37 32.1737 105.36 32.0922 105.366 32.0111Z" fill="#737373"/>
<path d="M105.029 31.826C105.032 31.607 105.086 31.3916 105.187 31.1969C105.288 31.0021 105.434 30.8333 105.612 30.7037C105.662 30.6706 105.719 30.6492 105.778 30.6412C105.838 30.6332 105.898 30.6387 105.955 30.6574C105.894 30.6119 105.819 30.5873 105.743 30.5873C105.666 30.5873 105.591 30.6119 105.53 30.6574C105.352 30.7867 105.206 30.9555 105.105 31.1503C105.004 31.3451 104.95 31.5606 104.947 31.7797C104.933 31.8752 104.949 31.9726 104.991 32.0593C105.034 32.146 105.102 32.2179 105.186 32.2657C105.131 32.2073 105.088 32.138 105.061 32.0623C105.034 31.9866 105.023 31.9061 105.029 31.826Z" fill="#737373"/>
<path d="M104.696 31.6409C104.699 31.4219 104.754 31.2065 104.855 31.0118C104.956 30.8171 105.101 30.6482 105.279 30.5186C105.33 30.4854 105.388 30.464 105.449 30.456C105.509 30.448 105.571 30.4536 105.629 30.4723C105.566 30.4272 105.491 30.4028 105.413 30.4028C105.336 30.4028 105.26 30.4272 105.197 30.4723C105.019 30.6016 104.874 30.7704 104.773 30.9652C104.671 31.16 104.617 31.3755 104.615 31.5947C104.602 31.6906 104.619 31.7882 104.662 31.8748C104.706 31.9613 104.775 32.033 104.859 32.0806C104.803 32.0227 104.759 31.9536 104.731 31.8779C104.703 31.8022 104.691 31.7215 104.696 31.6409Z" fill="#737373"/>
<path d="M104.37 31.4559C104.373 31.2367 104.427 31.0212 104.528 30.8264C104.629 30.6316 104.774 30.4628 104.953 30.3335C105.004 30.3003 105.062 30.2789 105.122 30.2709C105.183 30.2629 105.244 30.2685 105.302 30.2872C105.24 30.2412 105.164 30.2164 105.087 30.2164C105.009 30.2164 104.933 30.2412 104.871 30.2872C104.692 30.4162 104.547 30.5849 104.446 30.7798C104.344 30.9747 104.29 31.1903 104.288 31.4096C104.274 31.505 104.29 31.6024 104.332 31.6891C104.375 31.7758 104.443 31.8477 104.527 31.8955C104.472 31.8371 104.429 31.7678 104.402 31.6921C104.375 31.6164 104.364 31.536 104.37 31.4559Z" fill="#737373"/>
<path d="M104.038 31.2708C104.041 31.0517 104.095 30.8364 104.196 30.6416C104.297 30.4469 104.443 30.2781 104.62 30.1484C104.672 30.1152 104.729 30.0938 104.79 30.0858C104.851 30.0778 104.912 30.0834 104.97 30.1022C104.907 30.057 104.832 30.0327 104.754 30.0327C104.677 30.0327 104.602 30.057 104.539 30.1022C104.361 30.2315 104.215 30.4002 104.114 30.595C104.013 30.7898 103.959 31.0053 103.956 31.2245C103.956 31.479 104.049 31.6526 104.201 31.7104C104.144 31.6525 104.1 31.5835 104.072 31.5077C104.044 31.432 104.032 31.3513 104.038 31.2708Z" fill="#737373"/>
<path d="M81.2915 18.3581C81.2947 18.1398 81.349 17.9253 81.4501 17.7315C81.5513 17.5377 81.6965 17.3699 81.8743 17.2415C81.9248 17.2071 81.9828 17.185 82.0436 17.1769C82.1043 17.1689 82.1661 17.1752 82.224 17.1952C82.162 17.1483 82.0863 17.1229 82.0083 17.1229C81.9304 17.1229 81.8547 17.1483 81.7927 17.1952C81.6148 17.3249 81.4696 17.4937 81.3684 17.6884C81.2673 17.8832 81.2131 18.0985 81.2099 18.3176C81.2041 18.4108 81.2258 18.5037 81.2724 18.5849C81.319 18.6661 81.3884 18.732 81.4722 18.7746C81.4153 18.7208 81.37 18.6562 81.339 18.5846C81.308 18.5131 81.2918 18.436 81.2915 18.3581Z" fill="#737373"/>
<path d="M80.9595 18.196C80.9622 17.9768 81.0163 17.7613 81.1175 17.5665C81.2186 17.3717 81.3641 17.203 81.5423 17.0736C81.5929 17.0392 81.6508 17.0171 81.7116 17.0091C81.7723 17.001 81.8341 17.0073 81.892 17.0274C81.8293 16.9822 81.7538 16.9579 81.6764 16.9579C81.5989 16.9579 81.5234 16.9822 81.4607 17.0274C81.2829 17.1558 81.1377 17.3235 81.0365 17.5173C80.9354 17.7111 80.8811 17.9257 80.8779 18.1439C80.8779 18.4043 80.9712 18.5778 81.1227 18.6357C81.0661 18.5777 81.0224 18.5087 80.9943 18.433C80.9662 18.3572 80.9543 18.2765 80.9595 18.196Z" fill="#737373"/>
<path d="M80.6269 17.982C80.6301 17.7637 80.6844 17.5492 80.7855 17.3554C80.8867 17.1616 81.0319 16.9938 81.2097 16.8654C81.2592 16.8311 81.3162 16.8089 81.376 16.8009C81.4358 16.7928 81.4967 16.7991 81.5536 16.8191C81.4921 16.7736 81.4175 16.749 81.3408 16.749C81.2642 16.749 81.1895 16.7736 81.1281 16.8191C80.9502 16.9488 80.805 17.1176 80.7039 17.3123C80.6027 17.507 80.5485 17.7224 80.5453 17.9415C80.5317 18.0377 80.5472 18.1358 80.5897 18.2233C80.6322 18.3108 80.6999 18.3839 80.7843 18.4332C80.7272 18.3734 80.6836 18.3023 80.6565 18.2245C80.6294 18.1466 80.6193 18.064 80.6269 17.982Z" fill="#737373"/>
<path d="M80.3063 17.7969C80.3104 17.578 80.365 17.3629 80.4661 17.1683C80.5671 16.9737 80.7119 16.8048 80.8891 16.6745C80.9402 16.6413 80.9981 16.62 81.0587 16.6119C81.1192 16.6039 81.1807 16.6095 81.2388 16.6283C81.1765 16.5822 81.1009 16.5574 81.0232 16.5574C80.9455 16.5574 80.8699 16.5822 80.8075 16.6283C80.6299 16.7582 80.485 16.9271 80.3839 17.1218C80.2828 17.3164 80.2283 17.5316 80.2247 17.7506C80.2108 17.8461 80.2261 17.9435 80.2687 18.0301C80.3114 18.1168 80.3793 18.1888 80.4637 18.2366C80.4081 18.1781 80.3655 18.1089 80.3384 18.0332C80.3113 17.9575 80.3004 17.877 80.3063 17.7969Z" fill="#737373"/>
<path d="M79.9629 17.6175C79.9656 17.3991 80.0197 17.1845 80.1209 16.9906C80.2221 16.7967 80.3676 16.629 80.5457 16.5009C80.596 16.4684 80.6532 16.4478 80.7129 16.4408C80.7725 16.4337 80.833 16.4405 80.8895 16.4604C80.8272 16.4144 80.7516 16.3895 80.6739 16.3895C80.5962 16.3895 80.5206 16.4144 80.4583 16.4604C80.28 16.5897 80.1346 16.7585 80.0334 16.9533C79.9323 17.1481 79.8782 17.3636 79.8755 17.5828C79.8755 17.8431 79.9687 18.0166 80.1144 18.0745C80.0576 18.0136 80.0147 17.9412 79.9885 17.8624C79.9624 17.7835 79.9537 17.7 79.9629 17.6175Z" fill="#737373"/>
<path d="M79.6243 17.4209C79.6274 17.2018 79.6817 16.9865 79.7828 16.7917C79.8839 16.597 80.0292 16.4282 80.2071 16.2985C80.2588 16.2668 80.3167 16.2463 80.3769 16.2383C80.4372 16.2303 80.4985 16.2351 80.5567 16.2523C80.4941 16.2071 80.4186 16.1828 80.3411 16.1828C80.2636 16.1828 80.1882 16.2071 80.1255 16.2523C79.9472 16.3816 79.8018 16.5503 79.7006 16.7451C79.5995 16.94 79.5454 17.1555 79.5427 17.3746C79.5301 17.4706 79.5466 17.5681 79.5903 17.6547C79.6339 17.7413 79.7025 17.813 79.7875 17.8606C79.7309 17.8026 79.6871 17.7336 79.659 17.6579C79.6309 17.5821 79.6191 17.5014 79.6243 17.4209Z" fill="#737373"/>
<path d="M79.2927 17.2357C79.2954 17.0166 79.3495 16.8011 79.4507 16.6063C79.5518 16.4115 79.6973 16.2427 79.8755 16.1134C79.9261 16.079 79.9841 16.0569 80.0448 16.0488C80.1055 16.0408 80.1673 16.047 80.2252 16.0671C80.1633 16.0202 80.0875 15.9948 80.0096 15.9948C79.9316 15.9948 79.8559 16.0202 79.7939 16.0671C79.6161 16.1955 79.4709 16.3633 79.3698 16.5571C79.2686 16.7509 79.2143 16.9654 79.2111 17.1837C79.1973 17.2806 79.2133 17.3793 79.257 17.4671C79.3006 17.5548 79.37 17.6274 79.4559 17.6754C79.3993 17.6175 79.3556 17.5484 79.3275 17.4727C79.2994 17.397 79.2875 17.3163 79.2927 17.2357Z" fill="#737373"/>
<path d="M78.96 17.039C78.9631 16.8207 79.0174 16.6062 79.1186 16.4124C79.2197 16.2186 79.365 16.0508 79.5428 15.9224C79.5933 15.888 79.6513 15.8659 79.712 15.8578C79.7728 15.8498 79.8346 15.8561 79.8924 15.8761C79.8305 15.8292 79.7547 15.8038 79.6768 15.8038C79.5989 15.8038 79.5231 15.8292 79.4612 15.8761C79.2829 16.0055 79.1375 16.1742 79.0363 16.369C78.9351 16.5638 78.8811 16.7793 78.8784 16.9985C78.8658 17.0945 78.8823 17.192 78.926 17.2786C78.9696 17.3652 79.0382 17.4368 79.1231 17.4844C79.0658 17.4258 79.0216 17.3558 78.9935 17.2791C78.9654 17.2023 78.9539 17.1204 78.96 17.039Z" fill="#737373"/>
<path d="M78.6279 16.8597C78.6306 16.6405 78.6847 16.425 78.7859 16.2302C78.887 16.0354 79.0325 15.8666 79.2107 15.7373C79.2613 15.7029 79.3193 15.6808 79.38 15.6727C79.4408 15.6647 79.5026 15.671 79.5604 15.691C79.4985 15.6441 79.4227 15.6187 79.3448 15.6187C79.2669 15.6187 79.1911 15.6441 79.1291 15.691C78.9513 15.8195 78.8061 15.9872 78.705 16.181C78.6038 16.3748 78.5495 16.5893 78.5463 16.8076C78.5325 16.9045 78.5485 17.0033 78.5922 17.091C78.6358 17.1788 78.7052 17.2514 78.7911 17.2993C78.7345 17.2414 78.6908 17.1723 78.6627 17.0966C78.6346 17.0209 78.6227 16.9402 78.6279 16.8597Z" fill="#737373"/>
<path d="M78.2957 16.6688C78.2989 16.4505 78.3532 16.236 78.4543 16.0422C78.5555 15.8484 78.7007 15.6806 78.8785 15.5522C78.928 15.5179 78.985 15.4958 79.0448 15.4877C79.1046 15.4797 79.1655 15.4859 79.2223 15.5059C79.1617 15.4586 79.0868 15.4328 79.0096 15.4328C78.9325 15.4328 78.8575 15.4586 78.7969 15.5059C78.619 15.6356 78.4738 15.8044 78.3727 15.9991C78.2715 16.1939 78.2173 16.4092 78.2141 16.6283C78.2141 16.8886 78.3074 17.0564 78.4531 17.1142C78.3968 17.0551 78.3536 16.9849 78.3265 16.9082C78.2994 16.8314 78.2889 16.7498 78.2957 16.6688Z" fill="#737373"/>
<path d="M77.9749 16.4604C77.9776 16.2413 78.0317 16.0258 78.1329 15.831C78.234 15.6362 78.3795 15.4674 78.5577 15.3381C78.6083 15.3037 78.6663 15.2816 78.727 15.2735C78.7877 15.2655 78.8495 15.2717 78.9074 15.2918C78.846 15.2463 78.7714 15.2217 78.6947 15.2217C78.618 15.2217 78.5434 15.2463 78.482 15.2918C78.3042 15.4202 78.1589 15.588 78.0578 15.7818C77.9566 15.9756 77.9023 16.1901 77.8992 16.4084C77.8992 16.6687 77.9924 16.8423 78.1381 16.9001C78.0815 16.8422 78.0378 16.7731 78.0097 16.6974C77.9816 16.6217 77.9697 16.541 77.9749 16.4604Z" fill="#737373"/>
<path d="M77.6316 16.2926C77.6343 16.0743 77.6885 15.8596 77.7896 15.6657C77.8908 15.4719 78.0363 15.3042 78.2144 15.1761C78.265 15.1417 78.323 15.1195 78.3837 15.1115C78.4445 15.1035 78.5063 15.1097 78.5641 15.1298C78.5018 15.0838 78.4262 15.0589 78.3485 15.0589C78.2708 15.0589 78.1952 15.0838 78.1328 15.1298C77.9546 15.2591 77.8091 15.4279 77.708 15.6227C77.6068 15.8175 77.5528 16.033 77.55 16.2521C77.55 16.5125 77.6433 16.686 77.789 16.7439C77.7319 16.6841 77.6884 16.6129 77.6612 16.5351C77.6341 16.4573 77.624 16.3746 77.6316 16.2926Z" fill="#737373"/>
<path d="M77.2932 16.1076C77.2964 15.8885 77.3506 15.6732 77.4518 15.4784C77.5529 15.2837 77.6981 15.1149 77.876 14.9852C77.9271 14.9521 77.985 14.9307 78.0456 14.9227C78.1061 14.9146 78.1676 14.9202 78.2257 14.939C78.163 14.8938 78.0875 14.8695 78.0101 14.8695C77.9326 14.8695 77.8571 14.8938 77.7944 14.939C77.6162 15.0683 77.4707 15.237 77.3696 15.4318C77.2684 15.6266 77.2143 15.8422 77.2116 16.0613C77.199 16.1573 77.2156 16.2548 77.2592 16.3414C77.3028 16.428 77.3715 16.4997 77.4564 16.5473C77.3998 16.4893 77.3561 16.4203 77.328 16.3446C77.2999 16.2688 77.288 16.1881 77.2932 16.1076Z" fill="#737373"/>
<path d="M76.9612 15.9167C76.9643 15.6985 77.0186 15.4839 77.1198 15.2901C77.221 15.0963 77.3662 14.9286 77.544 14.8002C77.5945 14.7657 77.6525 14.7436 77.7133 14.7356C77.774 14.7275 77.8358 14.7338 77.8937 14.7539C77.8317 14.7069 77.7559 14.6815 77.678 14.6815C77.6001 14.6815 77.5243 14.7069 77.4624 14.7539C77.2846 14.8823 77.1394 15.0501 77.0382 15.2439C76.9371 15.4377 76.8828 15.6522 76.8796 15.8704C76.8658 15.9673 76.8817 16.0661 76.9254 16.1539C76.9691 16.2416 77.0384 16.3142 77.1244 16.3622C77.067 16.3036 77.0228 16.2336 76.9947 16.1568C76.9666 16.08 76.9552 15.9982 76.9612 15.9167Z" fill="#737373"/>
<path d="M76.6292 15.7315C76.6323 15.5124 76.6866 15.2971 76.7877 15.1023C76.8888 14.9076 77.034 14.7388 77.212 14.6091C77.2637 14.5774 77.3215 14.5568 77.3818 14.5489C77.4421 14.5409 77.5034 14.5457 77.5616 14.5628C77.4989 14.5177 77.4235 14.4934 77.346 14.4934C77.2685 14.4934 77.1931 14.5177 77.1304 14.5628C76.9521 14.6922 76.8066 14.8609 76.7055 15.0557C76.6043 15.2505 76.5503 15.466 76.5476 15.6852C76.535 15.7812 76.5515 15.8787 76.5951 15.9653C76.6388 16.0519 76.7074 16.1236 76.7923 16.1711C76.7357 16.1132 76.692 16.0442 76.6639 15.9684C76.6358 15.8927 76.624 15.812 76.6292 15.7315Z" fill="#737373"/>
<path d="M56.4116 73.1559L50.4962 70.0087C50.4609 69.9802 50.4216 69.9568 50.3796 69.9393C50.2691 69.8994 50.1505 69.8865 50.0339 69.9016C49.9172 69.9167 49.806 69.9594 49.7094 70.0261C49.3719 70.2654 49.0959 70.5802 48.9035 70.945C48.7112 71.3098 48.6079 71.7144 48.6021 72.1261C48.5794 72.3007 48.6061 72.4781 48.6792 72.6385C48.7522 72.7989 48.8688 72.936 49.0159 73.0344L54.9604 76.1931L54.9896 75.9733C55.0693 75.9504 55.1457 75.9173 55.2169 75.875C55.5559 75.6353 55.8333 75.3198 56.0267 74.9539C56.22 74.5881 56.324 74.1822 56.33 73.7691C56.333 73.5875 56.3014 73.4069 56.2368 73.2369L56.4116 73.1559Z" fill="url(#paint16_linear)"/>
<path d="M56.7148 74.0237C56.7085 74.4362 56.6051 74.8414 56.4129 75.207C56.2206 75.5727 55.9448 75.8886 55.6075 76.1296C55.0247 76.4767 54.4944 76.1296 54.4944 75.2965C54.5018 74.8837 54.6063 74.4783 54.7996 74.1126C54.9929 73.747 55.2695 73.4313 55.6075 73.1907C56.2195 72.8435 56.7148 73.2138 56.7148 74.0237Z" fill="#293138"/>
<path d="M56.2951 74.313C56.2924 74.5522 56.2329 74.7874 56.1216 74.9995C56.0102 75.2116 55.85 75.3946 55.654 75.5337C55.2985 75.7362 55.0071 75.5337 55.0071 75.0535C55.0109 74.814 55.0714 74.5786 55.1838 74.3666C55.2962 74.1545 55.4573 73.9717 55.654 73.8329C56.0095 73.6072 56.2951 73.8213 56.2951 74.313Z" fill="#D5D5D5"/>
<path d="M55.5489 75.4353C55.7449 75.2962 55.9051 75.1131 56.0165 74.901C56.1279 74.6889 56.1873 74.4538 56.19 74.2146C56.1994 74.0515 56.1475 73.8907 56.0443 73.7634C56.1326 73.818 56.2031 73.8967 56.2475 73.99C56.292 74.0834 56.3084 74.1874 56.2949 74.2898C56.2922 74.529 56.2328 74.7642 56.1214 74.9763C56.01 75.1883 55.8498 75.3714 55.6538 75.5105C55.5816 75.5657 55.4917 75.5931 55.4007 75.5878C55.3097 75.5825 55.2237 75.5448 55.1584 75.4816C55.2224 75.5061 55.2914 75.5147 55.3595 75.5067C55.4276 75.4986 55.4926 75.4741 55.5489 75.4353Z" fill="#767E87"/>
<path d="M57.9678 73.5782V75.3774L54.6226 77.1246V75.3254L57.9678 73.5782Z" fill="#A1A1A1"/>
<path d="M53.1301 74.5675V76.3667L54.6221 77.1245V75.3253L53.1301 74.5675Z" fill="#BFBFBF"/>
<path d="M56.4579 72.7452L53.1301 74.5676L54.6221 75.3254L57.9674 73.5783L56.4579 72.7452Z" fill="#D9D9D9"/>
<path d="M63.2011 77.0724L57.2798 73.9252L57.1633 73.8616C57.0532 73.8209 56.9348 73.807 56.8182 73.8211C56.7016 73.8352 56.5901 73.8769 56.493 73.9426C56.1558 74.1835 55.88 74.4995 55.6877 74.8651C55.4955 75.2308 55.392 75.636 55.3857 76.0484C55.3644 76.2229 55.3916 76.3999 55.4646 76.5601C55.5376 76.7202 55.6534 76.8574 55.7995 76.9567L61.7441 80.0981L61.7732 79.8725C61.8553 79.8511 61.9338 79.818 62.0063 79.7741C62.3446 79.5342 62.6211 79.2185 62.8135 78.8526C63.0059 78.4867 63.1087 78.081 63.1136 77.6683C63.1162 77.4886 63.0846 77.31 63.0204 77.1419L63.2011 77.0724Z" fill="url(#paint17_linear)"/>
<path d="M63.5218 77.9287C63.5155 78.3403 63.412 78.7447 63.2197 79.1094C63.0274 79.4741 62.7516 79.789 62.4144 80.0287C61.8316 80.3816 61.3071 80.0287 61.3071 79.1956C61.313 78.7839 61.4162 78.3793 61.6086 78.0146C61.8009 77.6498 62.077 77.335 62.4144 77.0956C63.0264 76.7427 63.5218 77.1129 63.5218 77.9287Z" fill="#131719"/>
<path d="M63.1024 78.1949C63.0993 78.4331 63.0396 78.6673 62.9282 78.8784C62.8169 79.0895 62.6569 79.2715 62.4614 79.4098C62.1059 79.618 61.8145 79.4098 61.8145 78.9296C61.8187 78.6901 61.8795 78.4549 61.9918 78.243C62.1041 78.031 62.265 77.8481 62.4614 77.7089C62.8227 77.5064 63.1024 77.7205 63.1024 78.1949Z" fill="#A1A1A1"/>
<path d="M62.3561 79.3404C62.5517 79.2009 62.7116 79.0178 62.823 78.8058C62.9343 78.5938 62.994 78.3588 62.9971 78.1197C63.0039 78.0387 62.9945 77.9571 62.9695 77.8797C62.9445 77.8023 62.9044 77.7305 62.8514 77.6685C62.9402 77.7226 63.0112 77.8012 63.0557 77.8947C63.1002 77.9881 63.1163 78.0925 63.102 78.1949C63.0989 78.4332 63.0392 78.6674 62.9278 78.8785C62.8165 79.0896 62.6565 79.2716 62.461 79.4098C62.3887 79.465 62.2988 79.4924 62.2078 79.4871C62.1168 79.4818 62.0308 79.4441 61.9656 79.3809C62.0291 79.4063 62.0978 79.4158 62.1659 79.4088C62.2339 79.4017 62.2992 79.3782 62.3561 79.3404Z" fill="#D9D9D9"/>
<path d="M78.5462 17.8489L78.7385 17.7274V16.7671L77.8294 16.8828L77.334 17.1952L78.5462 17.8489Z" fill="#A1A1A1"/>
<path d="M78.5462 16.8365L78.7385 16.767L77.5205 16.1133L77.334 16.1827L78.5462 16.8365Z" fill="#D9D9D9"/>
<path d="M78.5462 16.8365V17.8489L77.334 17.1952V16.1828L78.5462 16.8365Z" fill="#BFBFBF"/>
<path d="M107.43 33.9261L107.622 33.8104V32.8443L106.713 32.96L106.217 33.2782L107.43 33.9261Z" fill="#A1A1A1"/>
<path d="M107.43 32.9137L107.622 32.8443L106.41 32.1905L106.217 32.2599L107.43 32.9137Z" fill="#D9D9D9"/>
<path d="M107.429 32.9137V33.9261L106.217 33.2782V32.26L107.429 32.9137Z" fill="#BFBFBF"/>
</g>
<defs>
<filter id="filter0_d" x="0" y="0" width="166" height="123" filterUnits="userSpaceOnUse" color-interpolation-filters="sRGB">
<feFlood flood-opacity="0" result="BackgroundImageFix"/>
<feColorMatrix in="SourceAlpha" type="matrix" values="0 0 0 0 0 0 0 0 0 0 0 0 0 0 0 0 0 0 127 0" result="hardAlpha"/>
<feOffset dy="4"/>
<feGaussianBlur stdDeviation="4"/>
<feComposite in2="hardAlpha" operator="out"/>
<feColorMatrix type="matrix" values="0 0 0 0 0 0 0 0 0 0 0 0 0 0 0 0 0 0 0.5 0"/>
<feBlend mode="normal" in2="BackgroundImageFix" result="effect1_dropShadow"/>
<feBlend mode="normal" in="SourceGraphic" in2="effect1_dropShadow" result="shape"/>
</filter>
<linearGradient id="paint0_linear" x1="285.762" y1="533.217" x2="280.704" y2="543.204" gradientUnits="userSpaceOnUse">
<stop offset="0.16" stop-color="#BFBFBF"/>
<stop offset="0.17" stop-color="#D9D9D9"/>
<stop offset="0.44" stop-color="#BFBFBF"/>
<stop offset="0.84" stop-color="#A1A1A1"/>
</linearGradient>
<linearGradient id="paint1_linear" x1="561.905" y1="1885.49" x2="405.586" y2="2088.25" gradientUnits="userSpaceOnUse">
<stop offset="0.13" stop-color="#EB3817"/>
<stop offset="0.14" stop-color="#F15737"/>
<stop offset="0.44" stop-color="#F15737"/>
<stop offset="0.45" stop-color="#EB3817"/>
<stop offset="0.84" stop-color="#AF2C12"/>
</linearGradient>
<linearGradient id="paint2_linear" x1="658.914" y1="2106.97" x2="466.792" y2="2362.61" gradientUnits="userSpaceOnUse">
<stop offset="0.13" stop-color="#EB3817"/>
<stop offset="0.14" stop-color="#EB5535"/>
<stop offset="0.44" stop-color="#EB5535"/>
<stop offset="0.45" stop-color="#EB3817"/>
<stop offset="0.84" stop-color="#AF2D11"/>
</linearGradient>
<linearGradient id="paint3_linear" x1="565.01" y1="1887.77" x2="410.243" y2="2052.89" gradientUnits="userSpaceOnUse">
<stop offset="0.16" stop-color="#EB3817"/>
<stop offset="0.55" stop-color="#EB3817"/>
<stop offset="0.56" stop-color="#EB5535"/>
<stop offset="0.86" stop-color="#EB5535"/>
<stop offset="0.87" stop-color="#EB3817"/>
</linearGradient>
<linearGradient id="paint4_linear" x1="754.738" y1="2301.45" x2="531.005" y2="2603.68" gradientUnits="userSpaceOnUse">
<stop offset="0.13" stop-color="#F93A17"/>
<stop offset="0.14" stop-color="#FF5B38"/>
<stop offset="0.44" stop-color="#FF5B38"/>
<stop offset="0.45" stop-color="#F93A17"/>
<stop offset="0.84" stop-color="#BD2A0B"/>
</linearGradient>
<linearGradient id="paint5_linear" x1="630.819" y1="2038.75" x2="453.196" y2="2228.19" gradientUnits="userSpaceOnUse">
<stop offset="0.16" stop-color="#F93A17"/>
<stop offset="0.55" stop-color="#F93A17"/>
<stop offset="0.56" stop-color="#FF5B38"/>
<stop offset="0.86" stop-color="#FF5B38"/>
<stop offset="0.87" stop-color="#F93A17"/>
</linearGradient>
<linearGradient id="paint6_linear" x1="232.359" y1="476.985" x2="225.118" y2="486.852" gradientUnits="userSpaceOnUse">
<stop offset="0.16" stop-color="#BFBFBF"/>
<stop offset="0.17" stop-color="#D9D9D9"/>
<stop offset="0.44" stop-color="#BFBFBF"/>
<stop offset="0.84" stop-color="#A1A1A1"/>
</linearGradient>
<linearGradient id="paint7_linear" x1="4861.22" y1="4822.57" x2="4826.06" y2="4924.15" gradientUnits="userSpaceOnUse">
<stop offset="0.16" stop-color="#BFBFBF"/>
<stop offset="0.17" stop-color="#D9D9D9"/>
<stop offset="0.44" stop-color="#BFBFBF"/>
<stop offset="0.84" stop-color="#A1A1A1"/>
</linearGradient>
<linearGradient id="paint8_linear" x1="1549.95" y1="2991.03" x2="1326.51" y2="3294.14" gradientUnits="userSpaceOnUse">
<stop offset="0.13" stop-color="#F93A17"/>
<stop offset="0.14" stop-color="#FF5B38"/>
<stop offset="0.44" stop-color="#FF5B38"/>
<stop offset="0.45" stop-color="#F93A17"/>
<stop offset="0.84" stop-color="#BD2A0B"/>
</linearGradient>
<linearGradient id="paint9_linear" x1="1227.38" y1="2628.44" x2="1049.84" y2="2817.87" gradientUnits="userSpaceOnUse">
<stop offset="0.16" stop-color="#F93A17"/>
<stop offset="0.55" stop-color="#F93A17"/>
<stop offset="0.56" stop-color="#FF5B38"/>
<stop offset="0.86" stop-color="#FF5B38"/>
<stop offset="0.87" stop-color="#F93A17"/>
</linearGradient>
<linearGradient id="paint10_linear" x1="1437.95" y1="2792.61" x2="1245.75" y2="3048.01" gradientUnits="userSpaceOnUse">
<stop offset="0.13" stop-color="#F93A17"/>
<stop offset="0.14" stop-color="#FF5B38"/>
<stop offset="0.44" stop-color="#FF5B38"/>
<stop offset="0.45" stop-color="#F93A17"/>
<stop offset="0.84" stop-color="#BD2A0B"/>
</linearGradient>
<linearGradient id="paint11_linear" x1="1172.11" y1="2484.11" x2="1017.43" y2="2649.44" gradientUnits="userSpaceOnUse">
<stop offset="0.16" stop-color="#F93A17"/>
<stop offset="0.55" stop-color="#F93A17"/>
<stop offset="0.56" stop-color="#FF5B38"/>
<stop offset="0.86" stop-color="#FF5B38"/>
<stop offset="0.87" stop-color="#F93A17"/>
</linearGradient>
<linearGradient id="paint12_linear" x1="1287.89" y1="2532.87" x2="1131.57" y2="2735.64" gradientUnits="userSpaceOnUse">
<stop offset="0.13" stop-color="#F93A17"/>
<stop offset="0.14" stop-color="#FF5B38"/>
<stop offset="0.44" stop-color="#FF5B38"/>
<stop offset="0.45" stop-color="#F93A17"/>
<stop offset="0.84" stop-color="#BD2A0B"/>
</linearGradient>
<linearGradient id="paint13_linear" x1="1080.02" y1="2269.8" x2="953.436" y2="2405.08" gradientUnits="userSpaceOnUse">
<stop offset="0.16" stop-color="#F93A17"/>
<stop offset="0.55" stop-color="#F93A17"/>
<stop offset="0.56" stop-color="#FF5B38"/>
<stop offset="0.86" stop-color="#FF5B38"/>
<stop offset="0.87" stop-color="#F93A17"/>
</linearGradient>
<linearGradient id="paint14_linear" x1="463.766" y1="636.428" x2="456.511" y2="646.347" gradientUnits="userSpaceOnUse">
<stop offset="0.16" stop-color="#BFBFBF"/>
<stop offset="0.17" stop-color="#D9D9D9"/>
<stop offset="0.44" stop-color="#BFBFBF"/>
<stop offset="0.84" stop-color="#A1A1A1"/>
</linearGradient>
<linearGradient id="paint15_linear" x1="721.718" y1="753.982" x2="716.663" y2="763.968" gradientUnits="userSpaceOnUse">
<stop offset="0.16" stop-color="#BFBFBF"/>
<stop offset="0.17" stop-color="#D9D9D9"/>
<stop offset="0.44" stop-color="#BFBFBF"/>
<stop offset="0.84" stop-color="#A1A1A1"/>
</linearGradient>
<linearGradient id="paint16_linear" x1="318.997" y1="1732.11" x2="304.322" y2="1767.52" gradientUnits="userSpaceOnUse">
<stop offset="0.12" stop-color="#434F5C"/>
<stop offset="0.53" stop-color="#293138"/>
<stop offset="0.85" stop-color="#293138"/>
<stop offset="0.87" stop-color="#1E2429"/>
</linearGradient>
<linearGradient id="paint17_linear" x1="417.634" y1="1775.32" x2="402.194" y2="1809.59" gradientUnits="userSpaceOnUse">
<stop offset="0.12" stop-color="#434F5C"/>
<stop offset="0.53" stop-color="#293138"/>
<stop offset="0.85" stop-color="#293138"/>
<stop offset="0.87" stop-color="#1E2429"/>
</linearGradient>
</defs>
</svg>
