<svg width="166" height="135" viewBox="0 0 166 135" fill="none" xmlns="http://www.w3.org/2000/svg">
<g filter="url(#filter0_d)">
<path d="M67.3514 122.208L65.9795 123V78.3619L67.3514 77.5696V122.208Z" fill="#AEB1B5"/>
<path d="M64.6075 122.208L65.9794 123V78.3619L64.6075 77.5696V122.208Z" fill="#DBDBDB"/>
<path d="M104.997 100.454L103.614 101.246V56.6195L104.997 55.8272V100.454Z" fill="#AEB1B5"/>
<path d="M102.241 100.454L103.613 101.246V56.6195L102.241 55.8272V100.454Z" fill="#DBDBDB"/>
<path d="M116.541 93.3928L115.169 94.1851V49.5586L116.541 48.7547V93.3928Z" fill="#AEB1B5"/>
<path d="M113.786 93.3928L115.17 94.1851V49.5586L113.786 48.7547V93.3928Z" fill="#DBDBDB"/>
<path d="M152.803 36.3338V72.4427L154.175 71.6388V36.3338H152.803Z" fill="#AEB1B5"/>
<path d="M151.432 36.3338V71.6388L152.803 72.4427V36.3338H151.432Z" fill="#DBDBDB"/>
<path d="M26.4738 98.9972L25.0903 99.7895V55.1631L26.4738 54.3707V98.9972Z" fill="#AEB1B5"/>
<path d="M23.7183 98.9972L25.0901 99.7895V55.1631L23.7183 54.3707V98.9972Z" fill="#DBDBDB"/>
<path d="M64.1071 77.255L62.7352 78.0473V33.4092L64.1071 32.6169V77.255Z" fill="#AEB1B5"/>
<path d="M61.3523 77.255L62.7358 78.0473V33.4092L61.3523 32.6169V77.255Z" fill="#DBDBDB"/>
<path d="M75.6524 70.1823L74.2805 70.9746V26.3482L75.6524 25.5559V70.1823Z" fill="#AEB1B5"/>
<path d="M72.9082 70.1823L74.2801 70.9746V26.3482L72.9082 25.5559V70.1823Z" fill="#DBDBDB"/>
<path d="M111.914 14.1487V49.2323L113.286 48.44V14.1487H111.914Z" fill="#AEB1B5"/>
<path d="M110.542 14.1487V48.44L111.914 49.2323V14.1487H110.542Z" fill="#DBDBDB"/>
<path d="M8 61.5833L58.6666 90.9225L158 33.4907L107.124 4L8 61.5833Z" fill="#2C98DB"/>
<path d="M58.7945 89.0117L11.36 61.5367L11.8018 61.2803L107.136 5.9109L107.275 5.99247L154.721 33.5257L154.28 33.782L58.7945 89.0117ZM12.5226 61.5367L58.8061 88.3359L153.57 33.5723L107.066 6.63332L12.5226 61.5367Z" fill="white"/>
<path d="M58.6663 90.9226V93.9637L158 36.5319V33.4908L58.6663 90.9226Z" fill="#1E72C6"/>
<path d="M8 61.5833V64.6244L58.6666 93.9637V90.9226L8 61.5833Z" fill="#2382C9"/>
<path d="M129.723 19.1508L34.4033 74.3496L34.6941 74.8541L130.014 19.6552L129.723 19.1508Z" fill="white"/>
<path d="M59.1083 24.0877H58.1549V33.4208H59.1083V24.0877Z" fill="#0F0F0F"/>
<path d="M59.1083 24.0879C59.1083 24.2394 58.899 24.3677 58.6316 24.3677C58.3642 24.3677 58.1549 24.2394 58.1549 24.0879C58.1549 23.9363 58.3758 23.7964 58.6316 23.7964C58.8874 23.7964 59.1083 23.9713 59.1083 24.0879Z" fill="#353535"/>
<path d="M59.1083 33.421C59.1083 33.5842 58.899 33.7124 58.6316 33.7124C58.3642 33.7124 58.1549 33.5842 58.1549 33.421C58.1549 33.2578 58.3758 33.1295 58.6316 33.1295C58.8874 33.1295 59.1083 33.2927 59.1083 33.421Z" fill="#0F0F0F"/>
<path d="M107.635 53.4853H107.554L58.8522 24.985C58.8285 24.9574 58.8154 24.9223 58.8154 24.8859C58.8154 24.8496 58.8285 24.8144 58.8522 24.7869C58.8738 24.7531 58.9071 24.7284 58.9457 24.7177C58.9843 24.7069 59.0256 24.7108 59.0615 24.7286L107.705 53.2173C107.718 53.2303 107.728 53.2457 107.735 53.2627C107.743 53.2797 107.746 53.2979 107.746 53.3164C107.746 53.3348 107.743 53.353 107.735 53.37C107.728 53.387 107.718 53.4024 107.705 53.4154C107.699 53.4311 107.689 53.4454 107.677 53.4574C107.665 53.4694 107.651 53.4789 107.635 53.4853Z" fill="#E2E2E2"/>
<path d="M103.322 51.7958H103.206L62.5145 27.9445C62.4816 27.925 62.4574 27.8937 62.4466 27.857C62.4358 27.8202 62.4393 27.7807 62.4564 27.7465C62.478 27.7126 62.5113 27.688 62.5499 27.6772C62.5885 27.6665 62.6298 27.6704 62.6657 27.6882L103.357 51.5278C103.37 51.5408 103.38 51.5562 103.387 51.5732C103.394 51.5902 103.398 51.6085 103.398 51.6269C103.398 51.6453 103.394 51.6635 103.387 51.6805C103.38 51.6975 103.37 51.7129 103.357 51.7259C103.353 51.7523 103.341 51.7767 103.322 51.7958Z" fill="#E2E2E2"/>
<path d="M103.322 52.658C103.311 52.6632 103.299 52.6659 103.287 52.6659C103.275 52.6659 103.263 52.6632 103.252 52.658L62.5144 28.8068C62.4964 28.7812 62.4867 28.7507 62.4867 28.7194C62.4867 28.6881 62.4964 28.6576 62.5144 28.632C62.5425 28.6049 62.58 28.5898 62.619 28.5898C62.658 28.5898 62.6955 28.6049 62.7236 28.632L103.415 52.4716C103.428 52.4846 103.438 52.5 103.445 52.517C103.452 52.534 103.456 52.5522 103.456 52.5706C103.456 52.589 103.452 52.6073 103.445 52.6243C103.438 52.6413 103.428 52.6567 103.415 52.6697C103.384 52.6777 103.35 52.6736 103.322 52.658Z" fill="#E2E2E2"/>
<path d="M103.322 53.4619H103.252L62.5145 29.599C62.4816 29.5795 62.4574 29.5482 62.4466 29.5114C62.4358 29.4747 62.4393 29.4352 62.4564 29.4009C62.4845 29.3738 62.522 29.3587 62.561 29.3587C62.6 29.3587 62.6375 29.3738 62.6657 29.4009L103.357 53.2405C103.37 53.2535 103.38 53.2689 103.387 53.2859C103.394 53.3029 103.398 53.3212 103.398 53.3396C103.398 53.358 103.394 53.3762 103.387 53.3932C103.38 53.4102 103.37 53.4256 103.357 53.4386C103.347 53.4482 103.335 53.4561 103.322 53.4619Z" fill="#E2E2E2"/>
<path d="M103.322 54.3242L103.206 54.2659L62.5145 30.4612C62.4816 30.4417 62.4574 30.4104 62.4466 30.3737C62.4358 30.3369 62.4393 30.2974 62.4564 30.2632C62.4845 30.2361 62.522 30.221 62.561 30.221C62.6 30.221 62.6375 30.2361 62.6657 30.2632L103.357 54.0911C103.384 54.1193 103.399 54.1569 103.399 54.196C103.399 54.2351 103.384 54.2726 103.357 54.3008C103.347 54.3105 103.335 54.3184 103.322 54.3242Z" fill="#E2E2E2"/>
<path d="M107.298 59.9753H107.228L58.8522 31.6264C58.8285 31.5989 58.8154 31.5638 58.8154 31.5274C58.8154 31.491 58.8285 31.4559 58.8522 31.4284C58.8804 31.4013 58.9179 31.3862 58.9569 31.3862C58.9959 31.3862 59.0333 31.4013 59.0615 31.4284L107.438 59.7423C107.451 59.7553 107.461 59.7707 107.468 59.7877C107.475 59.8047 107.479 59.8229 107.479 59.8413C107.479 59.8597 107.475 59.8779 107.468 59.8949C107.461 59.9119 107.451 59.9274 107.438 59.9403C107.42 59.9583 107.397 59.9711 107.373 59.9772C107.348 59.9834 107.322 59.9827 107.298 59.9753Z" fill="#E2E2E2"/>
<path d="M103.322 55.1282H103.252L62.5145 31.2653C62.4816 31.2457 62.4574 31.2144 62.4466 31.1777C62.4358 31.1409 62.4393 31.1015 62.4564 31.0672C62.478 31.0334 62.5113 31.0087 62.5499 30.998C62.5885 30.9872 62.6298 30.9911 62.6657 31.0089L103.357 54.8485C103.37 54.8615 103.38 54.877 103.387 54.894C103.394 54.911 103.398 54.9292 103.398 54.9476C103.398 54.966 103.394 54.9842 103.387 55.0012C103.38 55.0182 103.37 55.0336 103.357 55.0466C103.355 55.0769 103.342 55.1055 103.322 55.1282Z" fill="#E2E2E2"/>
<path d="M103.322 55.9788H103.206L62.5145 32.1275C62.4816 32.108 62.4574 32.0767 62.4466 32.0399C62.4358 32.0032 62.4393 31.9637 62.4564 31.9294C62.4857 31.9048 62.5228 31.8913 62.561 31.8913C62.5993 31.8913 62.6364 31.9048 62.6657 31.9294L103.357 55.769C103.37 55.782 103.38 55.7975 103.387 55.8145C103.394 55.8315 103.398 55.8497 103.398 55.8681C103.398 55.8865 103.394 55.9047 103.387 55.9217C103.38 55.9387 103.37 55.9541 103.357 55.9671C103.346 55.9727 103.334 55.9766 103.322 55.9788Z" fill="#E2E2E2"/>
<path d="M103.322 56.7827C103.311 56.7878 103.299 56.7905 103.287 56.7905C103.275 56.7905 103.263 56.7878 103.252 56.7827L62.5146 32.9314C62.4808 32.9097 62.4562 32.8764 62.4455 32.8377C62.4348 32.799 62.4387 32.7577 62.4565 32.7217C62.4846 32.6946 62.5221 32.6795 62.5611 32.6795C62.6001 32.6795 62.6376 32.6946 62.6657 32.7217L103.357 56.5613C103.37 56.5743 103.38 56.5897 103.387 56.6067C103.395 56.6237 103.398 56.6419 103.398 56.6603C103.398 56.6787 103.395 56.6969 103.387 56.7139C103.38 56.7309 103.37 56.7464 103.357 56.7594C103.347 56.769 103.335 56.7769 103.322 56.7827Z" fill="#E2E2E2"/>
<path d="M108.112 52.6463H107.159V61.8047H108.112V52.6463Z" fill="#0F0F0F"/>
<path d="M108.101 52.6465C108.101 52.798 107.891 52.9379 107.636 52.9379C107.38 52.9379 107.159 52.798 107.159 52.6465C107.159 52.495 107.368 52.3551 107.636 52.3551C107.903 52.3551 108.101 52.4833 108.101 52.6465Z" fill="#353535"/>
<path d="M108.101 61.8048C108.101 61.968 107.891 62.0962 107.636 62.0962C107.38 62.0962 107.159 61.968 107.159 61.8048C107.159 61.6416 107.368 61.525 107.636 61.525C107.903 61.525 108.101 61.6532 108.101 61.8048Z" fill="#0F0F0F"/>
<path d="M64.0842 34.4694L63.7936 34.3529V27.6997L64.0842 27.8163V34.4694Z" fill="#E2E2E2"/>
<path d="M65.4915 35.3085L65.2008 35.192V28.5504L65.4915 28.6553V35.3085Z" fill="#E2E2E2"/>
<path d="M66.8167 36.0657L66.526 35.9609V29.3077L66.8167 29.4242V36.0657Z" fill="#E2E2E2"/>
<path d="M68.2229 36.9048L67.9323 36.7999V30.1468L68.2229 30.2633V36.9048Z" fill="#E2E2E2"/>
<path d="M69.6415 37.732L69.3508 37.6272V30.974L69.6415 31.0789V37.732Z" fill="#E2E2E2"/>
<path d="M71.0482 38.571L70.7576 38.4661V31.8129L71.0482 31.9294V38.571Z" fill="#E2E2E2"/>
<path d="M72.3734 39.34L72.0828 39.2235V32.5819L72.3734 32.6868V39.34Z" fill="#E2E2E2"/>
<path d="M73.7802 40.1789L73.4895 40.074V33.4209L73.7802 33.5257V40.1789Z" fill="#E2E2E2"/>
<path d="M75.187 41.0178L74.8848 40.9129V34.2597L75.187 34.3646V41.0178Z" fill="#E2E2E2"/>
<path d="M76.5121 41.7868L76.2214 41.682V35.0288L76.5121 35.1337V41.7868Z" fill="#E2E2E2"/>
<path d="M77.9195 42.6257L77.6172 42.5209V35.8677L77.9195 35.9725V42.6257Z" fill="#E2E2E2"/>
<path d="M79.3379 43.4531L79.0472 43.3366V36.6834L79.3379 36.7999V43.4531Z" fill="#E2E2E2"/>
<path d="M80.7327 44.292L80.442 44.1755V37.5223L80.7327 37.6388V44.292Z" fill="#E2E2E2"/>
<path d="M82.0702 45.0494L81.7795 44.9445V38.2914L82.0702 38.4079V45.0494Z" fill="#E2E2E2"/>
<path d="M83.4651 45.8883L83.1744 45.7834V39.1302L83.4651 39.2468V45.8883Z" fill="#E2E2E2"/>
<path d="M84.8018 46.6573L84.5111 46.5525V39.8993L84.8018 40.0158V46.6573Z" fill="#E2E2E2"/>
<path d="M86.2087 47.4963L85.9064 47.3914V40.7382L86.2087 40.8547V47.4963Z" fill="#E2E2E2"/>
<path d="M87.6276 48.3235L87.3369 48.207V41.5654L87.6276 41.6703V48.3235Z" fill="#E2E2E2"/>
<path d="M89.0219 49.1624L88.7312 49.0459V42.4043L89.0219 42.5092V49.1624Z" fill="#E2E2E2"/>
<path d="M90.359 49.9314L90.0684 49.8149V43.1734L90.359 43.2783V49.9314Z" fill="#E2E2E2"/>
<path d="M91.7543 50.7704L91.4636 50.6539V44.0123L91.7543 44.1172V50.7704Z" fill="#E2E2E2"/>
<path d="M93.1605 51.5161L92.8699 51.4112V44.7581L93.1605 44.8629V51.5161Z" fill="#E2E2E2"/>
<path d="M94.5791 52.3318L94.2885 52.2269V45.5854L94.5791 45.6903V52.3318Z" fill="#E2E2E2"/>
<path d="M96.1375 53.1824L95.8352 53.0659V46.4243L96.1375 46.5292V53.1824Z" fill="#E2E2E2"/>
<path d="M97.5326 54.1494L97.2419 54.0329V47.3913L97.5326 47.4962V54.1494Z" fill="#E2E2E2"/>
<path d="M99.0785 54.9768L98.7878 54.8719V48.2188L99.0785 48.3236V54.9768Z" fill="#E2E2E2"/>
<path d="M100.555 55.8273L100.265 55.7225V49.0693L100.555 49.1742V55.8273Z" fill="#E2E2E2"/>
<path d="M101.962 56.6662L101.671 56.5614V49.9082L101.962 50.013V56.6662Z" fill="#E2E2E2"/>
<path d="M103.474 50.8171H103.183V57.4703H103.474V50.8171Z" fill="#E2E2E2"/>
<path d="M62.759 27.0123H62.4684V33.6655H62.759V27.0123Z" fill="#E2E2E2"/>
<path d="M104.706 71.4874L66.4441 93.6142V96.2708L104.706 74.1557V71.4874Z" fill="#AEB1B5"/>
<path d="M115.774 65.0904V67.7587L153.489 45.9465V43.2782L115.774 65.0904Z" fill="#AEB1B5"/>
</g>
<defs>
<filter id="filter0_d" x="0" y="0" width="166" height="135" filterUnits="userSpaceOnUse" color-interpolation-filters="sRGB">
<feFlood flood-opacity="0" result="BackgroundImageFix"/>
<feColorMatrix in="SourceAlpha" type="matrix" values="0 0 0 0 0 0 0 0 0 0 0 0 0 0 0 0 0 0 127 0" result="hardAlpha"/>
<feOffset dy="4"/>
<feGaussianBlur stdDeviation="4"/>
<feComposite in2="hardAlpha" operator="out"/>
<feColorMatrix type="matrix" values="0 0 0 0 0 0 0 0 0 0 0 0 0 0 0 0 0 0 0.5 0"/>
<feBlend mode="normal" in2="BackgroundImageFix" result="effect1_dropShadow"/>
<feBlend mode="normal" in="SourceGraphic" in2="effect1_dropShadow" result="shape"/>
</filter>
</defs>
</svg>
