<svg width="166" height="106" viewBox="0 0 166 106" fill="none" xmlns="http://www.w3.org/2000/svg">
<g filter="url(#filter0_d)">
<path d="M8 59.1255L62.671 90.7244L158 35.7576L103.105 4L8 59.1255Z" fill="#D6403C"/>
<path d="M62.6708 90.7244V94L158 39.0332V35.7576L62.6708 90.7244Z" fill="#AD2825"/>
<path d="M8 59.1254V62.4197L62.671 93.9999V90.7243L8 59.1254Z" fill="#BE352D"/>
<path d="M11.7319 59.1528L62.5218 88.4933L153.699 35.8316L102.704 6.34174L11.7319 59.1528Z" fill="#94C628"/>
<path d="M107.453 62.6436L56.5789 33.2098L57.1946 32.8552L108.068 62.2703L107.453 62.6436Z" fill="white"/>
<path d="M44.6739 48.6855L44.3809 49.1951L78.7179 68.9535L79.011 68.4439L44.6739 48.6855Z" fill="white"/>
<path d="M86.3852 24.8914L86.0922 25.401L120.13 44.9872L120.423 44.4776L86.3852 24.8914Z" fill="white"/>
<path d="M53.9385 83.4452L53.3414 83.1092L144.5 30.4195L145.088 30.7648L53.9385 83.4452Z" fill="white"/>
<path d="M101.91 33.7381L60.606 57.8133L60.9019 58.3213L102.205 34.2461L101.91 33.7381Z" fill="white"/>
<path d="M19.7179 63.6795L19.1301 63.3436L110.41 10.7098L111.007 11.0551L19.7179 63.6795Z" fill="white"/>
<path d="M58.0526 33.3591C58.0526 33.5177 57.838 33.6483 57.5675 33.6483C57.2969 33.6483 57.0917 33.5177 57.0917 33.3591C57.0917 33.2005 57.3062 33.0699 57.5675 33.0699C57.8287 33.0699 58.0526 33.1912 58.0526 33.3591Z" fill="#0F0F0F"/>
<path d="M58.0526 22.1046H57.0917V33.3406H58.0526V22.1046Z" fill="#0F0F0F"/>
<path d="M58.0526 22.1044C58.0526 22.263 57.838 22.3936 57.5675 22.3936C57.2969 22.3936 57.0917 22.263 57.0917 22.1044C57.0917 21.9458 57.3062 21.8152 57.5675 21.8152C57.8287 21.8152 58.0526 21.9458 58.0526 22.1044Z" fill="#353535"/>
<path d="M107.21 51.3237C107.186 51.3322 107.159 51.3322 107.135 51.3237L57.7914 22.5244C57.7583 22.5032 57.7342 22.4705 57.7238 22.4325C57.7135 22.3946 57.7176 22.3542 57.7354 22.3191C57.7579 22.2875 57.7906 22.2647 57.828 22.2545C57.8654 22.2442 57.9052 22.2473 57.9406 22.2631L107.284 51.0717C107.301 51.0805 107.316 51.0926 107.328 51.1074C107.341 51.1221 107.35 51.1392 107.355 51.1576C107.36 51.1759 107.361 51.1952 107.359 51.2141C107.357 51.233 107.35 51.2513 107.34 51.2677C107.326 51.2886 107.307 51.3051 107.283 51.315C107.26 51.3249 107.235 51.3279 107.21 51.3237Z" fill="#E2E2E2"/>
<path d="M107.173 52.1449H107.098L57.7919 23.3177C57.7603 23.2952 57.7374 23.2624 57.7272 23.225C57.717 23.1876 57.7201 23.1478 57.7359 23.1124C57.7571 23.0792 57.7898 23.0552 57.8277 23.0448C57.8657 23.0345 57.9061 23.0386 57.9411 23.0564L107.248 51.865C107.281 51.8861 107.305 51.9189 107.315 51.9568C107.325 51.9948 107.321 52.0352 107.304 52.0703C107.29 52.0932 107.271 52.1121 107.248 52.1252C107.225 52.1384 107.199 52.1451 107.173 52.1449Z" fill="#E2E2E2"/>
<path d="M107.21 53.0315C107.186 53.0409 107.159 53.0409 107.135 53.0315L57.7914 24.1856C57.7583 24.1644 57.7342 24.1317 57.7238 24.0937C57.7135 24.0558 57.7176 24.0154 57.7354 23.9803C57.7566 23.9472 57.7893 23.9231 57.8272 23.9128C57.8652 23.9024 57.9056 23.9066 57.9406 23.9243L107.284 52.7609C107.318 52.7821 107.342 52.8148 107.352 52.8528C107.362 52.8907 107.358 52.9311 107.34 52.9662C107.326 52.9874 107.307 53.0045 107.284 53.0159C107.261 53.0274 107.235 53.0327 107.21 53.0315Z" fill="#E2E2E2"/>
<path d="M107.21 53.8434C107.186 53.8528 107.16 53.8528 107.136 53.8434L57.7919 24.9975C57.7603 24.975 57.7374 24.9423 57.7272 24.9049C57.717 24.8674 57.7201 24.8276 57.7359 24.7922C57.7571 24.7591 57.7898 24.735 57.8277 24.7247C57.8657 24.7143 57.9061 24.7184 57.9411 24.7362L107.285 53.5728C107.317 53.5923 107.341 53.6233 107.352 53.6597C107.362 53.6961 107.358 53.7351 107.341 53.7688C107.327 53.791 107.308 53.8095 107.285 53.8226C107.262 53.8356 107.237 53.8428 107.21 53.8434Z" fill="#E2E2E2"/>
<path d="M106.874 54.5247H106.799L57.7914 25.8655C57.7583 25.8443 57.7342 25.8115 57.7238 25.7736C57.7135 25.7356 57.7176 25.6952 57.7354 25.6601C57.7579 25.6285 57.7906 25.6057 57.828 25.5955C57.8654 25.5853 57.9052 25.5883 57.9406 25.6041L106.949 54.2541C106.978 54.2702 107.001 54.2956 107.014 54.3263C107.027 54.3569 107.029 54.391 107.021 54.4232C107.012 54.4554 106.993 54.4838 106.966 54.5039C106.94 54.524 106.907 54.5346 106.874 54.5341V54.5247Z" fill="#E2E2E2"/>
<path d="M106.874 57.8843H106.799L57.7915 29.225C57.7665 29.2057 57.7478 29.1795 57.7379 29.1496C57.7279 29.1196 57.7271 29.0874 57.7355 29.057C57.7566 29.0237 57.79 29.0001 57.8285 28.9914C57.867 28.9826 57.9073 28.9894 57.9407 29.0104L106.949 57.6416C106.966 57.6513 106.981 57.6644 106.993 57.68C107.005 57.6956 107.014 57.7135 107.02 57.7326C107.025 57.7517 107.026 57.7716 107.024 57.7913C107.021 57.8109 107.015 57.8298 107.005 57.8469C106.987 57.8631 106.967 57.8748 106.944 57.8813C106.921 57.8878 106.897 57.8888 106.874 57.8843Z" fill="#E2E2E2"/>
<path d="M107.033 58.7802C107.009 58.788 106.983 58.788 106.958 58.7802L57.7919 30.0369C57.7603 30.0144 57.7374 29.9817 57.7272 29.9443C57.717 29.9069 57.7201 29.8671 57.7359 29.8316C57.7571 29.7985 57.7898 29.7744 57.8277 29.7641C57.8657 29.7538 57.9061 29.7579 57.9411 29.7756L107.108 58.5096C107.125 58.5183 107.14 58.5305 107.152 58.5452C107.164 58.56 107.173 58.5771 107.178 58.5955C107.183 58.6138 107.185 58.633 107.182 58.652C107.18 58.6709 107.173 58.6891 107.164 58.7055C107.152 58.7299 107.134 58.7502 107.11 58.7636C107.087 58.7769 107.06 58.7827 107.033 58.7802Z" fill="#E2E2E2"/>
<path d="M107.033 59.6574H106.958L57.7914 30.9235C57.7583 30.9023 57.7342 30.8695 57.7238 30.8316C57.7135 30.7937 57.7176 30.7532 57.7354 30.7182C57.7631 30.6919 57.7998 30.6773 57.838 30.6773C57.8762 30.6773 57.9129 30.6919 57.9406 30.7182L107.107 59.4428C107.136 59.4589 107.159 59.4843 107.172 59.5149C107.185 59.5456 107.188 59.5797 107.179 59.6119C107.171 59.6441 107.152 59.6725 107.125 59.6926C107.098 59.7126 107.066 59.7233 107.033 59.7227V59.6574Z" fill="#E2E2E2"/>
<path d="M107.033 60.4599C107.008 60.4678 106.982 60.4678 106.958 60.4599L57.7914 31.7167C57.7583 31.6955 57.7342 31.6627 57.7238 31.6248C57.7135 31.5868 57.7176 31.5464 57.7354 31.5113C57.7566 31.4782 57.7893 31.4542 57.8272 31.4438C57.8652 31.4335 57.9056 31.4376 57.9406 31.4554L107.107 60.1893C107.124 60.198 107.139 60.2102 107.151 60.225C107.163 60.2397 107.172 60.2568 107.177 60.2752C107.183 60.2935 107.184 60.3128 107.182 60.3317C107.179 60.3506 107.173 60.3688 107.163 60.3852C107.152 60.4096 107.133 60.4299 107.11 60.4433C107.086 60.4566 107.059 60.4625 107.033 60.4599Z" fill="#E2E2E2"/>
<path d="M107.21 61.4398C107.186 61.4476 107.159 61.4476 107.135 61.4398L57.7914 32.5845C57.7583 32.5633 57.7342 32.5306 57.7238 32.4927C57.7135 32.4547 57.7176 32.4143 57.7354 32.3792C57.7565 32.3459 57.7899 32.3223 57.8284 32.3136C57.8668 32.3048 57.9072 32.3117 57.9406 32.3326L107.284 61.1598C107.314 61.1759 107.337 61.2013 107.35 61.232C107.363 61.2626 107.365 61.2968 107.356 61.329C107.348 61.3611 107.329 61.3895 107.302 61.4096C107.276 61.4297 107.243 61.4403 107.21 61.4398Z" fill="#E2E2E2"/>
<path d="M107.21 55.5232C107.186 55.5325 107.159 55.5325 107.135 55.5232L57.7914 26.6773C57.7583 26.6561 57.7342 26.6233 57.7238 26.5854C57.7135 26.5475 57.7176 26.507 57.7354 26.472C57.7566 26.4388 57.7893 26.4148 57.8272 26.4044C57.8652 26.3941 57.9056 26.3982 57.9406 26.416L107.284 55.2525C107.317 55.272 107.341 55.3031 107.351 55.3395C107.361 55.3759 107.358 55.4148 107.34 55.4485C107.327 55.4708 107.307 55.4893 107.285 55.5023C107.262 55.5153 107.236 55.5225 107.21 55.5232Z" fill="#E2E2E2"/>
<path d="M107.21 56.4004C107.186 56.4083 107.159 56.4083 107.135 56.4004L57.7914 27.5452C57.7583 27.524 57.7342 27.4912 57.7238 27.4533C57.7135 27.4154 57.7176 27.3749 57.7354 27.3399C57.7579 27.3083 57.7906 27.2854 57.828 27.2752C57.8654 27.265 57.9052 27.2681 57.9406 27.2839L107.284 56.1204C107.314 56.1366 107.337 56.162 107.35 56.1926C107.363 56.2233 107.365 56.2574 107.356 56.2896C107.348 56.3218 107.329 56.3502 107.302 56.3702C107.276 56.3903 107.243 56.4009 107.21 56.4004Z" fill="#E2E2E2"/>
<path d="M107.033 57.1003C107.008 57.1082 106.982 57.1082 106.958 57.1003L57.7915 28.3571C57.7713 28.3466 57.7536 28.3319 57.7395 28.314C57.7255 28.2961 57.7155 28.2754 57.7102 28.2532C57.7049 28.2311 57.7044 28.2081 57.7088 28.1857C57.7131 28.1634 57.7222 28.1423 57.7355 28.1238C57.7567 28.0907 57.7894 28.0666 57.8274 28.0563C57.8653 28.0459 57.9057 28.05 57.9408 28.0678L107.107 56.8017C107.124 56.8105 107.139 56.8226 107.151 56.8374C107.163 56.8522 107.172 56.8692 107.178 56.8876C107.183 56.906 107.184 56.9252 107.182 56.9441C107.179 56.963 107.173 56.9813 107.163 56.9977C107.157 57.0273 107.14 57.0537 107.116 57.0724C107.093 57.0912 107.063 57.101 107.033 57.1003Z" fill="#E2E2E2"/>
<path d="M107.695 62.1397C107.695 62.2983 107.481 62.4289 107.21 62.4289C106.94 62.4289 106.725 62.2983 106.725 62.1397C106.725 61.9811 106.949 61.8504 107.21 61.8504C107.471 61.8504 107.695 61.9811 107.695 62.1397Z" fill="#0F0F0F"/>
<path d="M107.686 50.8851H106.725V62.1211H107.686V50.8851Z" fill="#0F0F0F"/>
<path d="M107.695 50.8849C107.695 51.0529 107.481 51.1741 107.21 51.1741C106.94 51.1741 106.725 51.0529 106.725 50.8849C106.725 50.717 106.949 50.5957 107.21 50.5957C107.471 50.5957 107.695 50.7263 107.695 50.8849Z" fill="#353535"/>
<path d="M82.0112 46.7136L82.6363 47.0682V36.6721L82.0112 36.3362V46.7136Z" fill="white"/>
<path d="M58.9579 33.1725C58.92 33.1701 58.8844 33.1533 58.8584 33.1256C58.8324 33.0978 58.8179 33.0612 58.818 33.0232V23.0097C58.818 22.9726 58.8327 22.937 58.859 22.9107C58.8852 22.8845 58.9208 22.8697 58.9579 22.8697C58.996 22.8696 59.0326 22.8841 59.0603 22.9101C59.0881 22.9361 59.1048 22.9717 59.1072 23.0097V33.0232C59.1072 33.0628 59.0915 33.1008 59.0635 33.1288C59.0355 33.1568 58.9975 33.1725 58.9579 33.1725Z" fill="#E2E2E2"/>
<path d="M60.2546 33.9657C60.215 33.9657 60.1771 33.95 60.1491 33.922C60.1211 33.894 60.1053 33.856 60.1053 33.8164V23.803C60.1053 23.7634 60.1211 23.7254 60.1491 23.6974C60.1771 23.6694 60.215 23.6536 60.2546 23.6536C60.2926 23.656 60.3282 23.6728 60.3542 23.7005C60.3802 23.7283 60.3946 23.7649 60.3946 23.803V33.8164C60.3946 33.8545 60.3802 33.8911 60.3542 33.9188C60.3282 33.9466 60.2926 33.9634 60.2546 33.9657Z" fill="#E2E2E2"/>
<path d="M61.542 34.7497C61.5024 34.7497 61.4644 34.734 61.4364 34.706C61.4084 34.678 61.3927 34.64 61.3927 34.6004V24.5869C61.3927 24.5673 61.3966 24.5479 61.4041 24.5298C61.4116 24.5117 61.4226 24.4952 61.4364 24.4813C61.4503 24.4675 61.4667 24.4565 61.4849 24.449C61.503 24.4415 61.5224 24.4376 61.542 24.4376C61.5616 24.4376 61.581 24.4415 61.5991 24.449C61.6172 24.4565 61.6337 24.4675 61.6475 24.4813C61.6614 24.4952 61.6724 24.5117 61.6799 24.5298C61.6874 24.5479 61.6912 24.5673 61.6912 24.5869V34.6004C61.6912 34.64 61.6755 34.678 61.6475 34.706C61.6195 34.734 61.5816 34.7497 61.542 34.7497Z" fill="#E2E2E2"/>
<path d="M62.8293 35.3935C62.7897 35.3935 62.7518 35.3778 62.7238 35.3498C62.6958 35.3218 62.6801 35.2838 62.6801 35.2442V25.4267C62.6801 25.3871 62.6958 25.3491 62.7238 25.3211C62.7518 25.2931 62.7897 25.2774 62.8293 25.2774C62.8689 25.2774 62.9069 25.2931 62.9349 25.3211C62.9629 25.3491 62.9786 25.3871 62.9786 25.4267V35.2442C62.9786 35.2838 62.9629 35.3218 62.9349 35.3498C62.9069 35.3778 62.8689 35.3935 62.8293 35.3935Z" fill="#E2E2E2"/>
<path d="M64.117 36.1774C64.0775 36.1774 64.0395 36.1617 64.0115 36.1337C63.9835 36.1057 63.9678 36.0677 63.9678 36.0281V26.0146C63.97 25.9758 63.9864 25.9391 64.014 25.9115C64.0415 25.884 64.0782 25.8676 64.117 25.8653C64.1566 25.8653 64.1946 25.8811 64.2226 25.9091C64.2506 25.9371 64.2663 25.975 64.2663 26.0146V36.0281C64.2663 36.0677 64.2506 36.1057 64.2226 36.1337C64.1946 36.1617 64.1566 36.1774 64.117 36.1774Z" fill="#E2E2E2"/>
<path d="M65.4137 36.8961C65.3741 36.8961 65.3361 36.8804 65.3081 36.8524C65.2801 36.8244 65.2644 36.7864 65.2644 36.7468V26.78C65.2644 26.7404 65.2801 26.7024 65.3081 26.6744C65.3361 26.6464 65.3741 26.6306 65.4137 26.6306C65.4516 26.633 65.4872 26.6498 65.5133 26.6775C65.5393 26.7053 65.5537 26.7419 65.5536 26.78V36.7468C65.5537 36.7848 65.5393 36.8214 65.5133 36.8492C65.4872 36.8769 65.4516 36.8937 65.4137 36.8961Z" fill="#E2E2E2"/>
<path d="M66.7014 37.68C66.6634 37.68 66.6267 37.6656 66.599 37.6396C66.5713 37.6136 66.5545 37.5779 66.5521 37.54V27.5358C66.5521 27.4962 66.5678 27.4582 66.5958 27.4302C66.6238 27.4022 66.6618 27.3865 66.7014 27.3865C66.741 27.3865 66.7789 27.4022 66.8069 27.4302C66.8349 27.4582 66.8507 27.4962 66.8507 27.5358V37.54C66.8483 37.5779 66.8315 37.6136 66.8038 37.6396C66.776 37.6656 66.7394 37.68 66.7014 37.68Z" fill="#E2E2E2"/>
<path d="M67.9887 38.5198C67.9492 38.5198 67.9112 38.5041 67.8832 38.4761C67.8552 38.4481 67.8395 38.4101 67.8395 38.3705V28.357C67.8395 28.3174 67.8552 28.2795 67.8832 28.2515C67.9112 28.2234 67.9492 28.2077 67.9887 28.2077C68.0283 28.2077 68.0663 28.2234 68.0943 28.2515C68.1223 28.2795 68.138 28.3174 68.138 28.357V38.3892C68.1335 38.4255 68.1157 38.4588 68.0882 38.4829C68.0607 38.507 68.0253 38.5201 67.9887 38.5198Z" fill="#E2E2E2"/>
<path d="M69.3043 39.3224C69.2654 39.3202 69.2288 39.3037 69.2012 39.2762C69.1737 39.2487 69.1573 39.212 69.155 39.1731V29.057C69.155 29.0174 69.1708 28.9794 69.1988 28.9514C69.2267 28.9234 69.2647 28.9077 69.3043 28.9077C69.3439 28.9077 69.3819 28.9234 69.4099 28.9514C69.4379 28.9794 69.4536 29.0174 69.4536 29.057V39.1264C69.4612 39.1495 69.4631 39.174 69.4591 39.198C69.4551 39.2219 69.4453 39.2445 69.4306 39.2638C69.4159 39.2831 69.3967 39.2985 69.3747 39.3087C69.3527 39.3189 69.3285 39.3236 69.3043 39.3224Z" fill="#E2E2E2"/>
<path d="M70.573 40.0224C70.5334 40.0224 70.4954 40.0067 70.4674 39.9787C70.4394 39.9507 70.4237 39.9127 70.4237 39.8731V29.9343C70.4237 29.8947 70.4394 29.8567 70.4674 29.8287C70.4954 29.8007 70.5334 29.7849 70.573 29.7849C70.6109 29.7873 70.6465 29.8041 70.6726 29.8318C70.6986 29.8596 70.713 29.8962 70.7129 29.9343V39.8731C70.713 39.9111 70.6986 39.9478 70.6726 39.9755C70.6465 40.0033 70.6109 40.02 70.573 40.0224Z" fill="#E2E2E2"/>
<path d="M71.8605 40.7783C71.8209 40.7783 71.7829 40.7626 71.7549 40.7345C71.7269 40.7065 71.7112 40.6686 71.7112 40.629V30.7181C71.7112 30.6785 71.7269 30.6406 71.7549 30.6126C71.7829 30.5846 71.8209 30.5688 71.8605 30.5688C71.9 30.5688 71.938 30.5846 71.966 30.6126C71.994 30.6406 72.0097 30.6785 72.0097 30.7181V40.629C72.0097 40.6686 71.994 40.7065 71.966 40.7345C71.938 40.7626 71.9 40.7783 71.8605 40.7783Z" fill="#E2E2E2"/>
<path d="M73.1478 41.5155C73.1082 41.5155 73.0703 41.4998 73.0423 41.4718C73.0143 41.4438 72.9985 41.4058 72.9985 41.3662V31.2967C72.9985 31.2571 73.0143 31.2191 73.0423 31.1911C73.0703 31.1631 73.1082 31.1474 73.1478 31.1474C73.1874 31.1474 73.2254 31.1631 73.2533 31.1911C73.2813 31.2191 73.2971 31.2571 73.2971 31.2967V41.3662C73.2971 41.4058 73.2813 41.4438 73.2533 41.4718C73.2254 41.4998 73.1874 41.5155 73.1478 41.5155Z" fill="#E2E2E2"/>
<path d="M74.4357 42.3088C74.3961 42.3088 74.3581 42.2931 74.3301 42.265C74.3021 42.237 74.2864 42.1991 74.2864 42.1595V32.146C74.2864 32.1064 74.3021 32.0684 74.3301 32.0404C74.3581 32.0124 74.3961 31.9967 74.4357 31.9967C74.4752 31.9967 74.5132 32.0124 74.5412 32.0404C74.5692 32.0684 74.5849 32.1064 74.5849 32.146V42.1221C74.5907 42.1446 74.5912 42.1681 74.5864 42.1908C74.5815 42.2135 74.5715 42.2347 74.557 42.2528C74.5425 42.2709 74.524 42.2854 74.5029 42.2951C74.4819 42.3048 74.4588 42.3095 74.4357 42.3088Z" fill="#E2E2E2"/>
<path d="M75.7228 43.0553C75.6849 43.0529 75.6493 43.0362 75.6233 43.0084C75.5973 42.9807 75.5828 42.944 75.5829 42.906V32.9112C75.5828 32.8732 75.5973 32.8365 75.6233 32.8088C75.6493 32.781 75.6849 32.7642 75.7228 32.7619C75.7624 32.7619 75.8004 32.7776 75.8284 32.8056C75.8564 32.8336 75.8721 32.8716 75.8721 32.9112V42.878C75.8763 42.8998 75.8755 42.9223 75.8699 42.9438C75.8643 42.9653 75.8539 42.9852 75.8396 43.0022C75.8253 43.0192 75.8074 43.0328 75.7872 43.042C75.767 43.0511 75.745 43.0557 75.7228 43.0553Z" fill="#E2E2E2"/>
<path d="M77.0199 43.6899C76.9803 43.6899 76.9423 43.6742 76.9143 43.6462C76.8863 43.6182 76.8706 43.5802 76.8706 43.5406V33.6578C76.8706 33.6182 76.8863 33.5802 76.9143 33.5522C76.9423 33.5242 76.9803 33.5085 77.0199 33.5085C77.0595 33.5085 77.0974 33.5242 77.1254 33.5522C77.1534 33.5802 77.1692 33.6182 77.1692 33.6578V43.5406C77.1692 43.5802 77.1534 43.6182 77.1254 43.6462C77.0974 43.6742 77.0595 43.6899 77.0199 43.6899Z" fill="#E2E2E2"/>
<path d="M78.3072 44.5485C78.2676 44.5485 78.2297 44.5328 78.2017 44.5048C78.1737 44.4768 78.158 44.4388 78.158 44.3992V34.4884C78.158 34.4488 78.1737 34.4108 78.2017 34.3828C78.2297 34.3548 78.2676 34.3391 78.3072 34.3391C78.3468 34.3391 78.3848 34.3548 78.4128 34.3828C78.4408 34.4108 78.4565 34.4488 78.4565 34.4884V44.3992C78.4565 44.4388 78.4408 44.4768 78.4128 44.5048C78.3848 44.5328 78.3468 44.5485 78.3072 44.5485Z" fill="#E2E2E2"/>
<path d="M79.5668 45.2857C79.5272 45.2857 79.4892 45.27 79.4612 45.242C79.4332 45.214 79.4175 45.176 79.4175 45.1364V35.2255C79.4175 35.1859 79.4332 35.148 79.4612 35.12C79.4892 35.092 79.5272 35.0762 79.5668 35.0762C79.6064 35.0762 79.6443 35.092 79.6723 35.12C79.7003 35.148 79.716 35.1859 79.716 35.2255V45.1364C79.716 45.176 79.7003 45.214 79.6723 45.242C79.6443 45.27 79.6064 45.2857 79.5668 45.2857Z" fill="#E2E2E2"/>
<path d="M80.7887 45.855C80.7491 45.855 80.7111 45.8392 80.6831 45.8112C80.6551 45.7832 80.6394 45.7453 80.6394 45.7057V35.8042C80.6394 35.7646 80.6551 35.7266 80.6831 35.6986C80.7111 35.6706 80.7491 35.6548 80.7887 35.6548C80.8283 35.6548 80.8662 35.6706 80.8942 35.6986C80.9222 35.7266 80.938 35.7646 80.938 35.8042V45.7243C80.9334 45.7606 80.9157 45.7939 80.8881 45.818C80.8606 45.8421 80.8252 45.8553 80.7887 45.855Z" fill="#E2E2E2"/>
<path d="M85.0337 48.3467C84.9941 48.3467 84.9561 48.331 84.9281 48.303C84.9001 48.275 84.8844 48.237 84.8844 48.1974V38.2306C84.8844 38.191 84.9001 38.153 84.9281 38.125C84.9561 38.097 84.9941 38.0813 85.0337 38.0813C85.0733 38.0813 85.1112 38.097 85.1392 38.125C85.1672 38.153 85.183 38.191 85.183 38.2306V48.1974C85.183 48.237 85.1672 48.275 85.1392 48.303C85.1112 48.331 85.0733 48.3467 85.0337 48.3467Z" fill="#E2E2E2"/>
<path d="M83.8024 47.7215C83.7628 47.7215 83.7248 47.7057 83.6968 47.6777C83.6688 47.6497 83.6531 47.6118 83.6531 47.5722V37.6053C83.6531 37.5857 83.6569 37.5663 83.6644 37.5482C83.6719 37.5301 83.6829 37.5136 83.6968 37.4998C83.7107 37.4859 83.7271 37.4749 83.7452 37.4674C83.7633 37.4599 83.7828 37.456 83.8024 37.456C83.822 37.456 83.8414 37.4599 83.8595 37.4674C83.8776 37.4749 83.894 37.4859 83.9079 37.4998C83.9218 37.5136 83.9328 37.5301 83.9403 37.5482C83.9478 37.5663 83.9516 37.5857 83.9516 37.6053V47.5722C83.9516 47.6118 83.9359 47.6497 83.9079 47.6777C83.8799 47.7057 83.8419 47.7215 83.8024 47.7215Z" fill="#E2E2E2"/>
<path d="M86.3213 49.1399C86.2834 49.1375 86.2478 49.1208 86.2218 49.093C86.1958 49.0653 86.1813 49.0286 86.1814 48.9906V38.9864C86.1813 38.9484 86.1958 38.9118 86.2218 38.884C86.2478 38.8563 86.2834 38.8395 86.3213 38.8371C86.3609 38.8371 86.3989 38.8529 86.4269 38.8809C86.4549 38.9089 86.4706 38.9468 86.4706 38.9864V48.9906C86.4706 49.0302 86.4549 49.0682 86.4269 49.0962C86.3989 49.1242 86.3609 49.1399 86.3213 49.1399Z" fill="#E2E2E2"/>
<path d="M87.618 49.9238C87.5784 49.9238 87.5405 49.9081 87.5125 49.8801C87.4845 49.8521 87.4688 49.8141 87.4688 49.7745V39.761C87.4711 39.7231 87.4879 39.6874 87.5156 39.6614C87.5434 39.6354 87.58 39.621 87.618 39.621C87.6551 39.621 87.6907 39.6358 87.717 39.662C87.7432 39.6883 87.758 39.7239 87.758 39.761V49.7745C87.758 49.8125 87.7436 49.8492 87.7176 49.8769C87.6916 49.9047 87.656 49.9214 87.618 49.9238Z" fill="#E2E2E2"/>
<path d="M88.8962 50.5677C88.8566 50.5677 88.8187 50.552 88.7907 50.524C88.7627 50.496 88.7469 50.458 88.7469 50.4184V40.6009C88.7469 40.5613 88.7627 40.5233 88.7907 40.4953C88.8187 40.4673 88.8566 40.4516 88.8962 40.4516C88.9358 40.4516 88.9738 40.4673 89.0018 40.4953C89.0298 40.5233 89.0455 40.5613 89.0455 40.6009V50.4184C89.0455 50.458 89.0298 50.496 89.0018 50.524C88.9738 50.552 88.9358 50.5677 88.8962 50.5677Z" fill="#E2E2E2"/>
<path d="M90.193 51.3517C90.1534 51.3517 90.1154 51.336 90.0874 51.308C90.0594 51.28 90.0437 51.242 90.0437 51.2024V41.2449C90.0437 41.2053 90.0594 41.1673 90.0874 41.1393C90.1154 41.1113 90.1534 41.0956 90.193 41.0956C90.2326 41.0956 90.2705 41.1113 90.2985 41.1393C90.3265 41.1673 90.3423 41.2053 90.3423 41.2449V51.2024C90.3423 51.242 90.3265 51.28 90.2985 51.308C90.2705 51.336 90.2326 51.3517 90.193 51.3517Z" fill="#E2E2E2"/>
<path d="M91.4808 52.0703C91.4428 52.0679 91.4072 52.0511 91.3812 52.0233C91.3552 51.9956 91.3407 51.959 91.3408 51.9209V42.0008C91.3407 41.9627 91.3552 41.9261 91.3812 41.8984C91.4072 41.8706 91.4428 41.8538 91.4808 41.8515C91.5203 41.8515 91.5583 41.8672 91.5863 41.8952C91.6143 41.9232 91.63 41.9612 91.63 42.0008V51.9209C91.63 51.9605 91.6143 51.9985 91.5863 52.0265C91.5583 52.0545 91.5203 52.0703 91.4808 52.0703Z" fill="#E2E2E2"/>
<path d="M92.7773 52.8542C92.7393 52.8543 92.7027 52.8398 92.6749 52.8138C92.6472 52.7878 92.6304 52.7522 92.6281 52.7142V42.7474C92.6304 42.7094 92.6472 42.6738 92.6749 42.6478C92.7027 42.6218 92.7393 42.6073 92.7773 42.6074C92.7957 42.6074 92.8139 42.611 92.8309 42.618C92.8478 42.6251 92.8633 42.6354 92.8763 42.6484C92.8893 42.6614 92.8996 42.6768 92.9066 42.6938C92.9136 42.7108 92.9173 42.729 92.9173 42.7474V52.7142C92.9173 52.7326 92.9136 52.7508 92.9066 52.7678C92.8996 52.7847 92.8893 52.8002 92.8763 52.8132C92.8633 52.8262 92.8478 52.8365 92.8309 52.8435C92.8139 52.8506 92.7957 52.8542 92.7773 52.8542Z" fill="#E2E2E2"/>
<path d="M94.0647 53.694C94.0251 53.694 93.9871 53.6783 93.9591 53.6503C93.9311 53.6223 93.9154 53.5843 93.9154 53.5447V43.5312C93.9154 43.4916 93.9311 43.4537 93.9591 43.4257C93.9871 43.3977 94.0251 43.3819 94.0647 43.3819C94.1043 43.3819 94.1422 43.3977 94.1702 43.4257C94.1982 43.4537 94.214 43.4916 94.214 43.5312V53.5447C94.214 53.5643 94.2101 53.5837 94.2026 53.6019C94.1951 53.62 94.1841 53.6364 94.1702 53.6503C94.1564 53.6642 94.1399 53.6752 94.1218 53.6827C94.1037 53.6902 94.0843 53.694 94.0647 53.694Z" fill="#E2E2E2"/>
<path d="M95.3522 54.45C95.3126 54.45 95.2746 54.4343 95.2466 54.4063C95.2186 54.3783 95.2029 54.3403 95.2029 54.3007V44.2685C95.2029 44.2289 95.2186 44.191 95.2466 44.163C95.2746 44.135 95.3126 44.1192 95.3522 44.1192C95.3917 44.1192 95.4297 44.135 95.4577 44.163C95.4857 44.191 95.5014 44.2289 95.5014 44.2685V54.3007C95.5014 54.3403 95.4857 54.3783 95.4577 54.4063C95.4297 54.4343 95.3917 54.45 95.3522 54.45Z" fill="#E2E2E2"/>
<path d="M96.6398 55.1873C96.6017 55.1873 96.5651 55.1729 96.5374 55.1469C96.5096 55.1209 96.4929 55.0852 96.4905 55.0473V45.1085C96.4905 45.0689 96.5062 45.0309 96.5342 45.0029C96.5622 44.9749 96.6002 44.9591 96.6398 44.9591C96.6793 44.9591 96.7173 44.9749 96.7453 45.0029C96.7733 45.0309 96.789 45.0689 96.789 45.1085V55.0566C96.7845 55.0929 96.7667 55.1262 96.7392 55.1503C96.7117 55.1744 96.6763 55.1875 96.6398 55.1873Z" fill="#E2E2E2"/>
<path d="M97.9365 55.9524C97.8969 55.9524 97.859 55.9367 97.831 55.9087C97.803 55.8807 97.7872 55.8427 97.7872 55.8031V45.855C97.7872 45.8154 97.803 45.7774 97.831 45.7494C97.859 45.7214 97.8969 45.7057 97.9365 45.7057C97.9745 45.708 98.0101 45.7248 98.0361 45.7526C98.0621 45.7803 98.0765 45.8169 98.0764 45.855V55.8031C98.0765 55.8412 98.0621 55.8778 98.0361 55.9055C98.0101 55.9333 97.9745 55.9501 97.9365 55.9524Z" fill="#E2E2E2"/>
<path d="M99.224 56.6898C99.186 56.6899 99.1493 56.6754 99.1216 56.6494C99.0939 56.6234 99.0771 56.5878 99.0747 56.5498V46.5177C99.0747 46.4981 99.0786 46.4786 99.0861 46.4605C99.0936 46.4424 99.1046 46.4259 99.1184 46.4121C99.1323 46.3982 99.1487 46.3872 99.1669 46.3797C99.185 46.3722 99.2044 46.3683 99.224 46.3683C99.2436 46.3683 99.263 46.3722 99.2811 46.3797C99.2992 46.3872 99.3157 46.3982 99.3295 46.4121C99.3434 46.4259 99.3544 46.4424 99.3619 46.4605C99.3694 46.4786 99.3733 46.4981 99.3733 46.5177V56.5498C99.3709 56.5878 99.3541 56.6234 99.3264 56.6494C99.2986 56.6754 99.262 56.6899 99.224 56.6898Z" fill="#E2E2E2"/>
<path d="M100.512 57.483C100.472 57.483 100.434 57.4672 100.406 57.4392C100.378 57.4112 100.362 57.3733 100.362 57.3337V47.3202C100.362 47.2806 100.378 47.2426 100.406 47.2146C100.434 47.1866 100.472 47.1709 100.512 47.1709C100.551 47.1709 100.589 47.1866 100.617 47.2146C100.645 47.2426 100.661 47.2806 100.661 47.3202V57.3337C100.661 57.3733 100.645 57.4112 100.617 57.4392C100.589 57.4672 100.551 57.483 100.512 57.483Z" fill="#E2E2E2"/>
<path d="M101.799 58.2015C101.759 58.2015 101.721 58.1858 101.693 58.1578C101.665 58.1298 101.65 58.0918 101.65 58.0522V48.0854C101.65 48.0458 101.665 48.0078 101.693 47.9798C101.721 47.9518 101.759 47.9361 101.799 47.9361C101.839 47.9361 101.876 47.9518 101.904 47.9798C101.932 48.0078 101.948 48.0458 101.948 48.0854V58.0522C101.948 58.0718 101.944 58.0912 101.937 58.1093C101.929 58.1274 101.918 58.1439 101.904 58.1578C101.891 58.1716 101.874 58.1826 101.856 58.1901C101.838 58.1976 101.819 58.2015 101.799 58.2015Z" fill="#E2E2E2"/>
<path d="M103.096 58.8642C103.056 58.8642 103.018 58.8484 102.99 58.8204C102.962 58.7924 102.946 58.7545 102.946 58.7149V48.832C102.941 48.81 102.94 48.7869 102.945 48.7646C102.95 48.7424 102.959 48.7214 102.973 48.7034C102.987 48.6855 103.005 48.6709 103.025 48.6609C103.046 48.6509 103.068 48.6457 103.091 48.6457C103.114 48.6457 103.136 48.6509 103.157 48.6609C103.177 48.6709 103.195 48.6855 103.209 48.7034C103.223 48.7214 103.233 48.7424 103.237 48.7646C103.242 48.7869 103.241 48.81 103.236 48.832V58.7149C103.236 58.7529 103.221 58.7895 103.195 58.8173C103.169 58.845 103.134 58.8618 103.096 58.8642Z" fill="#E2E2E2"/>
<path d="M104.383 59.7227C104.344 59.7227 104.306 59.707 104.278 59.679C104.25 59.651 104.234 59.613 104.234 59.5734V49.6626C104.234 49.623 104.25 49.585 104.278 49.557C104.306 49.529 104.344 49.5133 104.383 49.5133C104.423 49.5133 104.461 49.529 104.489 49.557C104.517 49.585 104.532 49.623 104.532 49.6626V59.5734C104.532 59.613 104.517 59.651 104.489 59.679C104.461 59.707 104.423 59.7227 104.383 59.7227Z" fill="#E2E2E2"/>
<path d="M105.689 60.4599C105.651 60.46 105.615 60.4455 105.587 60.4195C105.559 60.3935 105.542 60.3579 105.54 60.3199V50.3997C105.54 50.3601 105.556 50.3222 105.584 50.2942C105.612 50.2662 105.65 50.2504 105.689 50.2504C105.729 50.2504 105.767 50.2662 105.795 50.2942C105.823 50.3222 105.839 50.3601 105.839 50.3997V60.3199C105.836 60.3579 105.819 60.3935 105.792 60.4195C105.764 60.4455 105.727 60.46 105.689 60.4599Z" fill="#E2E2E2"/>
</g>
<defs>
<filter id="filter0_d" x="0" y="0" width="166" height="106" filterUnits="userSpaceOnUse" color-interpolation-filters="sRGB">
<feFlood flood-opacity="0" result="BackgroundImageFix"/>
<feColorMatrix in="SourceAlpha" type="matrix" values="0 0 0 0 0 0 0 0 0 0 0 0 0 0 0 0 0 0 127 0" result="hardAlpha"/>
<feOffset dy="4"/>
<feGaussianBlur stdDeviation="4"/>
<feComposite in2="hardAlpha" operator="out"/>
<feColorMatrix type="matrix" values="0 0 0 0 0 0 0 0 0 0 0 0 0 0 0 0 0 0 0.5 0"/>
<feBlend mode="normal" in2="BackgroundImageFix" result="effect1_dropShadow"/>
<feBlend mode="normal" in="SourceGraphic" in2="effect1_dropShadow" result="shape"/>
</filter>
</defs>
</svg>
