<svg width="183" height="35" viewBox="0 0 183 35" fill="none" xmlns="http://www.w3.org/2000/svg">
<path d="M69.8215 12.5972L68.5019 15.3589H76.3977L74.8021 18.6904H66.9062L63.7082 25.3253H58.7681L65.3325 11.648L66.4871 9.26569H79.3382L77.7409 12.5972H69.8215Z" fill="white"/>
<path d="M78.0492 25.3253C75.5244 25.3253 74.2789 23.619 75.2972 21.4786L81.1883 9.26569H86.115L80.6935 20.531C80.308 21.3444 80.7759 22.022 81.7673 22.022H84.9856L91.1225 9.26569H96.0744L88.3435 25.3253H78.0492Z" fill="white"/>
<path d="M114.616 9.26569C113.653 11.2686 107.848 23.3208 106.885 25.3253H102.482L99.6206 15.6289L94.9431 25.3253H90.0181L97.7489 9.26569H102.152L105.014 18.9605L109.691 9.26569H114.616Z" fill="white"/>
<path d="M130.135 9.26569L128.539 12.5972L128.371 12.9484L115.878 22.0203H123.995L122.399 25.3336H108.563L110.159 22.0203L110.378 21.6691L122.87 12.5972H114.699L116.294 9.26569H130.135Z" fill="white"/>
<path d="M142.792 9.26569C145.351 9.26569 146.588 10.9985 145.571 13.1373L141.554 21.4786C140.508 23.619 137.618 25.3253 135.06 25.3253H128.566C127.356 25.3253 126.365 24.9194 125.873 24.2154C125.35 23.4831 125.323 22.509 125.818 21.4786L129.835 13.1108C130.881 10.9985 133.771 9.26569 136.302 9.26569H142.792ZM134.565 22.022C135.555 22.022 136.656 21.346 137.068 20.531L140.15 14.0866C140.562 13.2466 140.094 12.5956 139.105 12.5956H136.821C135.831 12.5956 134.73 13.245 134.318 14.0866L131.207 20.531C130.822 21.3444 131.29 22.022 132.281 22.022H134.565Z" fill="white"/>
<path d="M166.399 9.26569C165.436 11.2686 159.631 23.3208 158.668 25.3253H154.265L151.403 15.6289L146.726 25.3253H141.801L149.532 9.26569H153.935L156.796 18.9605L161.474 9.26569H166.399Z" fill="white"/>
<path d="M169.757 15.3589H178.588L176.993 18.6904H170.26C169.269 18.6904 168.168 19.3663 167.756 20.1814L166.875 22.022H175.406L173.81 25.3353H160.346L163.293 19.2321C164.303 17.0917 167.197 15.3589 169.757 15.3589ZM181.539 9.26569L179.943 12.5972H166.481L168.077 9.26569H181.539Z" fill="white"/>
<path fill-rule="evenodd" clip-rule="evenodd" d="M29.7488 7.13689C31.0527 7.13689 32.7339 6.01168 33.4844 4.63432L36 0H15.6197C14.3158 0 12.6345 1.12732 11.8861 2.50257L10.9931 4.14058L8.47754 8.74735C9.43346 7.5395 12.3494 7.21741 17.2149 7.2386C20.2902 7.25132 29.7488 7.13689 29.7488 7.13689Z" fill="white"/>
<path fill-rule="evenodd" clip-rule="evenodd" d="M30.7003 27.5431L26.1304 27.6025C26.1304 27.6025 23.6148 27.6364 22.6631 30.0902C21.9629 31.885 21.0175 34.1757 19.9609 34.7521H28.6103C29.9142 34.7351 31.0378 33.5612 31.7694 32.1753L32.6436 30.5267L34.3374 27.3291C34.3374 27.3291 32.4256 27.488 30.7003 27.5431Z" fill="white"/>
<path fill-rule="evenodd" clip-rule="evenodd" d="M28.8979 13.7991L28.6274 13.8161C28.6987 13.8161 28.77 13.8013 28.8371 13.7991H16.9405C15.427 13.7991 14.3956 14.6171 13.817 16.0284C12.9177 18.2131 11.6683 20.9339 11.6683 20.9339H17.7874L14.6304 27.7339L12.6871 31.9147C11.9304 33.3408 11.4189 34.3262 11.0269 35L14.5696 34.9386L16.4186 34.8157C17.9677 34.7139 19.5966 33.8388 20.2443 32.4593L28.8979 13.7991Z" fill="white"/>
<path d="M8.9114 23.5806C7.44399 26.6998 7.04778 26.8841 0 27.3313C0 27.3313 4.97873 16.4945 7.81294 10.5634C8.91979 8.24516 13.473 8.44435 15.9885 8.32568C15.9864 8.32568 11.0266 19.0628 8.9114 23.5806Z" fill="white"/>
</svg>
